<mxfile modified="2024-04-30T01:22:50.737Z" host="app.diagrams.net" agent="Mozilla/5.0 (Windows NT 10.0; Win64; x64) AppleWebKit/537.36 (KHTML, like Gecko) Chrome/124.0.0.0 Safari/537.36" etag="EGcd2-Yoq3M-_kZi6GQV" version="24.3.1" type="github">
  <diagram id="l8hXMBHkgcEJcSW0mbfh" name="Page-1">
    <mxGraphModel dx="1647" dy="839" grid="1" gridSize="10" guides="1" tooltips="1" connect="1" arrows="1" fold="1" page="1" pageScale="1" pageWidth="1169" pageHeight="827" math="0" shadow="0">
      <root>
        <mxCell id="0" />
        <mxCell id="1" parent="0" />
        <mxCell id="8--HhbSZYtI3ddgJnD71-2" value="Mobile" style="shape=image;verticalLabelPosition=bottom;verticalAlign=top;imageAspect=0;aspect=fixed;image=data:image/svg+xml,PHN2ZyB4bWxucz0iaHR0cDovL3d3dy53My5vcmcvMjAwMC9zdmciIHZlcnNpb249IjEiIHZpZXdCb3g9IjAgMCA0OCA0OCIgZW5hYmxlLWJhY2tncm91bmQ9Im5ldyAwIDAgNDggNDgiPiYjeGE7ICAgIDxwYXRoIGZpbGw9IiMzNzQ3NEYiIGQ9Ik00LDM5VjdjMC0yLjIsMS44LTQsNC00aDIyYzIuMiwwLDQsMS44LDQsNHYzMmMwLDIuMi0xLjgsNC00LDRIOEM1LjgsNDMsNCw0MS4yLDQsMzl6Ii8+JiN4YTsgICAgPHBhdGggZmlsbD0iI0JCREVGQiIgZD0iTTMwLDZIOEM3LjQsNiw3LDYuNCw3LDd2MjljMCwwLjYsMC40LDEsMSwxaDIyYzAuNiwwLDEtMC40LDEtMVY3QzMxLDYuNCwzMC42LDYsMzAsNnoiLz4mI3hhOyAgICA8cmVjdCB4PSIxNSIgeT0iMzkiIGZpbGw9IiM3ODkwOUMiIHdpZHRoPSI2IiBoZWlnaHQ9IjIiLz4mI3hhOyAgICA8cGF0aCBmaWxsPSIjRTM4OTM5IiBkPSJNMjQsNDFWMTdjMC0yLjIsMS44LTQsNC00aDEyYzIuMiwwLDQsMS44LDQsNHYyNGMwLDIuMi0xLjgsNC00LDRIMjhDMjUuOCw0NSwyNCw0My4yLDI0LDQxeiIvPiYjeGE7ICAgIDxwYXRoIGZpbGw9IiNGRkYzRTAiIGQ9Ik00MCwxNkgyOGMtMC42LDAtMSwwLjQtMSwxdjIyYzAsMC42LDAuNCwxLDEsMWgxMmMwLjYsMCwxLTAuNCwxLTFWMTdDNDEsMTYuNCw0MC42LDE2LDQwLDE2eiIvPiYjeGE7ICAgIDxjaXJjbGUgZmlsbD0iI0E2NjQyQSIgY3g9IjM0IiBjeT0iNDIuNSIgcj0iMS41Ii8+JiN4YTs8L3N2Zz4=;labelBackgroundColor=#ffffff;" parent="1" vertex="1">
          <mxGeometry x="277" y="50" width="58" height="58" as="geometry" />
        </mxCell>
        <mxCell id="ogB1OXXyy9iU-GvDi_hn-6" value="" style="endArrow=classic;html=1;rounded=0;entryX=0.174;entryY=0.027;entryDx=0;entryDy=0;entryPerimeter=0;" edge="1" parent="1" source="8--HhbSZYtI3ddgJnD71-2" target="ogB1OXXyy9iU-GvDi_hn-8">
          <mxGeometry width="50" height="50" relative="1" as="geometry">
            <mxPoint x="230" y="150" as="sourcePoint" />
            <mxPoint x="370" y="220" as="targetPoint" />
          </mxGeometry>
        </mxCell>
        <mxCell id="ogB1OXXyy9iU-GvDi_hn-7" value="https" style="edgeLabel;html=1;align=center;verticalAlign=middle;resizable=0;points=[];" vertex="1" connectable="0" parent="ogB1OXXyy9iU-GvDi_hn-6">
          <mxGeometry x="-0.053" relative="1" as="geometry">
            <mxPoint y="1" as="offset" />
          </mxGeometry>
        </mxCell>
        <mxCell id="ogB1OXXyy9iU-GvDi_hn-8" value="Haproxy&amp;nbsp;" style="verticalLabelPosition=bottom;html=1;verticalAlign=top;align=center;strokeColor=none;fillColor=#00BEF2;shape=mxgraph.azure.load_balancer_generic;pointerEvents=1;" vertex="1" parent="1">
          <mxGeometry x="360" y="210" width="70" height="70" as="geometry" />
        </mxCell>
        <mxCell id="ogB1OXXyy9iU-GvDi_hn-9" value="" style="endArrow=none;html=1;rounded=0;" edge="1" parent="1">
          <mxGeometry width="50" height="50" relative="1" as="geometry">
            <mxPoint x="80" y="360" as="sourcePoint" />
            <mxPoint x="970" y="360" as="targetPoint" />
          </mxGeometry>
        </mxCell>
        <mxCell id="ogB1OXXyy9iU-GvDi_hn-10" value="Load Balance" style="text;html=1;align=center;verticalAlign=middle;whiteSpace=wrap;rounded=0;fontStyle=1;fontSize=16;" vertex="1" parent="1">
          <mxGeometry x="120" y="270" width="110" height="30" as="geometry" />
        </mxCell>
        <mxCell id="ogB1OXXyy9iU-GvDi_hn-11" style="rounded=0;orthogonalLoop=1;jettySize=auto;html=1;entryX=0.705;entryY=0.049;entryDx=0;entryDy=0;entryPerimeter=0;strokeColor=default;" edge="1" parent="1" target="ogB1OXXyy9iU-GvDi_hn-8">
          <mxGeometry relative="1" as="geometry">
            <mxPoint x="460.4673158525993" y="87.23386310618855" as="sourcePoint" />
          </mxGeometry>
        </mxCell>
        <mxCell id="ogB1OXXyy9iU-GvDi_hn-12" value="" style="endArrow=none;html=1;rounded=0;" edge="1" parent="1">
          <mxGeometry width="50" height="50" relative="1" as="geometry">
            <mxPoint x="80" y="520" as="sourcePoint" />
            <mxPoint x="970" y="520" as="targetPoint" />
          </mxGeometry>
        </mxCell>
        <mxCell id="ogB1OXXyy9iU-GvDi_hn-13" value="R31" style="shape=image;verticalLabelPosition=bottom;labelBackgroundColor=#ffffff;verticalAlign=top;aspect=fixed;imageAspect=0;image=data:image/svg+xml,PHN2ZyB4bWxuczpjYz0iaHR0cDovL2NyZWF0aXZlY29tbW9ucy5vcmcvbnMjIiB4bWxuczpkYz0iaHR0cDovL3B1cmwub3JnL2RjL2VsZW1lbnRzLzEuMS8iIHhtbG5zOmlua3NjYXBlPSJodHRwOi8vd3d3Lmlua3NjYXBlLm9yZy9uYW1lc3BhY2VzL2lua3NjYXBlIiB4bWxuczpyZGY9Imh0dHA6Ly93d3cudzMub3JnLzE5OTkvMDIvMjItcmRmLXN5bnRheC1ucyMiIHhtbG5zOnNvZGlwb2RpPSJodHRwOi8vc29kaXBvZGkuc291cmNlZm9yZ2UubmV0L0RURC9zb2RpcG9kaS0wLmR0ZCIgeG1sbnM6c3ZnPSJodHRwOi8vd3d3LnczLm9yZy8yMDAwL3N2ZyIgeG1sbnM9Imh0dHA6Ly93d3cudzMub3JnLzIwMDAvc3ZnIiB4bWxuczp4bGluaz0iaHR0cDovL3d3dy53My5vcmcvMTk5OS94bGluayIgdmVyc2lvbj0iMS4xIiBpZD0ic3ZnMjYwMjQ5IiBpbmtzY2FwZTp2ZXJzaW9uPSIwLjkyLjMgKDI0MDU1NDYsIDIwMTgtMDMtMTEpIiBzb2RpcG9kaTpkb2NuYW1lPSJteXNxbF9zZXJ2ZXIuc3ZnIiB4PSIwcHgiIHk9IjBweCIgdmlld0JveD0iMCAwIDQ4LjQxIDcwLjczIiBzdHlsZT0iZW5hYmxlLWJhY2tncm91bmQ6bmV3IDAgMCA0OC40MSA3MC43MzsiIHhtbDpzcGFjZT0icHJlc2VydmUiPiYjeGE7PGZpbHRlciBpZD0iZmlsdGVyXzIiPiYjeGE7CTxmZUdhdXNzaWFuQmx1ciBpZD0iZmVHYXVzc2lhbkJsdXIyNjAwOTIiIHN0ZERldmlhdGlvbj0iMiIvPiYjeGE7PC9maWx0ZXI+JiN4YTs8c29kaXBvZGk6bmFtZWR2aWV3IGJvcmRlcmNvbG9yPSIjNjY2NjY2IiBib3JkZXJvcGFjaXR5PSIxIiBmaXQtbWFyZ2luLWJvdHRvbT0iMCIgZml0LW1hcmdpbi1sZWZ0PSIwIiBmaXQtbWFyZ2luLXJpZ2h0PSIwIiBmaXQtbWFyZ2luLXRvcD0iMCIgZ3JpZHRvbGVyYW5jZT0iMTAiIGd1aWRldG9sZXJhbmNlPSIxMCIgaWQ9Im5hbWVkdmlldzI2MDI1MSIgaW5rc2NhcGU6Y3VycmVudC1sYXllcj0ic3ZnMjYwMjQ5IiBpbmtzY2FwZTpjeD0iMzIuMTkwODk3IiBpbmtzY2FwZTpjeT0iNDcuMDQ2MjQyIiBpbmtzY2FwZTpwYWdlb3BhY2l0eT0iMCIgaW5rc2NhcGU6cGFnZXNoYWRvdz0iMiIgaW5rc2NhcGU6d2luZG93LWhlaWdodD0iMTAxNyIgaW5rc2NhcGU6d2luZG93LW1heGltaXplZD0iMSIgaW5rc2NhcGU6d2luZG93LXdpZHRoPSIxOTIwIiBpbmtzY2FwZTp3aW5kb3cteD0iLTgiIGlua3NjYXBlOndpbmRvdy15PSItOCIgaW5rc2NhcGU6em9vbT0iOC45ODI0NzUzIiBvYmplY3R0b2xlcmFuY2U9IjEwIiBwYWdlY29sb3I9IiNmZmZmZmYiIHNob3dncmlkPSJmYWxzZSI+JiN4YTsJPC9zb2RpcG9kaTpuYW1lZHZpZXc+JiN4YTs8ZyBpZD0iZzI2MDI0NyIgdHJhbnNmb3JtPSJ0cmFuc2xhdGUoLTAuNzUsLTAuNzUwMjIyMTIpIj4mI3hhOwk8dGl0bGUgaWQ9InRpdGxlMjYwMDk2Ij5QYWdlLTE8L3RpdGxlPiYjeGE7CTxnIGlkPSJncm91cDExMDQ0LTEiIHRyYW5zZm9ybT0idHJhbnNsYXRlKDEuNSwtMi42MzMyMykiPiYjeGE7CQk8dGl0bGUgaWQ9InRpdGxlMjYwMDk4Ij5NeVNRTCBTZXJ2ZXI8L3RpdGxlPiYjeGE7CQk8ZyBpZD0iZ3JvdXAxMTA0NS0yIj4mI3hhOwkJCTx0aXRsZSBpZD0idGl0bGUyNjAxMDAiPkdlbmVyaWMgU2VydmljZTwvdGl0bGU+JiN4YTsJCQk8ZyBpZD0iZ3JvdXAxMTA0Ni0zIiB0cmFuc2Zvcm09InRyYW5zbGF0ZSgwLC0wLjAwNzM5ODc2KSI+JiN4YTsJCQkJPHRpdGxlIGlkPSJ0aXRsZTI2MDEwMiI+ZzE1NDMzLjExNzIxPC90aXRsZT4mI3hhOwkJCQk8ZyBpZD0ic2hhcGUxMTA0Ny00Ij4mI3hhOwkJCQkJPHRpdGxlIGlkPSJ0aXRsZTI2MDEwNCI+cmVjdDE1NDA1PC90aXRsZT4mI3hhOwkJCQkJJiN4YTsJCQkJCQk8cmVjdCBpZD0icmVjdDI2MDEwNiIgeT0iNC4xNCIgc3R5bGU9ImZpbGw6I0ZGRkZGRjtzdHJva2U6IzU1NkE4QTtzdHJva2Utd2lkdGg6MS41O3N0cm9rZS1taXRlcmxpbWl0OjM7IiB3aWR0aD0iMzkuNzUiIGhlaWdodD0iNjguMjUiLz4mI3hhOwkJCQk8L2c+JiN4YTsJCQkJPGcgaWQ9Imdyb3VwMTEwNDgtNiIgdHJhbnNmb3JtPSJ0cmFuc2xhdGUoMS41LC0wLjc1KSI+JiN4YTsJCQkJCTx0aXRsZSBpZD0idGl0bGUyNjAxMDkiPmcxNTQyNTwvdGl0bGU+JiN4YTsJCQkJCTxnIGlkPSJzaGFwZTExMDQ5LTciIHRyYW5zZm9ybT0idHJhbnNsYXRlKDE4KSI+JiN4YTsJCQkJCQk8dGl0bGUgaWQ9InRpdGxlMjYwMTExIj5yZWN0MTU0MDc8L3RpdGxlPiYjeGE7CQkJCQkJPHJlY3QgaWQ9InJlY3QyNjAxMTMiIHk9IjUuNjQiIHN0eWxlPSJmaWxsOiNFNUU1RTU7IiB3aWR0aD0iMTkuNSIgaGVpZ2h0PSI2Ni43NSIvPiYjeGE7CQkJCQk8L2c+JiN4YTsJCQkJCTxnIGlkPSJzaGFwZTExMDUwLTkiIHRyYW5zZm9ybT0idHJhbnNsYXRlKDAsLTQ4KSI+JiN4YTsJCQkJCQk8dGl0bGUgaWQ9InRpdGxlMjYwMTE2Ij5yZWN0MTU0MDk8L3RpdGxlPiYjeGE7CQkJCQkJPHJlY3QgaWQ9InJlY3QyNjAxMTgiIHk9IjcwLjE0IiBzdHlsZT0iZmlsbDojMkJDN0Y0OyIgd2lkdGg9IjE4IiBoZWlnaHQ9IjIuMjUiLz4mI3hhOwkJCQkJPC9nPiYjeGE7CQkJCQk8ZyBpZD0ic2hhcGUxMTA1MS0xMSIgdHJhbnNmb3JtPSJ0cmFuc2xhdGUoMCwtNTguNSkiPiYjeGE7CQkJCQkJPHRpdGxlIGlkPSJ0aXRsZTI2MDEyMSI+cG9seWdvbjE1NDExPC90aXRsZT4mI3hhOwkJCQkJCTxyZWN0IGlkPSJyZWN0MjYwMTIzIiB5PSI3MC4xNCIgc3R5bGU9ImZpbGw6bm9uZTsiIHdpZHRoPSIyNyIgaGVpZ2h0PSIyLjI1Ii8+JiN4YTsJCQkJCTwvZz4mI3hhOwkJCQkJPGcgaWQ9InNoYXBlMTEwNTItMTMiIHRyYW5zZm9ybT0idHJhbnNsYXRlKDAsLTU4LjUpIj4mI3hhOwkJCQkJCTx0aXRsZSBpZD0idGl0bGUyNjAxMjYiPnBvbHlsaW5lMTU0MTM8L3RpdGxlPiYjeGE7CQkJCQkJPHJlY3QgaWQ9InJlY3QyNjAxMjgiIHk9IjcwLjE0IiBzdHlsZT0iZmlsbDpub25lOyIgd2lkdGg9IjI3IiBoZWlnaHQ9IjIuMjUiLz4mI3hhOwkJCQkJPC9nPiYjeGE7CQkJCQk8ZyBpZD0ic2hhcGUxMTA1My0xNSIgdHJhbnNmb3JtPSJ0cmFuc2xhdGUoMCwtNTMuMjUpIj4mI3hhOwkJCQkJCTx0aXRsZSBpZD0idGl0bGUyNjAxMzEiPnJlY3QxNTQxNTwvdGl0bGU+JiN4YTsJCQkJCQk8cmVjdCBpZD0icmVjdDI2MDEzMyIgeT0iNzAuMTQiIHN0eWxlPSJmaWxsOiMyQkM3RjQ7IiB3aWR0aD0iMTgiIGhlaWdodD0iMi4yNSIvPiYjeGE7CQkJCQk8L2c+JiN4YTsJCQkJCTxnIGlkPSJzaGFwZTExMDU0LTE3IiB0cmFuc2Zvcm09InRyYW5zbGF0ZSgwLC01OC41KSI+JiN4YTsJCQkJCQk8dGl0bGUgaWQ9InRpdGxlMjYwMTM2Ij5yZWN0MTU0MTc8L3RpdGxlPiYjeGE7CQkJCQkJPHJlY3QgaWQ9InJlY3QyNjAxMzgiIHk9IjcwLjE0IiBzdHlsZT0iZmlsbDojMkJDN0Y0OyIgd2lkdGg9IjE4IiBoZWlnaHQ9IjIuMjUiLz4mI3hhOwkJCQkJPC9nPiYjeGE7CQkJCQk8ZyBpZD0ic2hhcGUxMTA1NS0xOSIgdHJhbnNmb3JtPSJ0cmFuc2xhdGUoMTgsLTQ4KSI+JiN4YTsJCQkJCQk8dGl0bGUgaWQ9InRpdGxlMjYwMTQxIj5yZWN0MTU0MTk8L3RpdGxlPiYjeGE7CQkJCQkJPHJlY3QgaWQ9InJlY3QyNjAxNDMiIHk9IjcwLjE0IiBzdHlsZT0iZmlsbDojNTU2QThBOyIgd2lkdGg9IjE5LjUiIGhlaWdodD0iMi4yNSIvPiYjeGE7CQkJCQk8L2c+JiN4YTsJCQkJCTxnIGlkPSJzaGFwZTExMDU2LTIxIiB0cmFuc2Zvcm09InRyYW5zbGF0ZSgxOCwtNTMuMjUpIj4mI3hhOwkJCQkJCTx0aXRsZSBpZD0idGl0bGUyNjAxNDYiPnJlY3QxNTQyMTwvdGl0bGU+JiN4YTsJCQkJCQk8cmVjdCBpZD0icmVjdDI2MDE0OCIgeT0iNzAuMTQiIHN0eWxlPSJmaWxsOiM1NTZBOEE7IiB3aWR0aD0iMTkuNSIgaGVpZ2h0PSIyLjI1Ii8+JiN4YTsJCQkJCTwvZz4mI3hhOwkJCQkJPGcgaWQ9InNoYXBlMTEwNTctMjMiIHRyYW5zZm9ybT0idHJhbnNsYXRlKDE4LC01OC41KSI+JiN4YTsJCQkJCQk8dGl0bGUgaWQ9InRpdGxlMjYwMTUxIj5yZWN0MTU0MjM8L3RpdGxlPiYjeGE7CQkJCQkJPHJlY3QgaWQ9InJlY3QyNjAxNTMiIHk9IjcwLjE0IiBzdHlsZT0iZmlsbDojNTU2QThBOyIgd2lkdGg9IjE5LjUiIGhlaWdodD0iMi4yNSIvPiYjeGE7CQkJCQk8L2c+JiN4YTsJCQkJPC9nPiYjeGE7CQkJCTxnIGlkPSJzaGFwZTExMDU4LTI1IiB0cmFuc2Zvcm09InRyYW5zbGF0ZSgwLjc1LC01OS4yNSkiPiYjeGE7CQkJCQk8dGl0bGUgaWQ9InRpdGxlMjYwMTU3Ij5yZWN0MTU0Mjc8L3RpdGxlPiYjeGE7CQkJCQk8cmVjdCBpZD0icmVjdDI2MDE1OSIgeT0iNzAuMTQiIHN0eWxlPSJmaWxsOiM1NTZBOEE7IiB3aWR0aD0iMi4yNSIgaGVpZ2h0PSIyLjI1Ii8+JiN4YTsJCQkJPC9nPiYjeGE7CQkJCTxnIGlkPSJzaGFwZTExMDU5LTI3IiB0cmFuc2Zvcm09InRyYW5zbGF0ZSgwLjc1LC01NCkiPiYjeGE7CQkJCQk8dGl0bGUgaWQ9InRpdGxlMjYwMTYyIj5yZWN0MTU0Mjk8L3RpdGxlPiYjeGE7CQkJCQk8cmVjdCBpZD0icmVjdDI2MDE2NCIgeT0iNzAuMTQiIHN0eWxlPSJmaWxsOiM1NTZBOEE7IiB3aWR0aD0iMi4yNSIgaGVpZ2h0PSIyLjI1Ii8+JiN4YTsJCQkJPC9nPiYjeGE7CQkJCTxnIGlkPSJzaGFwZTExMDYwLTI5IiB0cmFuc2Zvcm09InRyYW5zbGF0ZSgwLjc1LC00OC43NSkiPiYjeGE7CQkJCQk8dGl0bGUgaWQ9InRpdGxlMjYwMTY3Ij5yZWN0MTU0MzE8L3RpdGxlPiYjeGE7CQkJCQk8cmVjdCBpZD0icmVjdDI2MDE2OSIgeT0iNzAuMTQiIHN0eWxlPSJmaWxsOiM1NTZBOEE7IiB3aWR0aD0iMi4yNSIgaGVpZ2h0PSIyLjI1Ii8+JiN4YTsJCQkJPC9nPiYjeGE7CQkJPC9nPiYjeGE7CQkJPGcgaWQ9InNoYXBlMTEwNjEtMzEiIHRyYW5zZm9ybT0idHJhbnNsYXRlKDEzLjY5ODMpIj4mI3hhOwkJCQk8dGl0bGUgaWQ9InRpdGxlMjYwMTczIj5wb2x5Z29uMTU0MzUuMTE3Mzc8L3RpdGxlPiYjeGE7CQkJCSYjeGE7CQkJCQk8cGF0aCBpZD0icGF0aDI2MDE3NSIgaW5rc2NhcGU6Y29ubmVjdG9yLWN1cnZhdHVyZT0iMCIgc3R5bGU9ImZpbGw6I0ZGRkZGRjtzdHJva2U6I0VBNzAwRDtzdHJva2Utd2lkdGg6MS41O3N0cm9rZS1taXRlcmxpbWl0OjM7IiBkPSIgICAgICBNOC4yNyw3Mi4zOUwwLDU4LjE2bDguMjctMTQuMjRoMTYuNTVsOC4yNywxNC4yNGwtOC4yNywxNC4yM0g4LjI3eiIvPiYjeGE7CQkJPC9nPiYjeGE7CQk8L2c+JiN4YTsJCTxnIGlkPSJncm91cDExMDYyLTMzIiB0cmFuc2Zvcm09InRyYW5zbGF0ZSgyMS4yOTEyLC0yLjMzOTU1KSI+JiN4YTsJCQk8dGl0bGUgaWQ9InRpdGxlMjYwMTc5Ij5NeVNRTDwvdGl0bGU+JiN4YTsJCQk8ZyBpZD0ic2hhcGUxMTA2My0zNCI+JiN4YTsJCQkJPHRpdGxlIGlkPSJ0aXRsZTI2MDE4MSI+U2hlZXQuMTEwNjM8L3RpdGxlPiYjeGE7CQkJCTxnIGlkPSJzaGFkb3cxMTA2My0zNSIgdHJhbnNmb3JtPSJ0cmFuc2xhdGUoMC4zNDU2LDEuOTcyOCkiPiYjeGE7CQkJCQk8ZyBpZD0icGF0aDI2MDE4MyIgaW5rc2NhcGU6Y29ubmVjdG9yLWN1cnZhdHVyZT0iMCIgc3R5bGU9ImZpbHRlcjp1cmwoI2ZpbHRlcl8yKTsiPiYjeGE7CQkJCQkJPHBhdGggc3R5bGU9Im9wYWNpdHk6MC4yMjtmaWxsOiM1QjlCRDU7IiBkPSJNMCw1MS40OXYxNy41OWMwLDEuODMsNC4xMiwzLjMxLDkuMiwzLjMxdi0yMC45TDAsNTEuNDl6Ii8+JiN4YTsJCQkJCTwvZz4mI3hhOwkJCQk8L2c+JiN4YTsJCQkJPHBhdGggaWQ9InBhdGgyNjAxODYiIGlua3NjYXBlOmNvbm5lY3Rvci1jdXJ2YXR1cmU9IjAiIHN0eWxlPSJmaWxsOiMwMDcyQzY7IiBkPSJNMCw1MS40OXYxNy41OWMwLDEuODMsNC4xMiwzLjMxLDkuMiwzLjMxICAgICAgdi0yMC45TDAsNTEuNDl6Ii8+JiN4YTsJCQk8L2c+JiN4YTsJCQk8ZyBpZD0ic2hhcGUxMTA2NC0zOSIgdHJhbnNmb3JtPSJ0cmFuc2xhdGUoOS4wNzEwOCwtNC44NDA0OWUtNCkiPiYjeGE7CQkJCTx0aXRsZSBpZD0idGl0bGUyNjAxODkiPlNoZWV0LjExMDY0PC90aXRsZT4mI3hhOwkJCQk8ZyBpZD0ic2hhZG93MTEwNjQtNDAiIHRyYW5zZm9ybT0idHJhbnNsYXRlKDAuMzQ1NiwxLjk3MjgpIj4mI3hhOwkJCQkJPGcgaWQ9InBhdGgyNjAxOTEiIGlua3NjYXBlOmNvbm5lY3Rvci1jdXJ2YXR1cmU9IjAiIHN0eWxlPSJmaWx0ZXI6dXJsKCNmaWx0ZXJfMik7Ij4mI3hhOwkJCQkJCTxwYXRoIHN0eWxlPSJvcGFjaXR5OjAuMjI7ZmlsbDojNUI5QkQ1OyIgZD0iTTAsNzIuMzloMC4xM2M1LjA3LDAsOS4xOS0xLjQ4LDkuMTktMy4zMVY1MS41SDBWNzIuMzl6Ii8+JiN4YTsJCQkJCTwvZz4mI3hhOwkJCQk8L2c+JiN4YTsJCQkJPHBhdGggaWQ9InBhdGgyNjAxOTQiIGlua3NjYXBlOmNvbm5lY3Rvci1jdXJ2YXR1cmU9IjAiIHN0eWxlPSJmaWxsOiMwMDcyQzY7IiBkPSJNMCw3Mi4zOWgwLjEzYzUuMDcsMCw5LjE5LTEuNDgsOS4xOS0zLjMxICAgICAgVjUxLjVIMFY3Mi4zOXoiLz4mI3hhOwkJCTwvZz4mI3hhOwkJCTxnIGlkPSJzaGFwZTExMDY1LTQ0IiB0cmFuc2Zvcm09InRyYW5zbGF0ZSg5LjA3MTA4LC00Ljg0MDQ5ZS00KSI+JiN4YTsJCQkJPHRpdGxlIGlkPSJ0aXRsZTI2MDE5NyI+U2hlZXQuMTEwNjU8L3RpdGxlPiYjeGE7CQkJCTxnIGlkPSJzaGFkb3cxMTA2NS00NSIgdHJhbnNmb3JtPSJ0cmFuc2xhdGUoMC4zNDU2LDEuOTcyOCkiPiYjeGE7CQkJCQk8ZyBpZD0icGF0aDI2MDE5OSIgaW5rc2NhcGU6Y29ubmVjdG9yLWN1cnZhdHVyZT0iMCIgc3R5bGU9ImZpbHRlcjp1cmwoI2ZpbHRlcl8yKTsiPiYjeGE7CQkJCQkJPHBhdGggc3R5bGU9Im9wYWNpdHk6MC4yMjtmaWxsOiM1QjlCRDU7IiBkPSJNMCw3Mi4zOWgwLjEzYzUuMDcsMCw5LjE5LTEuNDgsOS4xOS0zLjMxVjUxLjVIMFY3Mi4zOXoiLz4mI3hhOwkJCQkJPC9nPiYjeGE7CQkJCTwvZz4mI3hhOwkJCQk8cGF0aCBpZD0icGF0aDI2MDIwMiIgaW5rc2NhcGU6Y29ubmVjdG9yLWN1cnZhdHVyZT0iMCIgc3R5bGU9ImZpbGw6I0ZGRkZGRjtmaWxsLW9wYWNpdHk6MC4xNTsiIGQ9Ik0wLDcyLjM5aDAuMTMgICAgICBjNS4wNywwLDkuMTktMS40OCw5LjE5LTMuMzFWNTEuNUgwVjcyLjM5eiIvPiYjeGE7CQkJPC9nPiYjeGE7CQkJPGcgaWQ9InNoYXBlMTEwNjYtNDkiIHRyYW5zZm9ybT0idHJhbnNsYXRlKDAsLTE3LjU4OTQpIj4mI3hhOwkJCQk8dGl0bGUgaWQ9InRpdGxlMjYwMjA1Ij5TaGVldC4xMTA2NjwvdGl0bGU+JiN4YTsJCQkJPGcgaWQ9InNoYWRvdzExMDY2LTUwIiB0cmFuc2Zvcm09InRyYW5zbGF0ZSgwLjM0NTYsMS45NzI4KSI+JiN4YTsJCQkJCTxnIGlkPSJwYXRoMjYwMjA3IiBpbmtzY2FwZTpjb25uZWN0b3ItY3VydmF0dXJlPSIwIiBzdHlsZT0iZmlsdGVyOnVybCgjZmlsdGVyXzIpOyI+JiN4YTsJCQkJCQk8cGF0aCBzdHlsZT0ib3BhY2l0eTowLjIyO2ZpbGw6IzVCOUJENTsiIGQ9Ik0xOC4zOSw2OS4wOGMwLDEuODMtNC4xMSwzLjMxLTkuMTksMy4zMVMwLDcwLjkxLDAsNjkuMDggICAgICAgIGMwLTEuODIsNC4xMi0zLjMsOS4yLTMuM1MxOC4zOSw2Ny4yNiwxOC4zOSw2OS4wOHoiLz4mI3hhOwkJCQkJPC9nPiYjeGE7CQkJCTwvZz4mI3hhOwkJCQk8cGF0aCBpZD0icGF0aDI2MDIxMCIgaW5rc2NhcGU6Y29ubmVjdG9yLWN1cnZhdHVyZT0iMCIgc3R5bGU9ImZpbGw6I0ZGRkZGRjsiIGQ9Ik0xOC4zOSw2OS4wOGMwLDEuODMtNC4xMSwzLjMxLTkuMTksMy4zMSAgICAgIFMwLDcwLjkxLDAsNjkuMDhjMC0xLjgyLDQuMTItMy4zLDkuMi0zLjNTMTguMzksNjcuMjYsMTguMzksNjkuMDh6Ii8+JiN4YTsJCQk8L2c+JiN4YTsJCQk8ZyBpZD0ic2hhcGUxMTA2Ny01NCIgdHJhbnNmb3JtPSJ0cmFuc2xhdGUoMS44ODAwNSwtMTguOTA0NSkiPiYjeGE7CQkJCTx0aXRsZSBpZD0idGl0bGUyNjAyMTMiPlNoZWV0LjExMDY3PC90aXRsZT4mI3hhOwkJCQk8ZyBpZD0ic2hhZG93MTEwNjctNTUiIHRyYW5zZm9ybT0idHJhbnNsYXRlKDAuMzQ1NiwxLjk3MjgpIj4mI3hhOwkJCQkJPGcgaWQ9InBhdGgyNjAyMTUiIGlua3NjYXBlOmNvbm5lY3Rvci1jdXJ2YXR1cmU9IjAiIHN0eWxlPSJmaWx0ZXI6dXJsKCNmaWx0ZXJfMik7Ij4mI3hhOwkJCQkJCTxwYXRoIHN0eWxlPSJvcGFjaXR5OjAuMjI7ZmlsbDojNUI5QkQ1OyIgZD0iTTE0LjYzLDcwLjIxYzAsMS4yLTMuMjcsMi4xOC03LjMxLDIuMThTMCw3MS40MSwwLDcwLjIxICAgICAgICBjMC0xLjIxLDMuMjgtMi4xOCw3LjMyLTIuMThTMTQuNjMsNjksMTQuNjMsNzAuMjF6Ii8+JiN4YTsJCQkJCTwvZz4mI3hhOwkJCQk8L2c+JiN4YTsJCQkJPHBhdGggaWQ9InBhdGgyNjAyMTgiIGlua3NjYXBlOmNvbm5lY3Rvci1jdXJ2YXR1cmU9IjAiIHN0eWxlPSJmaWxsOiNERDU5MDA7IiBkPSJNMTQuNjMsNzAuMjFjMCwxLjItMy4yNywyLjE4LTcuMzEsMi4xOCAgICAgIFMwLDcxLjQxLDAsNzAuMjFjMC0xLjIxLDMuMjgtMi4xOCw3LjMyLTIuMThTMTQuNjMsNjksMTQuNjMsNzAuMjF6Ii8+JiN4YTsJCQk8L2c+JiN4YTsJCQk8ZyBpZD0ic2hhcGUxMTA2OC01OSIgdHJhbnNmb3JtPSJ0cmFuc2xhdGUoMS44ODEwMiwtMTkuNzUzNikiPiYjeGE7CQkJCTx0aXRsZSBpZD0idGl0bGUyNjAyMjEiPlNoZWV0LjExMDY4PC90aXRsZT4mI3hhOwkJCQk8ZyBpZD0ic2hhZG93MTEwNjgtNjAiIHRyYW5zZm9ybT0idHJhbnNsYXRlKDAuMzQ1NiwxLjk3MjgpIj4mI3hhOwkJCQkJPGcgaWQ9InBhdGgyNjAyMjMiIGlua3NjYXBlOmNvbm5lY3Rvci1jdXJ2YXR1cmU9IjAiIHN0eWxlPSJmaWx0ZXI6dXJsKCNmaWx0ZXJfMik7Ij4mI3hhOwkJCQkJCTxwYXRoIHN0eWxlPSJvcGFjaXR5OjAuMjI7ZmlsbDojNUI5QkQ1OyIgZD0iTTEzLjEsNzIuMzljMC45Ni0wLjM3LDEuNTMtMC44MywxLjUzLTEuMzNjMC0xLjIxLTMuMjctMi4xOC03LjMxLTIuMTggICAgICAgIFMwLDY5Ljg1LDAsNzEuMDZjMCwwLjUsMC41OCwwLjk2LDEuNTMsMS4zM2MxLjM0LTAuNTEsMy40My0wLjg1LDUuNzktMC44NUM5LjY3LDcxLjU0LDExLjc2LDcxLjg4LDEzLjEsNzIuMzl6Ii8+JiN4YTsJCQkJCTwvZz4mI3hhOwkJCQk8L2c+JiN4YTsJCQkJPHBhdGggaWQ9InBhdGgyNjAyMjYiIGlua3NjYXBlOmNvbm5lY3Rvci1jdXJ2YXR1cmU9IjAiIHN0eWxlPSJmaWxsOiNGRjhDMDA7IiBkPSJNMTMuMSw3Mi4zOWMwLjk2LTAuMzcsMS41My0wLjgzLDEuNTMtMS4zMyAgICAgIGMwLTEuMjEtMy4yNy0yLjE4LTcuMzEtMi4xOFMwLDY5Ljg1LDAsNzEuMDZjMCwwLjUsMC41OCwwLjk2LDEuNTMsMS4zM2MxLjM0LTAuNTEsMy40My0wLjg1LDUuNzktMC44NSAgICAgIEM5LjY3LDcxLjU0LDExLjc2LDcxLjg4LDEzLjEsNzIuMzl6Ii8+JiN4YTsJCQk8L2c+JiN4YTsJCQk8ZyBpZD0ic2hhcGUxMTA2OS02NCIgdHJhbnNmb3JtPSJ0cmFuc2xhdGUoMS45MTAwNiwtNy44Nzk4NCkiPiYjeGE7CQkJCTx0aXRsZSBpZD0idGl0bGUyNjAyMjkiPlNoZWV0LjExMDY5PC90aXRsZT4mI3hhOwkJCQk8ZyBpZD0ic2hhZG93MTEwNjktNjUiIHRyYW5zZm9ybT0idHJhbnNsYXRlKDAuMzQ1NiwxLjk3MjgpIj4mI3hhOwkJCQkJPGcgaWQ9InBhdGgyNjAyMzEiIGlua3NjYXBlOmNvbm5lY3Rvci1jdXJ2YXR1cmU9IjAiIHN0eWxlPSJmaWx0ZXI6dXJsKCNmaWx0ZXJfMik7Ij4mI3hhOwkJCQkJCTxwYXRoIHN0eWxlPSJvcGFjaXR5OjAuMjI7ZmlsbDojNUI5QkQ1OyIgZD0iTTAsNzIuMzJoMS4xNnYtNC41OWwxLjgsNGMwLjIyLDAuNDksMC41MSwwLjY2LDEuMDgsMC42NnMwLjg1LTAuMTcsMS4wNi0wLjY2ICAgICAgICBsMS44LTR2NC41OWgxLjE2di00LjU4YzAtMC40NS0wLjE3LTAuNjctMC41NC0wLjc4Yy0wLjg5LTAuMjctMS40OC0wLjA0LTEuNzUsMC41Nkw0LDcxLjQ3bC0xLjcxLTMuOTUgICAgICAgIGMtMC4yNS0wLjYtMC44Ni0wLjgzLTEuNzQtMC41NkMwLjE4LDY3LjA3LDAsNjcuMjksMCw2Ny43NFY3Mi4zMnoiLz4mI3hhOwkJCQkJPC9nPiYjeGE7CQkJCTwvZz4mI3hhOwkJCQk8cGF0aCBpZD0icGF0aDI2MDIzNCIgaW5rc2NhcGU6Y29ubmVjdG9yLWN1cnZhdHVyZT0iMCIgc3R5bGU9ImZpbGw6I0ZGRkZGRjsiIGQ9Ik0wLDcyLjMyaDEuMTZ2LTQuNTlsMS44LDQgICAgICBjMC4yMiwwLjQ5LDAuNTEsMC42NiwxLjA4LDAuNjZzMC44NS0wLjE3LDEuMDYtMC42NmwxLjgtNHY0LjU5aDEuMTZ2LTQuNThjMC0wLjQ1LTAuMTctMC42Ny0wLjU0LTAuNzggICAgICBjLTAuODktMC4yNy0xLjQ4LTAuMDQtMS43NSwwLjU2TDQsNzEuNDdsLTEuNzEtMy45NWMtMC4yNS0wLjYtMC44Ni0wLjgzLTEuNzQtMC41NkMwLjE4LDY3LjA3LDAsNjcuMjksMCw2Ny43NFY3Mi4zMnoiLz4mI3hhOwkJCTwvZz4mI3hhOwkJCTxnIGlkPSJzaGFwZTExMDcwLTY5IiB0cmFuc2Zvcm09InRyYW5zbGF0ZSgxMC45NDE5LC02LjMyMTIpIj4mI3hhOwkJCQk8dGl0bGUgaWQ9InRpdGxlMjYwMjM3Ij5TaGVldC4xMTA3MDwvdGl0bGU+JiN4YTsJCQkJPGcgaWQ9InNoYWRvdzExMDcwLTcwIiB0cmFuc2Zvcm09InRyYW5zbGF0ZSgwLjM0NTYsMS45NzI4KSI+JiN4YTsJCQkJCTxnIGlkPSJwYXRoMjYwMjM5IiBpbmtzY2FwZTpjb25uZWN0b3ItY3VydmF0dXJlPSIwIiBzdHlsZT0iZmlsdGVyOnVybCgjZmlsdGVyXzIpOyI+JiN4YTsJCQkJCQk8cGF0aCBzdHlsZT0ib3BhY2l0eTowLjIyO2ZpbGw6IzVCOUJENTsiIGQ9Ik0wLDY3LjAzaDEuMTZ2Mi41M2MtMC4wMSwwLjEzLDAuMDUsMC40NiwwLjY4LDAuNDdjMC4zMywwLDIuNTEsMCwyLjUzLDB2LTMuMDIgICAgICAgIGgxLjE3YzAsMCwwLDQuMTEsMCw0LjEzYzAsMS4wMS0xLjI2LDEuMjMtMS44NCwxLjI1SDAuMDN2LTAuNzhIMy43YzAuNzUtMC4wOCwwLjY2LTAuNDUsMC42Ni0wLjU4di0wLjNIMS44OSAgICAgICAgQzAuNzQsNzAuNzIsMC4wMSw3MC4yMSwwLDY5LjY0QzAsNjkuNTgsMC4wMyw2Ny4wNSwwLDY3LjAzeiIvPiYjeGE7CQkJCQk8L2c+JiN4YTsJCQkJPC9nPiYjeGE7CQkJCTxwYXRoIGlkPSJwYXRoMjYwMjQyIiBpbmtzY2FwZTpjb25uZWN0b3ItY3VydmF0dXJlPSIwIiBzdHlsZT0iZmlsbDojRkZGRkZGOyIgZD0iTTAsNjcuMDNoMS4xNnYyLjUzICAgICAgYy0wLjAxLDAuMTMsMC4wNSwwLjQ2LDAuNjgsMC40N2MwLjMzLDAsMi41MSwwLDIuNTMsMHYtMy4wMmgxLjE3YzAsMCwwLDQuMTEsMCw0LjEzYzAsMS4wMS0xLjI2LDEuMjMtMS44NCwxLjI1SDAuMDN2LTAuNzhIMy43ICAgICAgYzAuNzUtMC4wOCwwLjY2LTAuNDUsMC42Ni0wLjU4di0wLjNIMS44OUMwLjc0LDcwLjcyLDAuMDEsNzAuMjEsMCw2OS42NEMwLDY5LjU4LDAuMDMsNjcuMDUsMCw2Ny4wM3oiLz4mI3hhOwkJCTwvZz4mI3hhOwkJPC9nPiYjeGE7CTwvZz4mI3hhOzwvZz4mI3hhOzwvc3ZnPg==;" vertex="1" parent="1">
          <mxGeometry x="120" y="680" width="48" height="71" as="geometry" />
        </mxCell>
        <mxCell id="ogB1OXXyy9iU-GvDi_hn-14" value="R32" style="shape=image;verticalLabelPosition=bottom;labelBackgroundColor=#ffffff;verticalAlign=top;aspect=fixed;imageAspect=0;image=data:image/svg+xml,PHN2ZyB4bWxuczpjYz0iaHR0cDovL2NyZWF0aXZlY29tbW9ucy5vcmcvbnMjIiB4bWxuczpkYz0iaHR0cDovL3B1cmwub3JnL2RjL2VsZW1lbnRzLzEuMS8iIHhtbG5zOmlua3NjYXBlPSJodHRwOi8vd3d3Lmlua3NjYXBlLm9yZy9uYW1lc3BhY2VzL2lua3NjYXBlIiB4bWxuczpyZGY9Imh0dHA6Ly93d3cudzMub3JnLzE5OTkvMDIvMjItcmRmLXN5bnRheC1ucyMiIHhtbG5zOnNvZGlwb2RpPSJodHRwOi8vc29kaXBvZGkuc291cmNlZm9yZ2UubmV0L0RURC9zb2RpcG9kaS0wLmR0ZCIgeG1sbnM6c3ZnPSJodHRwOi8vd3d3LnczLm9yZy8yMDAwL3N2ZyIgeG1sbnM9Imh0dHA6Ly93d3cudzMub3JnLzIwMDAvc3ZnIiB4bWxuczp4bGluaz0iaHR0cDovL3d3dy53My5vcmcvMTk5OS94bGluayIgdmVyc2lvbj0iMS4xIiBpZD0ic3ZnMjYwMjQ5IiBpbmtzY2FwZTp2ZXJzaW9uPSIwLjkyLjMgKDI0MDU1NDYsIDIwMTgtMDMtMTEpIiBzb2RpcG9kaTpkb2NuYW1lPSJteXNxbF9zZXJ2ZXIuc3ZnIiB4PSIwcHgiIHk9IjBweCIgdmlld0JveD0iMCAwIDQ4LjQxIDcwLjczIiBzdHlsZT0iZW5hYmxlLWJhY2tncm91bmQ6bmV3IDAgMCA0OC40MSA3MC43MzsiIHhtbDpzcGFjZT0icHJlc2VydmUiPiYjeGE7PGZpbHRlciBpZD0iZmlsdGVyXzIiPiYjeGE7CTxmZUdhdXNzaWFuQmx1ciBpZD0iZmVHYXVzc2lhbkJsdXIyNjAwOTIiIHN0ZERldmlhdGlvbj0iMiIvPiYjeGE7PC9maWx0ZXI+JiN4YTs8c29kaXBvZGk6bmFtZWR2aWV3IGJvcmRlcmNvbG9yPSIjNjY2NjY2IiBib3JkZXJvcGFjaXR5PSIxIiBmaXQtbWFyZ2luLWJvdHRvbT0iMCIgZml0LW1hcmdpbi1sZWZ0PSIwIiBmaXQtbWFyZ2luLXJpZ2h0PSIwIiBmaXQtbWFyZ2luLXRvcD0iMCIgZ3JpZHRvbGVyYW5jZT0iMTAiIGd1aWRldG9sZXJhbmNlPSIxMCIgaWQ9Im5hbWVkdmlldzI2MDI1MSIgaW5rc2NhcGU6Y3VycmVudC1sYXllcj0ic3ZnMjYwMjQ5IiBpbmtzY2FwZTpjeD0iMzIuMTkwODk3IiBpbmtzY2FwZTpjeT0iNDcuMDQ2MjQyIiBpbmtzY2FwZTpwYWdlb3BhY2l0eT0iMCIgaW5rc2NhcGU6cGFnZXNoYWRvdz0iMiIgaW5rc2NhcGU6d2luZG93LWhlaWdodD0iMTAxNyIgaW5rc2NhcGU6d2luZG93LW1heGltaXplZD0iMSIgaW5rc2NhcGU6d2luZG93LXdpZHRoPSIxOTIwIiBpbmtzY2FwZTp3aW5kb3cteD0iLTgiIGlua3NjYXBlOndpbmRvdy15PSItOCIgaW5rc2NhcGU6em9vbT0iOC45ODI0NzUzIiBvYmplY3R0b2xlcmFuY2U9IjEwIiBwYWdlY29sb3I9IiNmZmZmZmYiIHNob3dncmlkPSJmYWxzZSI+JiN4YTsJPC9zb2RpcG9kaTpuYW1lZHZpZXc+JiN4YTs8ZyBpZD0iZzI2MDI0NyIgdHJhbnNmb3JtPSJ0cmFuc2xhdGUoLTAuNzUsLTAuNzUwMjIyMTIpIj4mI3hhOwk8dGl0bGUgaWQ9InRpdGxlMjYwMDk2Ij5QYWdlLTE8L3RpdGxlPiYjeGE7CTxnIGlkPSJncm91cDExMDQ0LTEiIHRyYW5zZm9ybT0idHJhbnNsYXRlKDEuNSwtMi42MzMyMykiPiYjeGE7CQk8dGl0bGUgaWQ9InRpdGxlMjYwMDk4Ij5NeVNRTCBTZXJ2ZXI8L3RpdGxlPiYjeGE7CQk8ZyBpZD0iZ3JvdXAxMTA0NS0yIj4mI3hhOwkJCTx0aXRsZSBpZD0idGl0bGUyNjAxMDAiPkdlbmVyaWMgU2VydmljZTwvdGl0bGU+JiN4YTsJCQk8ZyBpZD0iZ3JvdXAxMTA0Ni0zIiB0cmFuc2Zvcm09InRyYW5zbGF0ZSgwLC0wLjAwNzM5ODc2KSI+JiN4YTsJCQkJPHRpdGxlIGlkPSJ0aXRsZTI2MDEwMiI+ZzE1NDMzLjExNzIxPC90aXRsZT4mI3hhOwkJCQk8ZyBpZD0ic2hhcGUxMTA0Ny00Ij4mI3hhOwkJCQkJPHRpdGxlIGlkPSJ0aXRsZTI2MDEwNCI+cmVjdDE1NDA1PC90aXRsZT4mI3hhOwkJCQkJJiN4YTsJCQkJCQk8cmVjdCBpZD0icmVjdDI2MDEwNiIgeT0iNC4xNCIgc3R5bGU9ImZpbGw6I0ZGRkZGRjtzdHJva2U6IzU1NkE4QTtzdHJva2Utd2lkdGg6MS41O3N0cm9rZS1taXRlcmxpbWl0OjM7IiB3aWR0aD0iMzkuNzUiIGhlaWdodD0iNjguMjUiLz4mI3hhOwkJCQk8L2c+JiN4YTsJCQkJPGcgaWQ9Imdyb3VwMTEwNDgtNiIgdHJhbnNmb3JtPSJ0cmFuc2xhdGUoMS41LC0wLjc1KSI+JiN4YTsJCQkJCTx0aXRsZSBpZD0idGl0bGUyNjAxMDkiPmcxNTQyNTwvdGl0bGU+JiN4YTsJCQkJCTxnIGlkPSJzaGFwZTExMDQ5LTciIHRyYW5zZm9ybT0idHJhbnNsYXRlKDE4KSI+JiN4YTsJCQkJCQk8dGl0bGUgaWQ9InRpdGxlMjYwMTExIj5yZWN0MTU0MDc8L3RpdGxlPiYjeGE7CQkJCQkJPHJlY3QgaWQ9InJlY3QyNjAxMTMiIHk9IjUuNjQiIHN0eWxlPSJmaWxsOiNFNUU1RTU7IiB3aWR0aD0iMTkuNSIgaGVpZ2h0PSI2Ni43NSIvPiYjeGE7CQkJCQk8L2c+JiN4YTsJCQkJCTxnIGlkPSJzaGFwZTExMDUwLTkiIHRyYW5zZm9ybT0idHJhbnNsYXRlKDAsLTQ4KSI+JiN4YTsJCQkJCQk8dGl0bGUgaWQ9InRpdGxlMjYwMTE2Ij5yZWN0MTU0MDk8L3RpdGxlPiYjeGE7CQkJCQkJPHJlY3QgaWQ9InJlY3QyNjAxMTgiIHk9IjcwLjE0IiBzdHlsZT0iZmlsbDojMkJDN0Y0OyIgd2lkdGg9IjE4IiBoZWlnaHQ9IjIuMjUiLz4mI3hhOwkJCQkJPC9nPiYjeGE7CQkJCQk8ZyBpZD0ic2hhcGUxMTA1MS0xMSIgdHJhbnNmb3JtPSJ0cmFuc2xhdGUoMCwtNTguNSkiPiYjeGE7CQkJCQkJPHRpdGxlIGlkPSJ0aXRsZTI2MDEyMSI+cG9seWdvbjE1NDExPC90aXRsZT4mI3hhOwkJCQkJCTxyZWN0IGlkPSJyZWN0MjYwMTIzIiB5PSI3MC4xNCIgc3R5bGU9ImZpbGw6bm9uZTsiIHdpZHRoPSIyNyIgaGVpZ2h0PSIyLjI1Ii8+JiN4YTsJCQkJCTwvZz4mI3hhOwkJCQkJPGcgaWQ9InNoYXBlMTEwNTItMTMiIHRyYW5zZm9ybT0idHJhbnNsYXRlKDAsLTU4LjUpIj4mI3hhOwkJCQkJCTx0aXRsZSBpZD0idGl0bGUyNjAxMjYiPnBvbHlsaW5lMTU0MTM8L3RpdGxlPiYjeGE7CQkJCQkJPHJlY3QgaWQ9InJlY3QyNjAxMjgiIHk9IjcwLjE0IiBzdHlsZT0iZmlsbDpub25lOyIgd2lkdGg9IjI3IiBoZWlnaHQ9IjIuMjUiLz4mI3hhOwkJCQkJPC9nPiYjeGE7CQkJCQk8ZyBpZD0ic2hhcGUxMTA1My0xNSIgdHJhbnNmb3JtPSJ0cmFuc2xhdGUoMCwtNTMuMjUpIj4mI3hhOwkJCQkJCTx0aXRsZSBpZD0idGl0bGUyNjAxMzEiPnJlY3QxNTQxNTwvdGl0bGU+JiN4YTsJCQkJCQk8cmVjdCBpZD0icmVjdDI2MDEzMyIgeT0iNzAuMTQiIHN0eWxlPSJmaWxsOiMyQkM3RjQ7IiB3aWR0aD0iMTgiIGhlaWdodD0iMi4yNSIvPiYjeGE7CQkJCQk8L2c+JiN4YTsJCQkJCTxnIGlkPSJzaGFwZTExMDU0LTE3IiB0cmFuc2Zvcm09InRyYW5zbGF0ZSgwLC01OC41KSI+JiN4YTsJCQkJCQk8dGl0bGUgaWQ9InRpdGxlMjYwMTM2Ij5yZWN0MTU0MTc8L3RpdGxlPiYjeGE7CQkJCQkJPHJlY3QgaWQ9InJlY3QyNjAxMzgiIHk9IjcwLjE0IiBzdHlsZT0iZmlsbDojMkJDN0Y0OyIgd2lkdGg9IjE4IiBoZWlnaHQ9IjIuMjUiLz4mI3hhOwkJCQkJPC9nPiYjeGE7CQkJCQk8ZyBpZD0ic2hhcGUxMTA1NS0xOSIgdHJhbnNmb3JtPSJ0cmFuc2xhdGUoMTgsLTQ4KSI+JiN4YTsJCQkJCQk8dGl0bGUgaWQ9InRpdGxlMjYwMTQxIj5yZWN0MTU0MTk8L3RpdGxlPiYjeGE7CQkJCQkJPHJlY3QgaWQ9InJlY3QyNjAxNDMiIHk9IjcwLjE0IiBzdHlsZT0iZmlsbDojNTU2QThBOyIgd2lkdGg9IjE5LjUiIGhlaWdodD0iMi4yNSIvPiYjeGE7CQkJCQk8L2c+JiN4YTsJCQkJCTxnIGlkPSJzaGFwZTExMDU2LTIxIiB0cmFuc2Zvcm09InRyYW5zbGF0ZSgxOCwtNTMuMjUpIj4mI3hhOwkJCQkJCTx0aXRsZSBpZD0idGl0bGUyNjAxNDYiPnJlY3QxNTQyMTwvdGl0bGU+JiN4YTsJCQkJCQk8cmVjdCBpZD0icmVjdDI2MDE0OCIgeT0iNzAuMTQiIHN0eWxlPSJmaWxsOiM1NTZBOEE7IiB3aWR0aD0iMTkuNSIgaGVpZ2h0PSIyLjI1Ii8+JiN4YTsJCQkJCTwvZz4mI3hhOwkJCQkJPGcgaWQ9InNoYXBlMTEwNTctMjMiIHRyYW5zZm9ybT0idHJhbnNsYXRlKDE4LC01OC41KSI+JiN4YTsJCQkJCQk8dGl0bGUgaWQ9InRpdGxlMjYwMTUxIj5yZWN0MTU0MjM8L3RpdGxlPiYjeGE7CQkJCQkJPHJlY3QgaWQ9InJlY3QyNjAxNTMiIHk9IjcwLjE0IiBzdHlsZT0iZmlsbDojNTU2QThBOyIgd2lkdGg9IjE5LjUiIGhlaWdodD0iMi4yNSIvPiYjeGE7CQkJCQk8L2c+JiN4YTsJCQkJPC9nPiYjeGE7CQkJCTxnIGlkPSJzaGFwZTExMDU4LTI1IiB0cmFuc2Zvcm09InRyYW5zbGF0ZSgwLjc1LC01OS4yNSkiPiYjeGE7CQkJCQk8dGl0bGUgaWQ9InRpdGxlMjYwMTU3Ij5yZWN0MTU0Mjc8L3RpdGxlPiYjeGE7CQkJCQk8cmVjdCBpZD0icmVjdDI2MDE1OSIgeT0iNzAuMTQiIHN0eWxlPSJmaWxsOiM1NTZBOEE7IiB3aWR0aD0iMi4yNSIgaGVpZ2h0PSIyLjI1Ii8+JiN4YTsJCQkJPC9nPiYjeGE7CQkJCTxnIGlkPSJzaGFwZTExMDU5LTI3IiB0cmFuc2Zvcm09InRyYW5zbGF0ZSgwLjc1LC01NCkiPiYjeGE7CQkJCQk8dGl0bGUgaWQ9InRpdGxlMjYwMTYyIj5yZWN0MTU0Mjk8L3RpdGxlPiYjeGE7CQkJCQk8cmVjdCBpZD0icmVjdDI2MDE2NCIgeT0iNzAuMTQiIHN0eWxlPSJmaWxsOiM1NTZBOEE7IiB3aWR0aD0iMi4yNSIgaGVpZ2h0PSIyLjI1Ii8+JiN4YTsJCQkJPC9nPiYjeGE7CQkJCTxnIGlkPSJzaGFwZTExMDYwLTI5IiB0cmFuc2Zvcm09InRyYW5zbGF0ZSgwLjc1LC00OC43NSkiPiYjeGE7CQkJCQk8dGl0bGUgaWQ9InRpdGxlMjYwMTY3Ij5yZWN0MTU0MzE8L3RpdGxlPiYjeGE7CQkJCQk8cmVjdCBpZD0icmVjdDI2MDE2OSIgeT0iNzAuMTQiIHN0eWxlPSJmaWxsOiM1NTZBOEE7IiB3aWR0aD0iMi4yNSIgaGVpZ2h0PSIyLjI1Ii8+JiN4YTsJCQkJPC9nPiYjeGE7CQkJPC9nPiYjeGE7CQkJPGcgaWQ9InNoYXBlMTEwNjEtMzEiIHRyYW5zZm9ybT0idHJhbnNsYXRlKDEzLjY5ODMpIj4mI3hhOwkJCQk8dGl0bGUgaWQ9InRpdGxlMjYwMTczIj5wb2x5Z29uMTU0MzUuMTE3Mzc8L3RpdGxlPiYjeGE7CQkJCSYjeGE7CQkJCQk8cGF0aCBpZD0icGF0aDI2MDE3NSIgaW5rc2NhcGU6Y29ubmVjdG9yLWN1cnZhdHVyZT0iMCIgc3R5bGU9ImZpbGw6I0ZGRkZGRjtzdHJva2U6I0VBNzAwRDtzdHJva2Utd2lkdGg6MS41O3N0cm9rZS1taXRlcmxpbWl0OjM7IiBkPSIgICAgICBNOC4yNyw3Mi4zOUwwLDU4LjE2bDguMjctMTQuMjRoMTYuNTVsOC4yNywxNC4yNGwtOC4yNywxNC4yM0g4LjI3eiIvPiYjeGE7CQkJPC9nPiYjeGE7CQk8L2c+JiN4YTsJCTxnIGlkPSJncm91cDExMDYyLTMzIiB0cmFuc2Zvcm09InRyYW5zbGF0ZSgyMS4yOTEyLC0yLjMzOTU1KSI+JiN4YTsJCQk8dGl0bGUgaWQ9InRpdGxlMjYwMTc5Ij5NeVNRTDwvdGl0bGU+JiN4YTsJCQk8ZyBpZD0ic2hhcGUxMTA2My0zNCI+JiN4YTsJCQkJPHRpdGxlIGlkPSJ0aXRsZTI2MDE4MSI+U2hlZXQuMTEwNjM8L3RpdGxlPiYjeGE7CQkJCTxnIGlkPSJzaGFkb3cxMTA2My0zNSIgdHJhbnNmb3JtPSJ0cmFuc2xhdGUoMC4zNDU2LDEuOTcyOCkiPiYjeGE7CQkJCQk8ZyBpZD0icGF0aDI2MDE4MyIgaW5rc2NhcGU6Y29ubmVjdG9yLWN1cnZhdHVyZT0iMCIgc3R5bGU9ImZpbHRlcjp1cmwoI2ZpbHRlcl8yKTsiPiYjeGE7CQkJCQkJPHBhdGggc3R5bGU9Im9wYWNpdHk6MC4yMjtmaWxsOiM1QjlCRDU7IiBkPSJNMCw1MS40OXYxNy41OWMwLDEuODMsNC4xMiwzLjMxLDkuMiwzLjMxdi0yMC45TDAsNTEuNDl6Ii8+JiN4YTsJCQkJCTwvZz4mI3hhOwkJCQk8L2c+JiN4YTsJCQkJPHBhdGggaWQ9InBhdGgyNjAxODYiIGlua3NjYXBlOmNvbm5lY3Rvci1jdXJ2YXR1cmU9IjAiIHN0eWxlPSJmaWxsOiMwMDcyQzY7IiBkPSJNMCw1MS40OXYxNy41OWMwLDEuODMsNC4xMiwzLjMxLDkuMiwzLjMxICAgICAgdi0yMC45TDAsNTEuNDl6Ii8+JiN4YTsJCQk8L2c+JiN4YTsJCQk8ZyBpZD0ic2hhcGUxMTA2NC0zOSIgdHJhbnNmb3JtPSJ0cmFuc2xhdGUoOS4wNzEwOCwtNC44NDA0OWUtNCkiPiYjeGE7CQkJCTx0aXRsZSBpZD0idGl0bGUyNjAxODkiPlNoZWV0LjExMDY0PC90aXRsZT4mI3hhOwkJCQk8ZyBpZD0ic2hhZG93MTEwNjQtNDAiIHRyYW5zZm9ybT0idHJhbnNsYXRlKDAuMzQ1NiwxLjk3MjgpIj4mI3hhOwkJCQkJPGcgaWQ9InBhdGgyNjAxOTEiIGlua3NjYXBlOmNvbm5lY3Rvci1jdXJ2YXR1cmU9IjAiIHN0eWxlPSJmaWx0ZXI6dXJsKCNmaWx0ZXJfMik7Ij4mI3hhOwkJCQkJCTxwYXRoIHN0eWxlPSJvcGFjaXR5OjAuMjI7ZmlsbDojNUI5QkQ1OyIgZD0iTTAsNzIuMzloMC4xM2M1LjA3LDAsOS4xOS0xLjQ4LDkuMTktMy4zMVY1MS41SDBWNzIuMzl6Ii8+JiN4YTsJCQkJCTwvZz4mI3hhOwkJCQk8L2c+JiN4YTsJCQkJPHBhdGggaWQ9InBhdGgyNjAxOTQiIGlua3NjYXBlOmNvbm5lY3Rvci1jdXJ2YXR1cmU9IjAiIHN0eWxlPSJmaWxsOiMwMDcyQzY7IiBkPSJNMCw3Mi4zOWgwLjEzYzUuMDcsMCw5LjE5LTEuNDgsOS4xOS0zLjMxICAgICAgVjUxLjVIMFY3Mi4zOXoiLz4mI3hhOwkJCTwvZz4mI3hhOwkJCTxnIGlkPSJzaGFwZTExMDY1LTQ0IiB0cmFuc2Zvcm09InRyYW5zbGF0ZSg5LjA3MTA4LC00Ljg0MDQ5ZS00KSI+JiN4YTsJCQkJPHRpdGxlIGlkPSJ0aXRsZTI2MDE5NyI+U2hlZXQuMTEwNjU8L3RpdGxlPiYjeGE7CQkJCTxnIGlkPSJzaGFkb3cxMTA2NS00NSIgdHJhbnNmb3JtPSJ0cmFuc2xhdGUoMC4zNDU2LDEuOTcyOCkiPiYjeGE7CQkJCQk8ZyBpZD0icGF0aDI2MDE5OSIgaW5rc2NhcGU6Y29ubmVjdG9yLWN1cnZhdHVyZT0iMCIgc3R5bGU9ImZpbHRlcjp1cmwoI2ZpbHRlcl8yKTsiPiYjeGE7CQkJCQkJPHBhdGggc3R5bGU9Im9wYWNpdHk6MC4yMjtmaWxsOiM1QjlCRDU7IiBkPSJNMCw3Mi4zOWgwLjEzYzUuMDcsMCw5LjE5LTEuNDgsOS4xOS0zLjMxVjUxLjVIMFY3Mi4zOXoiLz4mI3hhOwkJCQkJPC9nPiYjeGE7CQkJCTwvZz4mI3hhOwkJCQk8cGF0aCBpZD0icGF0aDI2MDIwMiIgaW5rc2NhcGU6Y29ubmVjdG9yLWN1cnZhdHVyZT0iMCIgc3R5bGU9ImZpbGw6I0ZGRkZGRjtmaWxsLW9wYWNpdHk6MC4xNTsiIGQ9Ik0wLDcyLjM5aDAuMTMgICAgICBjNS4wNywwLDkuMTktMS40OCw5LjE5LTMuMzFWNTEuNUgwVjcyLjM5eiIvPiYjeGE7CQkJPC9nPiYjeGE7CQkJPGcgaWQ9InNoYXBlMTEwNjYtNDkiIHRyYW5zZm9ybT0idHJhbnNsYXRlKDAsLTE3LjU4OTQpIj4mI3hhOwkJCQk8dGl0bGUgaWQ9InRpdGxlMjYwMjA1Ij5TaGVldC4xMTA2NjwvdGl0bGU+JiN4YTsJCQkJPGcgaWQ9InNoYWRvdzExMDY2LTUwIiB0cmFuc2Zvcm09InRyYW5zbGF0ZSgwLjM0NTYsMS45NzI4KSI+JiN4YTsJCQkJCTxnIGlkPSJwYXRoMjYwMjA3IiBpbmtzY2FwZTpjb25uZWN0b3ItY3VydmF0dXJlPSIwIiBzdHlsZT0iZmlsdGVyOnVybCgjZmlsdGVyXzIpOyI+JiN4YTsJCQkJCQk8cGF0aCBzdHlsZT0ib3BhY2l0eTowLjIyO2ZpbGw6IzVCOUJENTsiIGQ9Ik0xOC4zOSw2OS4wOGMwLDEuODMtNC4xMSwzLjMxLTkuMTksMy4zMVMwLDcwLjkxLDAsNjkuMDggICAgICAgIGMwLTEuODIsNC4xMi0zLjMsOS4yLTMuM1MxOC4zOSw2Ny4yNiwxOC4zOSw2OS4wOHoiLz4mI3hhOwkJCQkJPC9nPiYjeGE7CQkJCTwvZz4mI3hhOwkJCQk8cGF0aCBpZD0icGF0aDI2MDIxMCIgaW5rc2NhcGU6Y29ubmVjdG9yLWN1cnZhdHVyZT0iMCIgc3R5bGU9ImZpbGw6I0ZGRkZGRjsiIGQ9Ik0xOC4zOSw2OS4wOGMwLDEuODMtNC4xMSwzLjMxLTkuMTksMy4zMSAgICAgIFMwLDcwLjkxLDAsNjkuMDhjMC0xLjgyLDQuMTItMy4zLDkuMi0zLjNTMTguMzksNjcuMjYsMTguMzksNjkuMDh6Ii8+JiN4YTsJCQk8L2c+JiN4YTsJCQk8ZyBpZD0ic2hhcGUxMTA2Ny01NCIgdHJhbnNmb3JtPSJ0cmFuc2xhdGUoMS44ODAwNSwtMTguOTA0NSkiPiYjeGE7CQkJCTx0aXRsZSBpZD0idGl0bGUyNjAyMTMiPlNoZWV0LjExMDY3PC90aXRsZT4mI3hhOwkJCQk8ZyBpZD0ic2hhZG93MTEwNjctNTUiIHRyYW5zZm9ybT0idHJhbnNsYXRlKDAuMzQ1NiwxLjk3MjgpIj4mI3hhOwkJCQkJPGcgaWQ9InBhdGgyNjAyMTUiIGlua3NjYXBlOmNvbm5lY3Rvci1jdXJ2YXR1cmU9IjAiIHN0eWxlPSJmaWx0ZXI6dXJsKCNmaWx0ZXJfMik7Ij4mI3hhOwkJCQkJCTxwYXRoIHN0eWxlPSJvcGFjaXR5OjAuMjI7ZmlsbDojNUI5QkQ1OyIgZD0iTTE0LjYzLDcwLjIxYzAsMS4yLTMuMjcsMi4xOC03LjMxLDIuMThTMCw3MS40MSwwLDcwLjIxICAgICAgICBjMC0xLjIxLDMuMjgtMi4xOCw3LjMyLTIuMThTMTQuNjMsNjksMTQuNjMsNzAuMjF6Ii8+JiN4YTsJCQkJCTwvZz4mI3hhOwkJCQk8L2c+JiN4YTsJCQkJPHBhdGggaWQ9InBhdGgyNjAyMTgiIGlua3NjYXBlOmNvbm5lY3Rvci1jdXJ2YXR1cmU9IjAiIHN0eWxlPSJmaWxsOiNERDU5MDA7IiBkPSJNMTQuNjMsNzAuMjFjMCwxLjItMy4yNywyLjE4LTcuMzEsMi4xOCAgICAgIFMwLDcxLjQxLDAsNzAuMjFjMC0xLjIxLDMuMjgtMi4xOCw3LjMyLTIuMThTMTQuNjMsNjksMTQuNjMsNzAuMjF6Ii8+JiN4YTsJCQk8L2c+JiN4YTsJCQk8ZyBpZD0ic2hhcGUxMTA2OC01OSIgdHJhbnNmb3JtPSJ0cmFuc2xhdGUoMS44ODEwMiwtMTkuNzUzNikiPiYjeGE7CQkJCTx0aXRsZSBpZD0idGl0bGUyNjAyMjEiPlNoZWV0LjExMDY4PC90aXRsZT4mI3hhOwkJCQk8ZyBpZD0ic2hhZG93MTEwNjgtNjAiIHRyYW5zZm9ybT0idHJhbnNsYXRlKDAuMzQ1NiwxLjk3MjgpIj4mI3hhOwkJCQkJPGcgaWQ9InBhdGgyNjAyMjMiIGlua3NjYXBlOmNvbm5lY3Rvci1jdXJ2YXR1cmU9IjAiIHN0eWxlPSJmaWx0ZXI6dXJsKCNmaWx0ZXJfMik7Ij4mI3hhOwkJCQkJCTxwYXRoIHN0eWxlPSJvcGFjaXR5OjAuMjI7ZmlsbDojNUI5QkQ1OyIgZD0iTTEzLjEsNzIuMzljMC45Ni0wLjM3LDEuNTMtMC44MywxLjUzLTEuMzNjMC0xLjIxLTMuMjctMi4xOC03LjMxLTIuMTggICAgICAgIFMwLDY5Ljg1LDAsNzEuMDZjMCwwLjUsMC41OCwwLjk2LDEuNTMsMS4zM2MxLjM0LTAuNTEsMy40My0wLjg1LDUuNzktMC44NUM5LjY3LDcxLjU0LDExLjc2LDcxLjg4LDEzLjEsNzIuMzl6Ii8+JiN4YTsJCQkJCTwvZz4mI3hhOwkJCQk8L2c+JiN4YTsJCQkJPHBhdGggaWQ9InBhdGgyNjAyMjYiIGlua3NjYXBlOmNvbm5lY3Rvci1jdXJ2YXR1cmU9IjAiIHN0eWxlPSJmaWxsOiNGRjhDMDA7IiBkPSJNMTMuMSw3Mi4zOWMwLjk2LTAuMzcsMS41My0wLjgzLDEuNTMtMS4zMyAgICAgIGMwLTEuMjEtMy4yNy0yLjE4LTcuMzEtMi4xOFMwLDY5Ljg1LDAsNzEuMDZjMCwwLjUsMC41OCwwLjk2LDEuNTMsMS4zM2MxLjM0LTAuNTEsMy40My0wLjg1LDUuNzktMC44NSAgICAgIEM5LjY3LDcxLjU0LDExLjc2LDcxLjg4LDEzLjEsNzIuMzl6Ii8+JiN4YTsJCQk8L2c+JiN4YTsJCQk8ZyBpZD0ic2hhcGUxMTA2OS02NCIgdHJhbnNmb3JtPSJ0cmFuc2xhdGUoMS45MTAwNiwtNy44Nzk4NCkiPiYjeGE7CQkJCTx0aXRsZSBpZD0idGl0bGUyNjAyMjkiPlNoZWV0LjExMDY5PC90aXRsZT4mI3hhOwkJCQk8ZyBpZD0ic2hhZG93MTEwNjktNjUiIHRyYW5zZm9ybT0idHJhbnNsYXRlKDAuMzQ1NiwxLjk3MjgpIj4mI3hhOwkJCQkJPGcgaWQ9InBhdGgyNjAyMzEiIGlua3NjYXBlOmNvbm5lY3Rvci1jdXJ2YXR1cmU9IjAiIHN0eWxlPSJmaWx0ZXI6dXJsKCNmaWx0ZXJfMik7Ij4mI3hhOwkJCQkJCTxwYXRoIHN0eWxlPSJvcGFjaXR5OjAuMjI7ZmlsbDojNUI5QkQ1OyIgZD0iTTAsNzIuMzJoMS4xNnYtNC41OWwxLjgsNGMwLjIyLDAuNDksMC41MSwwLjY2LDEuMDgsMC42NnMwLjg1LTAuMTcsMS4wNi0wLjY2ICAgICAgICBsMS44LTR2NC41OWgxLjE2di00LjU4YzAtMC40NS0wLjE3LTAuNjctMC41NC0wLjc4Yy0wLjg5LTAuMjctMS40OC0wLjA0LTEuNzUsMC41Nkw0LDcxLjQ3bC0xLjcxLTMuOTUgICAgICAgIGMtMC4yNS0wLjYtMC44Ni0wLjgzLTEuNzQtMC41NkMwLjE4LDY3LjA3LDAsNjcuMjksMCw2Ny43NFY3Mi4zMnoiLz4mI3hhOwkJCQkJPC9nPiYjeGE7CQkJCTwvZz4mI3hhOwkJCQk8cGF0aCBpZD0icGF0aDI2MDIzNCIgaW5rc2NhcGU6Y29ubmVjdG9yLWN1cnZhdHVyZT0iMCIgc3R5bGU9ImZpbGw6I0ZGRkZGRjsiIGQ9Ik0wLDcyLjMyaDEuMTZ2LTQuNTlsMS44LDQgICAgICBjMC4yMiwwLjQ5LDAuNTEsMC42NiwxLjA4LDAuNjZzMC44NS0wLjE3LDEuMDYtMC42NmwxLjgtNHY0LjU5aDEuMTZ2LTQuNThjMC0wLjQ1LTAuMTctMC42Ny0wLjU0LTAuNzggICAgICBjLTAuODktMC4yNy0xLjQ4LTAuMDQtMS43NSwwLjU2TDQsNzEuNDdsLTEuNzEtMy45NWMtMC4yNS0wLjYtMC44Ni0wLjgzLTEuNzQtMC41NkMwLjE4LDY3LjA3LDAsNjcuMjksMCw2Ny43NFY3Mi4zMnoiLz4mI3hhOwkJCTwvZz4mI3hhOwkJCTxnIGlkPSJzaGFwZTExMDcwLTY5IiB0cmFuc2Zvcm09InRyYW5zbGF0ZSgxMC45NDE5LC02LjMyMTIpIj4mI3hhOwkJCQk8dGl0bGUgaWQ9InRpdGxlMjYwMjM3Ij5TaGVldC4xMTA3MDwvdGl0bGU+JiN4YTsJCQkJPGcgaWQ9InNoYWRvdzExMDcwLTcwIiB0cmFuc2Zvcm09InRyYW5zbGF0ZSgwLjM0NTYsMS45NzI4KSI+JiN4YTsJCQkJCTxnIGlkPSJwYXRoMjYwMjM5IiBpbmtzY2FwZTpjb25uZWN0b3ItY3VydmF0dXJlPSIwIiBzdHlsZT0iZmlsdGVyOnVybCgjZmlsdGVyXzIpOyI+JiN4YTsJCQkJCQk8cGF0aCBzdHlsZT0ib3BhY2l0eTowLjIyO2ZpbGw6IzVCOUJENTsiIGQ9Ik0wLDY3LjAzaDEuMTZ2Mi41M2MtMC4wMSwwLjEzLDAuMDUsMC40NiwwLjY4LDAuNDdjMC4zMywwLDIuNTEsMCwyLjUzLDB2LTMuMDIgICAgICAgIGgxLjE3YzAsMCwwLDQuMTEsMCw0LjEzYzAsMS4wMS0xLjI2LDEuMjMtMS44NCwxLjI1SDAuMDN2LTAuNzhIMy43YzAuNzUtMC4wOCwwLjY2LTAuNDUsMC42Ni0wLjU4di0wLjNIMS44OSAgICAgICAgQzAuNzQsNzAuNzIsMC4wMSw3MC4yMSwwLDY5LjY0QzAsNjkuNTgsMC4wMyw2Ny4wNSwwLDY3LjAzeiIvPiYjeGE7CQkJCQk8L2c+JiN4YTsJCQkJPC9nPiYjeGE7CQkJCTxwYXRoIGlkPSJwYXRoMjYwMjQyIiBpbmtzY2FwZTpjb25uZWN0b3ItY3VydmF0dXJlPSIwIiBzdHlsZT0iZmlsbDojRkZGRkZGOyIgZD0iTTAsNjcuMDNoMS4xNnYyLjUzICAgICAgYy0wLjAxLDAuMTMsMC4wNSwwLjQ2LDAuNjgsMC40N2MwLjMzLDAsMi41MSwwLDIuNTMsMHYtMy4wMmgxLjE3YzAsMCwwLDQuMTEsMCw0LjEzYzAsMS4wMS0xLjI2LDEuMjMtMS44NCwxLjI1SDAuMDN2LTAuNzhIMy43ICAgICAgYzAuNzUtMC4wOCwwLjY2LTAuNDUsMC42Ni0wLjU4di0wLjNIMS44OUMwLjc0LDcwLjcyLDAuMDEsNzAuMjEsMCw2OS42NEMwLDY5LjU4LDAuMDMsNjcuMDUsMCw2Ny4wM3oiLz4mI3hhOwkJCTwvZz4mI3hhOwkJPC9nPiYjeGE7CTwvZz4mI3hhOzwvZz4mI3hhOzwvc3ZnPg==;" vertex="1" parent="1">
          <mxGeometry x="200" y="680" width="48" height="71" as="geometry" />
        </mxCell>
        <mxCell id="ogB1OXXyy9iU-GvDi_hn-15" value="R33" style="shape=image;verticalLabelPosition=bottom;labelBackgroundColor=#ffffff;verticalAlign=top;aspect=fixed;imageAspect=0;image=data:image/svg+xml,PHN2ZyB4bWxuczpjYz0iaHR0cDovL2NyZWF0aXZlY29tbW9ucy5vcmcvbnMjIiB4bWxuczpkYz0iaHR0cDovL3B1cmwub3JnL2RjL2VsZW1lbnRzLzEuMS8iIHhtbG5zOmlua3NjYXBlPSJodHRwOi8vd3d3Lmlua3NjYXBlLm9yZy9uYW1lc3BhY2VzL2lua3NjYXBlIiB4bWxuczpyZGY9Imh0dHA6Ly93d3cudzMub3JnLzE5OTkvMDIvMjItcmRmLXN5bnRheC1ucyMiIHhtbG5zOnNvZGlwb2RpPSJodHRwOi8vc29kaXBvZGkuc291cmNlZm9yZ2UubmV0L0RURC9zb2RpcG9kaS0wLmR0ZCIgeG1sbnM6c3ZnPSJodHRwOi8vd3d3LnczLm9yZy8yMDAwL3N2ZyIgeG1sbnM9Imh0dHA6Ly93d3cudzMub3JnLzIwMDAvc3ZnIiB4bWxuczp4bGluaz0iaHR0cDovL3d3dy53My5vcmcvMTk5OS94bGluayIgdmVyc2lvbj0iMS4xIiBpZD0ic3ZnMjYwMjQ5IiBpbmtzY2FwZTp2ZXJzaW9uPSIwLjkyLjMgKDI0MDU1NDYsIDIwMTgtMDMtMTEpIiBzb2RpcG9kaTpkb2NuYW1lPSJteXNxbF9zZXJ2ZXIuc3ZnIiB4PSIwcHgiIHk9IjBweCIgdmlld0JveD0iMCAwIDQ4LjQxIDcwLjczIiBzdHlsZT0iZW5hYmxlLWJhY2tncm91bmQ6bmV3IDAgMCA0OC40MSA3MC43MzsiIHhtbDpzcGFjZT0icHJlc2VydmUiPiYjeGE7PGZpbHRlciBpZD0iZmlsdGVyXzIiPiYjeGE7CTxmZUdhdXNzaWFuQmx1ciBpZD0iZmVHYXVzc2lhbkJsdXIyNjAwOTIiIHN0ZERldmlhdGlvbj0iMiIvPiYjeGE7PC9maWx0ZXI+JiN4YTs8c29kaXBvZGk6bmFtZWR2aWV3IGJvcmRlcmNvbG9yPSIjNjY2NjY2IiBib3JkZXJvcGFjaXR5PSIxIiBmaXQtbWFyZ2luLWJvdHRvbT0iMCIgZml0LW1hcmdpbi1sZWZ0PSIwIiBmaXQtbWFyZ2luLXJpZ2h0PSIwIiBmaXQtbWFyZ2luLXRvcD0iMCIgZ3JpZHRvbGVyYW5jZT0iMTAiIGd1aWRldG9sZXJhbmNlPSIxMCIgaWQ9Im5hbWVkdmlldzI2MDI1MSIgaW5rc2NhcGU6Y3VycmVudC1sYXllcj0ic3ZnMjYwMjQ5IiBpbmtzY2FwZTpjeD0iMzIuMTkwODk3IiBpbmtzY2FwZTpjeT0iNDcuMDQ2MjQyIiBpbmtzY2FwZTpwYWdlb3BhY2l0eT0iMCIgaW5rc2NhcGU6cGFnZXNoYWRvdz0iMiIgaW5rc2NhcGU6d2luZG93LWhlaWdodD0iMTAxNyIgaW5rc2NhcGU6d2luZG93LW1heGltaXplZD0iMSIgaW5rc2NhcGU6d2luZG93LXdpZHRoPSIxOTIwIiBpbmtzY2FwZTp3aW5kb3cteD0iLTgiIGlua3NjYXBlOndpbmRvdy15PSItOCIgaW5rc2NhcGU6em9vbT0iOC45ODI0NzUzIiBvYmplY3R0b2xlcmFuY2U9IjEwIiBwYWdlY29sb3I9IiNmZmZmZmYiIHNob3dncmlkPSJmYWxzZSI+JiN4YTsJPC9zb2RpcG9kaTpuYW1lZHZpZXc+JiN4YTs8ZyBpZD0iZzI2MDI0NyIgdHJhbnNmb3JtPSJ0cmFuc2xhdGUoLTAuNzUsLTAuNzUwMjIyMTIpIj4mI3hhOwk8dGl0bGUgaWQ9InRpdGxlMjYwMDk2Ij5QYWdlLTE8L3RpdGxlPiYjeGE7CTxnIGlkPSJncm91cDExMDQ0LTEiIHRyYW5zZm9ybT0idHJhbnNsYXRlKDEuNSwtMi42MzMyMykiPiYjeGE7CQk8dGl0bGUgaWQ9InRpdGxlMjYwMDk4Ij5NeVNRTCBTZXJ2ZXI8L3RpdGxlPiYjeGE7CQk8ZyBpZD0iZ3JvdXAxMTA0NS0yIj4mI3hhOwkJCTx0aXRsZSBpZD0idGl0bGUyNjAxMDAiPkdlbmVyaWMgU2VydmljZTwvdGl0bGU+JiN4YTsJCQk8ZyBpZD0iZ3JvdXAxMTA0Ni0zIiB0cmFuc2Zvcm09InRyYW5zbGF0ZSgwLC0wLjAwNzM5ODc2KSI+JiN4YTsJCQkJPHRpdGxlIGlkPSJ0aXRsZTI2MDEwMiI+ZzE1NDMzLjExNzIxPC90aXRsZT4mI3hhOwkJCQk8ZyBpZD0ic2hhcGUxMTA0Ny00Ij4mI3hhOwkJCQkJPHRpdGxlIGlkPSJ0aXRsZTI2MDEwNCI+cmVjdDE1NDA1PC90aXRsZT4mI3hhOwkJCQkJJiN4YTsJCQkJCQk8cmVjdCBpZD0icmVjdDI2MDEwNiIgeT0iNC4xNCIgc3R5bGU9ImZpbGw6I0ZGRkZGRjtzdHJva2U6IzU1NkE4QTtzdHJva2Utd2lkdGg6MS41O3N0cm9rZS1taXRlcmxpbWl0OjM7IiB3aWR0aD0iMzkuNzUiIGhlaWdodD0iNjguMjUiLz4mI3hhOwkJCQk8L2c+JiN4YTsJCQkJPGcgaWQ9Imdyb3VwMTEwNDgtNiIgdHJhbnNmb3JtPSJ0cmFuc2xhdGUoMS41LC0wLjc1KSI+JiN4YTsJCQkJCTx0aXRsZSBpZD0idGl0bGUyNjAxMDkiPmcxNTQyNTwvdGl0bGU+JiN4YTsJCQkJCTxnIGlkPSJzaGFwZTExMDQ5LTciIHRyYW5zZm9ybT0idHJhbnNsYXRlKDE4KSI+JiN4YTsJCQkJCQk8dGl0bGUgaWQ9InRpdGxlMjYwMTExIj5yZWN0MTU0MDc8L3RpdGxlPiYjeGE7CQkJCQkJPHJlY3QgaWQ9InJlY3QyNjAxMTMiIHk9IjUuNjQiIHN0eWxlPSJmaWxsOiNFNUU1RTU7IiB3aWR0aD0iMTkuNSIgaGVpZ2h0PSI2Ni43NSIvPiYjeGE7CQkJCQk8L2c+JiN4YTsJCQkJCTxnIGlkPSJzaGFwZTExMDUwLTkiIHRyYW5zZm9ybT0idHJhbnNsYXRlKDAsLTQ4KSI+JiN4YTsJCQkJCQk8dGl0bGUgaWQ9InRpdGxlMjYwMTE2Ij5yZWN0MTU0MDk8L3RpdGxlPiYjeGE7CQkJCQkJPHJlY3QgaWQ9InJlY3QyNjAxMTgiIHk9IjcwLjE0IiBzdHlsZT0iZmlsbDojMkJDN0Y0OyIgd2lkdGg9IjE4IiBoZWlnaHQ9IjIuMjUiLz4mI3hhOwkJCQkJPC9nPiYjeGE7CQkJCQk8ZyBpZD0ic2hhcGUxMTA1MS0xMSIgdHJhbnNmb3JtPSJ0cmFuc2xhdGUoMCwtNTguNSkiPiYjeGE7CQkJCQkJPHRpdGxlIGlkPSJ0aXRsZTI2MDEyMSI+cG9seWdvbjE1NDExPC90aXRsZT4mI3hhOwkJCQkJCTxyZWN0IGlkPSJyZWN0MjYwMTIzIiB5PSI3MC4xNCIgc3R5bGU9ImZpbGw6bm9uZTsiIHdpZHRoPSIyNyIgaGVpZ2h0PSIyLjI1Ii8+JiN4YTsJCQkJCTwvZz4mI3hhOwkJCQkJPGcgaWQ9InNoYXBlMTEwNTItMTMiIHRyYW5zZm9ybT0idHJhbnNsYXRlKDAsLTU4LjUpIj4mI3hhOwkJCQkJCTx0aXRsZSBpZD0idGl0bGUyNjAxMjYiPnBvbHlsaW5lMTU0MTM8L3RpdGxlPiYjeGE7CQkJCQkJPHJlY3QgaWQ9InJlY3QyNjAxMjgiIHk9IjcwLjE0IiBzdHlsZT0iZmlsbDpub25lOyIgd2lkdGg9IjI3IiBoZWlnaHQ9IjIuMjUiLz4mI3hhOwkJCQkJPC9nPiYjeGE7CQkJCQk8ZyBpZD0ic2hhcGUxMTA1My0xNSIgdHJhbnNmb3JtPSJ0cmFuc2xhdGUoMCwtNTMuMjUpIj4mI3hhOwkJCQkJCTx0aXRsZSBpZD0idGl0bGUyNjAxMzEiPnJlY3QxNTQxNTwvdGl0bGU+JiN4YTsJCQkJCQk8cmVjdCBpZD0icmVjdDI2MDEzMyIgeT0iNzAuMTQiIHN0eWxlPSJmaWxsOiMyQkM3RjQ7IiB3aWR0aD0iMTgiIGhlaWdodD0iMi4yNSIvPiYjeGE7CQkJCQk8L2c+JiN4YTsJCQkJCTxnIGlkPSJzaGFwZTExMDU0LTE3IiB0cmFuc2Zvcm09InRyYW5zbGF0ZSgwLC01OC41KSI+JiN4YTsJCQkJCQk8dGl0bGUgaWQ9InRpdGxlMjYwMTM2Ij5yZWN0MTU0MTc8L3RpdGxlPiYjeGE7CQkJCQkJPHJlY3QgaWQ9InJlY3QyNjAxMzgiIHk9IjcwLjE0IiBzdHlsZT0iZmlsbDojMkJDN0Y0OyIgd2lkdGg9IjE4IiBoZWlnaHQ9IjIuMjUiLz4mI3hhOwkJCQkJPC9nPiYjeGE7CQkJCQk8ZyBpZD0ic2hhcGUxMTA1NS0xOSIgdHJhbnNmb3JtPSJ0cmFuc2xhdGUoMTgsLTQ4KSI+JiN4YTsJCQkJCQk8dGl0bGUgaWQ9InRpdGxlMjYwMTQxIj5yZWN0MTU0MTk8L3RpdGxlPiYjeGE7CQkJCQkJPHJlY3QgaWQ9InJlY3QyNjAxNDMiIHk9IjcwLjE0IiBzdHlsZT0iZmlsbDojNTU2QThBOyIgd2lkdGg9IjE5LjUiIGhlaWdodD0iMi4yNSIvPiYjeGE7CQkJCQk8L2c+JiN4YTsJCQkJCTxnIGlkPSJzaGFwZTExMDU2LTIxIiB0cmFuc2Zvcm09InRyYW5zbGF0ZSgxOCwtNTMuMjUpIj4mI3hhOwkJCQkJCTx0aXRsZSBpZD0idGl0bGUyNjAxNDYiPnJlY3QxNTQyMTwvdGl0bGU+JiN4YTsJCQkJCQk8cmVjdCBpZD0icmVjdDI2MDE0OCIgeT0iNzAuMTQiIHN0eWxlPSJmaWxsOiM1NTZBOEE7IiB3aWR0aD0iMTkuNSIgaGVpZ2h0PSIyLjI1Ii8+JiN4YTsJCQkJCTwvZz4mI3hhOwkJCQkJPGcgaWQ9InNoYXBlMTEwNTctMjMiIHRyYW5zZm9ybT0idHJhbnNsYXRlKDE4LC01OC41KSI+JiN4YTsJCQkJCQk8dGl0bGUgaWQ9InRpdGxlMjYwMTUxIj5yZWN0MTU0MjM8L3RpdGxlPiYjeGE7CQkJCQkJPHJlY3QgaWQ9InJlY3QyNjAxNTMiIHk9IjcwLjE0IiBzdHlsZT0iZmlsbDojNTU2QThBOyIgd2lkdGg9IjE5LjUiIGhlaWdodD0iMi4yNSIvPiYjeGE7CQkJCQk8L2c+JiN4YTsJCQkJPC9nPiYjeGE7CQkJCTxnIGlkPSJzaGFwZTExMDU4LTI1IiB0cmFuc2Zvcm09InRyYW5zbGF0ZSgwLjc1LC01OS4yNSkiPiYjeGE7CQkJCQk8dGl0bGUgaWQ9InRpdGxlMjYwMTU3Ij5yZWN0MTU0Mjc8L3RpdGxlPiYjeGE7CQkJCQk8cmVjdCBpZD0icmVjdDI2MDE1OSIgeT0iNzAuMTQiIHN0eWxlPSJmaWxsOiM1NTZBOEE7IiB3aWR0aD0iMi4yNSIgaGVpZ2h0PSIyLjI1Ii8+JiN4YTsJCQkJPC9nPiYjeGE7CQkJCTxnIGlkPSJzaGFwZTExMDU5LTI3IiB0cmFuc2Zvcm09InRyYW5zbGF0ZSgwLjc1LC01NCkiPiYjeGE7CQkJCQk8dGl0bGUgaWQ9InRpdGxlMjYwMTYyIj5yZWN0MTU0Mjk8L3RpdGxlPiYjeGE7CQkJCQk8cmVjdCBpZD0icmVjdDI2MDE2NCIgeT0iNzAuMTQiIHN0eWxlPSJmaWxsOiM1NTZBOEE7IiB3aWR0aD0iMi4yNSIgaGVpZ2h0PSIyLjI1Ii8+JiN4YTsJCQkJPC9nPiYjeGE7CQkJCTxnIGlkPSJzaGFwZTExMDYwLTI5IiB0cmFuc2Zvcm09InRyYW5zbGF0ZSgwLjc1LC00OC43NSkiPiYjeGE7CQkJCQk8dGl0bGUgaWQ9InRpdGxlMjYwMTY3Ij5yZWN0MTU0MzE8L3RpdGxlPiYjeGE7CQkJCQk8cmVjdCBpZD0icmVjdDI2MDE2OSIgeT0iNzAuMTQiIHN0eWxlPSJmaWxsOiM1NTZBOEE7IiB3aWR0aD0iMi4yNSIgaGVpZ2h0PSIyLjI1Ii8+JiN4YTsJCQkJPC9nPiYjeGE7CQkJPC9nPiYjeGE7CQkJPGcgaWQ9InNoYXBlMTEwNjEtMzEiIHRyYW5zZm9ybT0idHJhbnNsYXRlKDEzLjY5ODMpIj4mI3hhOwkJCQk8dGl0bGUgaWQ9InRpdGxlMjYwMTczIj5wb2x5Z29uMTU0MzUuMTE3Mzc8L3RpdGxlPiYjeGE7CQkJCSYjeGE7CQkJCQk8cGF0aCBpZD0icGF0aDI2MDE3NSIgaW5rc2NhcGU6Y29ubmVjdG9yLWN1cnZhdHVyZT0iMCIgc3R5bGU9ImZpbGw6I0ZGRkZGRjtzdHJva2U6I0VBNzAwRDtzdHJva2Utd2lkdGg6MS41O3N0cm9rZS1taXRlcmxpbWl0OjM7IiBkPSIgICAgICBNOC4yNyw3Mi4zOUwwLDU4LjE2bDguMjctMTQuMjRoMTYuNTVsOC4yNywxNC4yNGwtOC4yNywxNC4yM0g4LjI3eiIvPiYjeGE7CQkJPC9nPiYjeGE7CQk8L2c+JiN4YTsJCTxnIGlkPSJncm91cDExMDYyLTMzIiB0cmFuc2Zvcm09InRyYW5zbGF0ZSgyMS4yOTEyLC0yLjMzOTU1KSI+JiN4YTsJCQk8dGl0bGUgaWQ9InRpdGxlMjYwMTc5Ij5NeVNRTDwvdGl0bGU+JiN4YTsJCQk8ZyBpZD0ic2hhcGUxMTA2My0zNCI+JiN4YTsJCQkJPHRpdGxlIGlkPSJ0aXRsZTI2MDE4MSI+U2hlZXQuMTEwNjM8L3RpdGxlPiYjeGE7CQkJCTxnIGlkPSJzaGFkb3cxMTA2My0zNSIgdHJhbnNmb3JtPSJ0cmFuc2xhdGUoMC4zNDU2LDEuOTcyOCkiPiYjeGE7CQkJCQk8ZyBpZD0icGF0aDI2MDE4MyIgaW5rc2NhcGU6Y29ubmVjdG9yLWN1cnZhdHVyZT0iMCIgc3R5bGU9ImZpbHRlcjp1cmwoI2ZpbHRlcl8yKTsiPiYjeGE7CQkJCQkJPHBhdGggc3R5bGU9Im9wYWNpdHk6MC4yMjtmaWxsOiM1QjlCRDU7IiBkPSJNMCw1MS40OXYxNy41OWMwLDEuODMsNC4xMiwzLjMxLDkuMiwzLjMxdi0yMC45TDAsNTEuNDl6Ii8+JiN4YTsJCQkJCTwvZz4mI3hhOwkJCQk8L2c+JiN4YTsJCQkJPHBhdGggaWQ9InBhdGgyNjAxODYiIGlua3NjYXBlOmNvbm5lY3Rvci1jdXJ2YXR1cmU9IjAiIHN0eWxlPSJmaWxsOiMwMDcyQzY7IiBkPSJNMCw1MS40OXYxNy41OWMwLDEuODMsNC4xMiwzLjMxLDkuMiwzLjMxICAgICAgdi0yMC45TDAsNTEuNDl6Ii8+JiN4YTsJCQk8L2c+JiN4YTsJCQk8ZyBpZD0ic2hhcGUxMTA2NC0zOSIgdHJhbnNmb3JtPSJ0cmFuc2xhdGUoOS4wNzEwOCwtNC44NDA0OWUtNCkiPiYjeGE7CQkJCTx0aXRsZSBpZD0idGl0bGUyNjAxODkiPlNoZWV0LjExMDY0PC90aXRsZT4mI3hhOwkJCQk8ZyBpZD0ic2hhZG93MTEwNjQtNDAiIHRyYW5zZm9ybT0idHJhbnNsYXRlKDAuMzQ1NiwxLjk3MjgpIj4mI3hhOwkJCQkJPGcgaWQ9InBhdGgyNjAxOTEiIGlua3NjYXBlOmNvbm5lY3Rvci1jdXJ2YXR1cmU9IjAiIHN0eWxlPSJmaWx0ZXI6dXJsKCNmaWx0ZXJfMik7Ij4mI3hhOwkJCQkJCTxwYXRoIHN0eWxlPSJvcGFjaXR5OjAuMjI7ZmlsbDojNUI5QkQ1OyIgZD0iTTAsNzIuMzloMC4xM2M1LjA3LDAsOS4xOS0xLjQ4LDkuMTktMy4zMVY1MS41SDBWNzIuMzl6Ii8+JiN4YTsJCQkJCTwvZz4mI3hhOwkJCQk8L2c+JiN4YTsJCQkJPHBhdGggaWQ9InBhdGgyNjAxOTQiIGlua3NjYXBlOmNvbm5lY3Rvci1jdXJ2YXR1cmU9IjAiIHN0eWxlPSJmaWxsOiMwMDcyQzY7IiBkPSJNMCw3Mi4zOWgwLjEzYzUuMDcsMCw5LjE5LTEuNDgsOS4xOS0zLjMxICAgICAgVjUxLjVIMFY3Mi4zOXoiLz4mI3hhOwkJCTwvZz4mI3hhOwkJCTxnIGlkPSJzaGFwZTExMDY1LTQ0IiB0cmFuc2Zvcm09InRyYW5zbGF0ZSg5LjA3MTA4LC00Ljg0MDQ5ZS00KSI+JiN4YTsJCQkJPHRpdGxlIGlkPSJ0aXRsZTI2MDE5NyI+U2hlZXQuMTEwNjU8L3RpdGxlPiYjeGE7CQkJCTxnIGlkPSJzaGFkb3cxMTA2NS00NSIgdHJhbnNmb3JtPSJ0cmFuc2xhdGUoMC4zNDU2LDEuOTcyOCkiPiYjeGE7CQkJCQk8ZyBpZD0icGF0aDI2MDE5OSIgaW5rc2NhcGU6Y29ubmVjdG9yLWN1cnZhdHVyZT0iMCIgc3R5bGU9ImZpbHRlcjp1cmwoI2ZpbHRlcl8yKTsiPiYjeGE7CQkJCQkJPHBhdGggc3R5bGU9Im9wYWNpdHk6MC4yMjtmaWxsOiM1QjlCRDU7IiBkPSJNMCw3Mi4zOWgwLjEzYzUuMDcsMCw5LjE5LTEuNDgsOS4xOS0zLjMxVjUxLjVIMFY3Mi4zOXoiLz4mI3hhOwkJCQkJPC9nPiYjeGE7CQkJCTwvZz4mI3hhOwkJCQk8cGF0aCBpZD0icGF0aDI2MDIwMiIgaW5rc2NhcGU6Y29ubmVjdG9yLWN1cnZhdHVyZT0iMCIgc3R5bGU9ImZpbGw6I0ZGRkZGRjtmaWxsLW9wYWNpdHk6MC4xNTsiIGQ9Ik0wLDcyLjM5aDAuMTMgICAgICBjNS4wNywwLDkuMTktMS40OCw5LjE5LTMuMzFWNTEuNUgwVjcyLjM5eiIvPiYjeGE7CQkJPC9nPiYjeGE7CQkJPGcgaWQ9InNoYXBlMTEwNjYtNDkiIHRyYW5zZm9ybT0idHJhbnNsYXRlKDAsLTE3LjU4OTQpIj4mI3hhOwkJCQk8dGl0bGUgaWQ9InRpdGxlMjYwMjA1Ij5TaGVldC4xMTA2NjwvdGl0bGU+JiN4YTsJCQkJPGcgaWQ9InNoYWRvdzExMDY2LTUwIiB0cmFuc2Zvcm09InRyYW5zbGF0ZSgwLjM0NTYsMS45NzI4KSI+JiN4YTsJCQkJCTxnIGlkPSJwYXRoMjYwMjA3IiBpbmtzY2FwZTpjb25uZWN0b3ItY3VydmF0dXJlPSIwIiBzdHlsZT0iZmlsdGVyOnVybCgjZmlsdGVyXzIpOyI+JiN4YTsJCQkJCQk8cGF0aCBzdHlsZT0ib3BhY2l0eTowLjIyO2ZpbGw6IzVCOUJENTsiIGQ9Ik0xOC4zOSw2OS4wOGMwLDEuODMtNC4xMSwzLjMxLTkuMTksMy4zMVMwLDcwLjkxLDAsNjkuMDggICAgICAgIGMwLTEuODIsNC4xMi0zLjMsOS4yLTMuM1MxOC4zOSw2Ny4yNiwxOC4zOSw2OS4wOHoiLz4mI3hhOwkJCQkJPC9nPiYjeGE7CQkJCTwvZz4mI3hhOwkJCQk8cGF0aCBpZD0icGF0aDI2MDIxMCIgaW5rc2NhcGU6Y29ubmVjdG9yLWN1cnZhdHVyZT0iMCIgc3R5bGU9ImZpbGw6I0ZGRkZGRjsiIGQ9Ik0xOC4zOSw2OS4wOGMwLDEuODMtNC4xMSwzLjMxLTkuMTksMy4zMSAgICAgIFMwLDcwLjkxLDAsNjkuMDhjMC0xLjgyLDQuMTItMy4zLDkuMi0zLjNTMTguMzksNjcuMjYsMTguMzksNjkuMDh6Ii8+JiN4YTsJCQk8L2c+JiN4YTsJCQk8ZyBpZD0ic2hhcGUxMTA2Ny01NCIgdHJhbnNmb3JtPSJ0cmFuc2xhdGUoMS44ODAwNSwtMTguOTA0NSkiPiYjeGE7CQkJCTx0aXRsZSBpZD0idGl0bGUyNjAyMTMiPlNoZWV0LjExMDY3PC90aXRsZT4mI3hhOwkJCQk8ZyBpZD0ic2hhZG93MTEwNjctNTUiIHRyYW5zZm9ybT0idHJhbnNsYXRlKDAuMzQ1NiwxLjk3MjgpIj4mI3hhOwkJCQkJPGcgaWQ9InBhdGgyNjAyMTUiIGlua3NjYXBlOmNvbm5lY3Rvci1jdXJ2YXR1cmU9IjAiIHN0eWxlPSJmaWx0ZXI6dXJsKCNmaWx0ZXJfMik7Ij4mI3hhOwkJCQkJCTxwYXRoIHN0eWxlPSJvcGFjaXR5OjAuMjI7ZmlsbDojNUI5QkQ1OyIgZD0iTTE0LjYzLDcwLjIxYzAsMS4yLTMuMjcsMi4xOC03LjMxLDIuMThTMCw3MS40MSwwLDcwLjIxICAgICAgICBjMC0xLjIxLDMuMjgtMi4xOCw3LjMyLTIuMThTMTQuNjMsNjksMTQuNjMsNzAuMjF6Ii8+JiN4YTsJCQkJCTwvZz4mI3hhOwkJCQk8L2c+JiN4YTsJCQkJPHBhdGggaWQ9InBhdGgyNjAyMTgiIGlua3NjYXBlOmNvbm5lY3Rvci1jdXJ2YXR1cmU9IjAiIHN0eWxlPSJmaWxsOiNERDU5MDA7IiBkPSJNMTQuNjMsNzAuMjFjMCwxLjItMy4yNywyLjE4LTcuMzEsMi4xOCAgICAgIFMwLDcxLjQxLDAsNzAuMjFjMC0xLjIxLDMuMjgtMi4xOCw3LjMyLTIuMThTMTQuNjMsNjksMTQuNjMsNzAuMjF6Ii8+JiN4YTsJCQk8L2c+JiN4YTsJCQk8ZyBpZD0ic2hhcGUxMTA2OC01OSIgdHJhbnNmb3JtPSJ0cmFuc2xhdGUoMS44ODEwMiwtMTkuNzUzNikiPiYjeGE7CQkJCTx0aXRsZSBpZD0idGl0bGUyNjAyMjEiPlNoZWV0LjExMDY4PC90aXRsZT4mI3hhOwkJCQk8ZyBpZD0ic2hhZG93MTEwNjgtNjAiIHRyYW5zZm9ybT0idHJhbnNsYXRlKDAuMzQ1NiwxLjk3MjgpIj4mI3hhOwkJCQkJPGcgaWQ9InBhdGgyNjAyMjMiIGlua3NjYXBlOmNvbm5lY3Rvci1jdXJ2YXR1cmU9IjAiIHN0eWxlPSJmaWx0ZXI6dXJsKCNmaWx0ZXJfMik7Ij4mI3hhOwkJCQkJCTxwYXRoIHN0eWxlPSJvcGFjaXR5OjAuMjI7ZmlsbDojNUI5QkQ1OyIgZD0iTTEzLjEsNzIuMzljMC45Ni0wLjM3LDEuNTMtMC44MywxLjUzLTEuMzNjMC0xLjIxLTMuMjctMi4xOC03LjMxLTIuMTggICAgICAgIFMwLDY5Ljg1LDAsNzEuMDZjMCwwLjUsMC41OCwwLjk2LDEuNTMsMS4zM2MxLjM0LTAuNTEsMy40My0wLjg1LDUuNzktMC44NUM5LjY3LDcxLjU0LDExLjc2LDcxLjg4LDEzLjEsNzIuMzl6Ii8+JiN4YTsJCQkJCTwvZz4mI3hhOwkJCQk8L2c+JiN4YTsJCQkJPHBhdGggaWQ9InBhdGgyNjAyMjYiIGlua3NjYXBlOmNvbm5lY3Rvci1jdXJ2YXR1cmU9IjAiIHN0eWxlPSJmaWxsOiNGRjhDMDA7IiBkPSJNMTMuMSw3Mi4zOWMwLjk2LTAuMzcsMS41My0wLjgzLDEuNTMtMS4zMyAgICAgIGMwLTEuMjEtMy4yNy0yLjE4LTcuMzEtMi4xOFMwLDY5Ljg1LDAsNzEuMDZjMCwwLjUsMC41OCwwLjk2LDEuNTMsMS4zM2MxLjM0LTAuNTEsMy40My0wLjg1LDUuNzktMC44NSAgICAgIEM5LjY3LDcxLjU0LDExLjc2LDcxLjg4LDEzLjEsNzIuMzl6Ii8+JiN4YTsJCQk8L2c+JiN4YTsJCQk8ZyBpZD0ic2hhcGUxMTA2OS02NCIgdHJhbnNmb3JtPSJ0cmFuc2xhdGUoMS45MTAwNiwtNy44Nzk4NCkiPiYjeGE7CQkJCTx0aXRsZSBpZD0idGl0bGUyNjAyMjkiPlNoZWV0LjExMDY5PC90aXRsZT4mI3hhOwkJCQk8ZyBpZD0ic2hhZG93MTEwNjktNjUiIHRyYW5zZm9ybT0idHJhbnNsYXRlKDAuMzQ1NiwxLjk3MjgpIj4mI3hhOwkJCQkJPGcgaWQ9InBhdGgyNjAyMzEiIGlua3NjYXBlOmNvbm5lY3Rvci1jdXJ2YXR1cmU9IjAiIHN0eWxlPSJmaWx0ZXI6dXJsKCNmaWx0ZXJfMik7Ij4mI3hhOwkJCQkJCTxwYXRoIHN0eWxlPSJvcGFjaXR5OjAuMjI7ZmlsbDojNUI5QkQ1OyIgZD0iTTAsNzIuMzJoMS4xNnYtNC41OWwxLjgsNGMwLjIyLDAuNDksMC41MSwwLjY2LDEuMDgsMC42NnMwLjg1LTAuMTcsMS4wNi0wLjY2ICAgICAgICBsMS44LTR2NC41OWgxLjE2di00LjU4YzAtMC40NS0wLjE3LTAuNjctMC41NC0wLjc4Yy0wLjg5LTAuMjctMS40OC0wLjA0LTEuNzUsMC41Nkw0LDcxLjQ3bC0xLjcxLTMuOTUgICAgICAgIGMtMC4yNS0wLjYtMC44Ni0wLjgzLTEuNzQtMC41NkMwLjE4LDY3LjA3LDAsNjcuMjksMCw2Ny43NFY3Mi4zMnoiLz4mI3hhOwkJCQkJPC9nPiYjeGE7CQkJCTwvZz4mI3hhOwkJCQk8cGF0aCBpZD0icGF0aDI2MDIzNCIgaW5rc2NhcGU6Y29ubmVjdG9yLWN1cnZhdHVyZT0iMCIgc3R5bGU9ImZpbGw6I0ZGRkZGRjsiIGQ9Ik0wLDcyLjMyaDEuMTZ2LTQuNTlsMS44LDQgICAgICBjMC4yMiwwLjQ5LDAuNTEsMC42NiwxLjA4LDAuNjZzMC44NS0wLjE3LDEuMDYtMC42NmwxLjgtNHY0LjU5aDEuMTZ2LTQuNThjMC0wLjQ1LTAuMTctMC42Ny0wLjU0LTAuNzggICAgICBjLTAuODktMC4yNy0xLjQ4LTAuMDQtMS43NSwwLjU2TDQsNzEuNDdsLTEuNzEtMy45NWMtMC4yNS0wLjYtMC44Ni0wLjgzLTEuNzQtMC41NkMwLjE4LDY3LjA3LDAsNjcuMjksMCw2Ny43NFY3Mi4zMnoiLz4mI3hhOwkJCTwvZz4mI3hhOwkJCTxnIGlkPSJzaGFwZTExMDcwLTY5IiB0cmFuc2Zvcm09InRyYW5zbGF0ZSgxMC45NDE5LC02LjMyMTIpIj4mI3hhOwkJCQk8dGl0bGUgaWQ9InRpdGxlMjYwMjM3Ij5TaGVldC4xMTA3MDwvdGl0bGU+JiN4YTsJCQkJPGcgaWQ9InNoYWRvdzExMDcwLTcwIiB0cmFuc2Zvcm09InRyYW5zbGF0ZSgwLjM0NTYsMS45NzI4KSI+JiN4YTsJCQkJCTxnIGlkPSJwYXRoMjYwMjM5IiBpbmtzY2FwZTpjb25uZWN0b3ItY3VydmF0dXJlPSIwIiBzdHlsZT0iZmlsdGVyOnVybCgjZmlsdGVyXzIpOyI+JiN4YTsJCQkJCQk8cGF0aCBzdHlsZT0ib3BhY2l0eTowLjIyO2ZpbGw6IzVCOUJENTsiIGQ9Ik0wLDY3LjAzaDEuMTZ2Mi41M2MtMC4wMSwwLjEzLDAuMDUsMC40NiwwLjY4LDAuNDdjMC4zMywwLDIuNTEsMCwyLjUzLDB2LTMuMDIgICAgICAgIGgxLjE3YzAsMCwwLDQuMTEsMCw0LjEzYzAsMS4wMS0xLjI2LDEuMjMtMS44NCwxLjI1SDAuMDN2LTAuNzhIMy43YzAuNzUtMC4wOCwwLjY2LTAuNDUsMC42Ni0wLjU4di0wLjNIMS44OSAgICAgICAgQzAuNzQsNzAuNzIsMC4wMSw3MC4yMSwwLDY5LjY0QzAsNjkuNTgsMC4wMyw2Ny4wNSwwLDY3LjAzeiIvPiYjeGE7CQkJCQk8L2c+JiN4YTsJCQkJPC9nPiYjeGE7CQkJCTxwYXRoIGlkPSJwYXRoMjYwMjQyIiBpbmtzY2FwZTpjb25uZWN0b3ItY3VydmF0dXJlPSIwIiBzdHlsZT0iZmlsbDojRkZGRkZGOyIgZD0iTTAsNjcuMDNoMS4xNnYyLjUzICAgICAgYy0wLjAxLDAuMTMsMC4wNSwwLjQ2LDAuNjgsMC40N2MwLjMzLDAsMi41MSwwLDIuNTMsMHYtMy4wMmgxLjE3YzAsMCwwLDQuMTEsMCw0LjEzYzAsMS4wMS0xLjI2LDEuMjMtMS44NCwxLjI1SDAuMDN2LTAuNzhIMy43ICAgICAgYzAuNzUtMC4wOCwwLjY2LTAuNDUsMC42Ni0wLjU4di0wLjNIMS44OUMwLjc0LDcwLjcyLDAuMDEsNzAuMjEsMCw2OS42NEMwLDY5LjU4LDAuMDMsNjcuMDUsMCw2Ny4wM3oiLz4mI3hhOwkJCTwvZz4mI3hhOwkJPC9nPiYjeGE7CTwvZz4mI3hhOzwvZz4mI3hhOzwvc3ZnPg==;" vertex="1" parent="1">
          <mxGeometry x="282" y="680" width="48" height="71" as="geometry" />
        </mxCell>
        <mxCell id="ogB1OXXyy9iU-GvDi_hn-16" value="R34" style="shape=image;verticalLabelPosition=bottom;labelBackgroundColor=#ffffff;verticalAlign=top;aspect=fixed;imageAspect=0;image=data:image/svg+xml,PHN2ZyB4bWxuczpjYz0iaHR0cDovL2NyZWF0aXZlY29tbW9ucy5vcmcvbnMjIiB4bWxuczpkYz0iaHR0cDovL3B1cmwub3JnL2RjL2VsZW1lbnRzLzEuMS8iIHhtbG5zOmlua3NjYXBlPSJodHRwOi8vd3d3Lmlua3NjYXBlLm9yZy9uYW1lc3BhY2VzL2lua3NjYXBlIiB4bWxuczpyZGY9Imh0dHA6Ly93d3cudzMub3JnLzE5OTkvMDIvMjItcmRmLXN5bnRheC1ucyMiIHhtbG5zOnNvZGlwb2RpPSJodHRwOi8vc29kaXBvZGkuc291cmNlZm9yZ2UubmV0L0RURC9zb2RpcG9kaS0wLmR0ZCIgeG1sbnM6c3ZnPSJodHRwOi8vd3d3LnczLm9yZy8yMDAwL3N2ZyIgeG1sbnM9Imh0dHA6Ly93d3cudzMub3JnLzIwMDAvc3ZnIiB4bWxuczp4bGluaz0iaHR0cDovL3d3dy53My5vcmcvMTk5OS94bGluayIgdmVyc2lvbj0iMS4xIiBpZD0ic3ZnMjYwMjQ5IiBpbmtzY2FwZTp2ZXJzaW9uPSIwLjkyLjMgKDI0MDU1NDYsIDIwMTgtMDMtMTEpIiBzb2RpcG9kaTpkb2NuYW1lPSJteXNxbF9zZXJ2ZXIuc3ZnIiB4PSIwcHgiIHk9IjBweCIgdmlld0JveD0iMCAwIDQ4LjQxIDcwLjczIiBzdHlsZT0iZW5hYmxlLWJhY2tncm91bmQ6bmV3IDAgMCA0OC40MSA3MC43MzsiIHhtbDpzcGFjZT0icHJlc2VydmUiPiYjeGE7PGZpbHRlciBpZD0iZmlsdGVyXzIiPiYjeGE7CTxmZUdhdXNzaWFuQmx1ciBpZD0iZmVHYXVzc2lhbkJsdXIyNjAwOTIiIHN0ZERldmlhdGlvbj0iMiIvPiYjeGE7PC9maWx0ZXI+JiN4YTs8c29kaXBvZGk6bmFtZWR2aWV3IGJvcmRlcmNvbG9yPSIjNjY2NjY2IiBib3JkZXJvcGFjaXR5PSIxIiBmaXQtbWFyZ2luLWJvdHRvbT0iMCIgZml0LW1hcmdpbi1sZWZ0PSIwIiBmaXQtbWFyZ2luLXJpZ2h0PSIwIiBmaXQtbWFyZ2luLXRvcD0iMCIgZ3JpZHRvbGVyYW5jZT0iMTAiIGd1aWRldG9sZXJhbmNlPSIxMCIgaWQ9Im5hbWVkdmlldzI2MDI1MSIgaW5rc2NhcGU6Y3VycmVudC1sYXllcj0ic3ZnMjYwMjQ5IiBpbmtzY2FwZTpjeD0iMzIuMTkwODk3IiBpbmtzY2FwZTpjeT0iNDcuMDQ2MjQyIiBpbmtzY2FwZTpwYWdlb3BhY2l0eT0iMCIgaW5rc2NhcGU6cGFnZXNoYWRvdz0iMiIgaW5rc2NhcGU6d2luZG93LWhlaWdodD0iMTAxNyIgaW5rc2NhcGU6d2luZG93LW1heGltaXplZD0iMSIgaW5rc2NhcGU6d2luZG93LXdpZHRoPSIxOTIwIiBpbmtzY2FwZTp3aW5kb3cteD0iLTgiIGlua3NjYXBlOndpbmRvdy15PSItOCIgaW5rc2NhcGU6em9vbT0iOC45ODI0NzUzIiBvYmplY3R0b2xlcmFuY2U9IjEwIiBwYWdlY29sb3I9IiNmZmZmZmYiIHNob3dncmlkPSJmYWxzZSI+JiN4YTsJPC9zb2RpcG9kaTpuYW1lZHZpZXc+JiN4YTs8ZyBpZD0iZzI2MDI0NyIgdHJhbnNmb3JtPSJ0cmFuc2xhdGUoLTAuNzUsLTAuNzUwMjIyMTIpIj4mI3hhOwk8dGl0bGUgaWQ9InRpdGxlMjYwMDk2Ij5QYWdlLTE8L3RpdGxlPiYjeGE7CTxnIGlkPSJncm91cDExMDQ0LTEiIHRyYW5zZm9ybT0idHJhbnNsYXRlKDEuNSwtMi42MzMyMykiPiYjeGE7CQk8dGl0bGUgaWQ9InRpdGxlMjYwMDk4Ij5NeVNRTCBTZXJ2ZXI8L3RpdGxlPiYjeGE7CQk8ZyBpZD0iZ3JvdXAxMTA0NS0yIj4mI3hhOwkJCTx0aXRsZSBpZD0idGl0bGUyNjAxMDAiPkdlbmVyaWMgU2VydmljZTwvdGl0bGU+JiN4YTsJCQk8ZyBpZD0iZ3JvdXAxMTA0Ni0zIiB0cmFuc2Zvcm09InRyYW5zbGF0ZSgwLC0wLjAwNzM5ODc2KSI+JiN4YTsJCQkJPHRpdGxlIGlkPSJ0aXRsZTI2MDEwMiI+ZzE1NDMzLjExNzIxPC90aXRsZT4mI3hhOwkJCQk8ZyBpZD0ic2hhcGUxMTA0Ny00Ij4mI3hhOwkJCQkJPHRpdGxlIGlkPSJ0aXRsZTI2MDEwNCI+cmVjdDE1NDA1PC90aXRsZT4mI3hhOwkJCQkJJiN4YTsJCQkJCQk8cmVjdCBpZD0icmVjdDI2MDEwNiIgeT0iNC4xNCIgc3R5bGU9ImZpbGw6I0ZGRkZGRjtzdHJva2U6IzU1NkE4QTtzdHJva2Utd2lkdGg6MS41O3N0cm9rZS1taXRlcmxpbWl0OjM7IiB3aWR0aD0iMzkuNzUiIGhlaWdodD0iNjguMjUiLz4mI3hhOwkJCQk8L2c+JiN4YTsJCQkJPGcgaWQ9Imdyb3VwMTEwNDgtNiIgdHJhbnNmb3JtPSJ0cmFuc2xhdGUoMS41LC0wLjc1KSI+JiN4YTsJCQkJCTx0aXRsZSBpZD0idGl0bGUyNjAxMDkiPmcxNTQyNTwvdGl0bGU+JiN4YTsJCQkJCTxnIGlkPSJzaGFwZTExMDQ5LTciIHRyYW5zZm9ybT0idHJhbnNsYXRlKDE4KSI+JiN4YTsJCQkJCQk8dGl0bGUgaWQ9InRpdGxlMjYwMTExIj5yZWN0MTU0MDc8L3RpdGxlPiYjeGE7CQkJCQkJPHJlY3QgaWQ9InJlY3QyNjAxMTMiIHk9IjUuNjQiIHN0eWxlPSJmaWxsOiNFNUU1RTU7IiB3aWR0aD0iMTkuNSIgaGVpZ2h0PSI2Ni43NSIvPiYjeGE7CQkJCQk8L2c+JiN4YTsJCQkJCTxnIGlkPSJzaGFwZTExMDUwLTkiIHRyYW5zZm9ybT0idHJhbnNsYXRlKDAsLTQ4KSI+JiN4YTsJCQkJCQk8dGl0bGUgaWQ9InRpdGxlMjYwMTE2Ij5yZWN0MTU0MDk8L3RpdGxlPiYjeGE7CQkJCQkJPHJlY3QgaWQ9InJlY3QyNjAxMTgiIHk9IjcwLjE0IiBzdHlsZT0iZmlsbDojMkJDN0Y0OyIgd2lkdGg9IjE4IiBoZWlnaHQ9IjIuMjUiLz4mI3hhOwkJCQkJPC9nPiYjeGE7CQkJCQk8ZyBpZD0ic2hhcGUxMTA1MS0xMSIgdHJhbnNmb3JtPSJ0cmFuc2xhdGUoMCwtNTguNSkiPiYjeGE7CQkJCQkJPHRpdGxlIGlkPSJ0aXRsZTI2MDEyMSI+cG9seWdvbjE1NDExPC90aXRsZT4mI3hhOwkJCQkJCTxyZWN0IGlkPSJyZWN0MjYwMTIzIiB5PSI3MC4xNCIgc3R5bGU9ImZpbGw6bm9uZTsiIHdpZHRoPSIyNyIgaGVpZ2h0PSIyLjI1Ii8+JiN4YTsJCQkJCTwvZz4mI3hhOwkJCQkJPGcgaWQ9InNoYXBlMTEwNTItMTMiIHRyYW5zZm9ybT0idHJhbnNsYXRlKDAsLTU4LjUpIj4mI3hhOwkJCQkJCTx0aXRsZSBpZD0idGl0bGUyNjAxMjYiPnBvbHlsaW5lMTU0MTM8L3RpdGxlPiYjeGE7CQkJCQkJPHJlY3QgaWQ9InJlY3QyNjAxMjgiIHk9IjcwLjE0IiBzdHlsZT0iZmlsbDpub25lOyIgd2lkdGg9IjI3IiBoZWlnaHQ9IjIuMjUiLz4mI3hhOwkJCQkJPC9nPiYjeGE7CQkJCQk8ZyBpZD0ic2hhcGUxMTA1My0xNSIgdHJhbnNmb3JtPSJ0cmFuc2xhdGUoMCwtNTMuMjUpIj4mI3hhOwkJCQkJCTx0aXRsZSBpZD0idGl0bGUyNjAxMzEiPnJlY3QxNTQxNTwvdGl0bGU+JiN4YTsJCQkJCQk8cmVjdCBpZD0icmVjdDI2MDEzMyIgeT0iNzAuMTQiIHN0eWxlPSJmaWxsOiMyQkM3RjQ7IiB3aWR0aD0iMTgiIGhlaWdodD0iMi4yNSIvPiYjeGE7CQkJCQk8L2c+JiN4YTsJCQkJCTxnIGlkPSJzaGFwZTExMDU0LTE3IiB0cmFuc2Zvcm09InRyYW5zbGF0ZSgwLC01OC41KSI+JiN4YTsJCQkJCQk8dGl0bGUgaWQ9InRpdGxlMjYwMTM2Ij5yZWN0MTU0MTc8L3RpdGxlPiYjeGE7CQkJCQkJPHJlY3QgaWQ9InJlY3QyNjAxMzgiIHk9IjcwLjE0IiBzdHlsZT0iZmlsbDojMkJDN0Y0OyIgd2lkdGg9IjE4IiBoZWlnaHQ9IjIuMjUiLz4mI3hhOwkJCQkJPC9nPiYjeGE7CQkJCQk8ZyBpZD0ic2hhcGUxMTA1NS0xOSIgdHJhbnNmb3JtPSJ0cmFuc2xhdGUoMTgsLTQ4KSI+JiN4YTsJCQkJCQk8dGl0bGUgaWQ9InRpdGxlMjYwMTQxIj5yZWN0MTU0MTk8L3RpdGxlPiYjeGE7CQkJCQkJPHJlY3QgaWQ9InJlY3QyNjAxNDMiIHk9IjcwLjE0IiBzdHlsZT0iZmlsbDojNTU2QThBOyIgd2lkdGg9IjE5LjUiIGhlaWdodD0iMi4yNSIvPiYjeGE7CQkJCQk8L2c+JiN4YTsJCQkJCTxnIGlkPSJzaGFwZTExMDU2LTIxIiB0cmFuc2Zvcm09InRyYW5zbGF0ZSgxOCwtNTMuMjUpIj4mI3hhOwkJCQkJCTx0aXRsZSBpZD0idGl0bGUyNjAxNDYiPnJlY3QxNTQyMTwvdGl0bGU+JiN4YTsJCQkJCQk8cmVjdCBpZD0icmVjdDI2MDE0OCIgeT0iNzAuMTQiIHN0eWxlPSJmaWxsOiM1NTZBOEE7IiB3aWR0aD0iMTkuNSIgaGVpZ2h0PSIyLjI1Ii8+JiN4YTsJCQkJCTwvZz4mI3hhOwkJCQkJPGcgaWQ9InNoYXBlMTEwNTctMjMiIHRyYW5zZm9ybT0idHJhbnNsYXRlKDE4LC01OC41KSI+JiN4YTsJCQkJCQk8dGl0bGUgaWQ9InRpdGxlMjYwMTUxIj5yZWN0MTU0MjM8L3RpdGxlPiYjeGE7CQkJCQkJPHJlY3QgaWQ9InJlY3QyNjAxNTMiIHk9IjcwLjE0IiBzdHlsZT0iZmlsbDojNTU2QThBOyIgd2lkdGg9IjE5LjUiIGhlaWdodD0iMi4yNSIvPiYjeGE7CQkJCQk8L2c+JiN4YTsJCQkJPC9nPiYjeGE7CQkJCTxnIGlkPSJzaGFwZTExMDU4LTI1IiB0cmFuc2Zvcm09InRyYW5zbGF0ZSgwLjc1LC01OS4yNSkiPiYjeGE7CQkJCQk8dGl0bGUgaWQ9InRpdGxlMjYwMTU3Ij5yZWN0MTU0Mjc8L3RpdGxlPiYjeGE7CQkJCQk8cmVjdCBpZD0icmVjdDI2MDE1OSIgeT0iNzAuMTQiIHN0eWxlPSJmaWxsOiM1NTZBOEE7IiB3aWR0aD0iMi4yNSIgaGVpZ2h0PSIyLjI1Ii8+JiN4YTsJCQkJPC9nPiYjeGE7CQkJCTxnIGlkPSJzaGFwZTExMDU5LTI3IiB0cmFuc2Zvcm09InRyYW5zbGF0ZSgwLjc1LC01NCkiPiYjeGE7CQkJCQk8dGl0bGUgaWQ9InRpdGxlMjYwMTYyIj5yZWN0MTU0Mjk8L3RpdGxlPiYjeGE7CQkJCQk8cmVjdCBpZD0icmVjdDI2MDE2NCIgeT0iNzAuMTQiIHN0eWxlPSJmaWxsOiM1NTZBOEE7IiB3aWR0aD0iMi4yNSIgaGVpZ2h0PSIyLjI1Ii8+JiN4YTsJCQkJPC9nPiYjeGE7CQkJCTxnIGlkPSJzaGFwZTExMDYwLTI5IiB0cmFuc2Zvcm09InRyYW5zbGF0ZSgwLjc1LC00OC43NSkiPiYjeGE7CQkJCQk8dGl0bGUgaWQ9InRpdGxlMjYwMTY3Ij5yZWN0MTU0MzE8L3RpdGxlPiYjeGE7CQkJCQk8cmVjdCBpZD0icmVjdDI2MDE2OSIgeT0iNzAuMTQiIHN0eWxlPSJmaWxsOiM1NTZBOEE7IiB3aWR0aD0iMi4yNSIgaGVpZ2h0PSIyLjI1Ii8+JiN4YTsJCQkJPC9nPiYjeGE7CQkJPC9nPiYjeGE7CQkJPGcgaWQ9InNoYXBlMTEwNjEtMzEiIHRyYW5zZm9ybT0idHJhbnNsYXRlKDEzLjY5ODMpIj4mI3hhOwkJCQk8dGl0bGUgaWQ9InRpdGxlMjYwMTczIj5wb2x5Z29uMTU0MzUuMTE3Mzc8L3RpdGxlPiYjeGE7CQkJCSYjeGE7CQkJCQk8cGF0aCBpZD0icGF0aDI2MDE3NSIgaW5rc2NhcGU6Y29ubmVjdG9yLWN1cnZhdHVyZT0iMCIgc3R5bGU9ImZpbGw6I0ZGRkZGRjtzdHJva2U6I0VBNzAwRDtzdHJva2Utd2lkdGg6MS41O3N0cm9rZS1taXRlcmxpbWl0OjM7IiBkPSIgICAgICBNOC4yNyw3Mi4zOUwwLDU4LjE2bDguMjctMTQuMjRoMTYuNTVsOC4yNywxNC4yNGwtOC4yNywxNC4yM0g4LjI3eiIvPiYjeGE7CQkJPC9nPiYjeGE7CQk8L2c+JiN4YTsJCTxnIGlkPSJncm91cDExMDYyLTMzIiB0cmFuc2Zvcm09InRyYW5zbGF0ZSgyMS4yOTEyLC0yLjMzOTU1KSI+JiN4YTsJCQk8dGl0bGUgaWQ9InRpdGxlMjYwMTc5Ij5NeVNRTDwvdGl0bGU+JiN4YTsJCQk8ZyBpZD0ic2hhcGUxMTA2My0zNCI+JiN4YTsJCQkJPHRpdGxlIGlkPSJ0aXRsZTI2MDE4MSI+U2hlZXQuMTEwNjM8L3RpdGxlPiYjeGE7CQkJCTxnIGlkPSJzaGFkb3cxMTA2My0zNSIgdHJhbnNmb3JtPSJ0cmFuc2xhdGUoMC4zNDU2LDEuOTcyOCkiPiYjeGE7CQkJCQk8ZyBpZD0icGF0aDI2MDE4MyIgaW5rc2NhcGU6Y29ubmVjdG9yLWN1cnZhdHVyZT0iMCIgc3R5bGU9ImZpbHRlcjp1cmwoI2ZpbHRlcl8yKTsiPiYjeGE7CQkJCQkJPHBhdGggc3R5bGU9Im9wYWNpdHk6MC4yMjtmaWxsOiM1QjlCRDU7IiBkPSJNMCw1MS40OXYxNy41OWMwLDEuODMsNC4xMiwzLjMxLDkuMiwzLjMxdi0yMC45TDAsNTEuNDl6Ii8+JiN4YTsJCQkJCTwvZz4mI3hhOwkJCQk8L2c+JiN4YTsJCQkJPHBhdGggaWQ9InBhdGgyNjAxODYiIGlua3NjYXBlOmNvbm5lY3Rvci1jdXJ2YXR1cmU9IjAiIHN0eWxlPSJmaWxsOiMwMDcyQzY7IiBkPSJNMCw1MS40OXYxNy41OWMwLDEuODMsNC4xMiwzLjMxLDkuMiwzLjMxICAgICAgdi0yMC45TDAsNTEuNDl6Ii8+JiN4YTsJCQk8L2c+JiN4YTsJCQk8ZyBpZD0ic2hhcGUxMTA2NC0zOSIgdHJhbnNmb3JtPSJ0cmFuc2xhdGUoOS4wNzEwOCwtNC44NDA0OWUtNCkiPiYjeGE7CQkJCTx0aXRsZSBpZD0idGl0bGUyNjAxODkiPlNoZWV0LjExMDY0PC90aXRsZT4mI3hhOwkJCQk8ZyBpZD0ic2hhZG93MTEwNjQtNDAiIHRyYW5zZm9ybT0idHJhbnNsYXRlKDAuMzQ1NiwxLjk3MjgpIj4mI3hhOwkJCQkJPGcgaWQ9InBhdGgyNjAxOTEiIGlua3NjYXBlOmNvbm5lY3Rvci1jdXJ2YXR1cmU9IjAiIHN0eWxlPSJmaWx0ZXI6dXJsKCNmaWx0ZXJfMik7Ij4mI3hhOwkJCQkJCTxwYXRoIHN0eWxlPSJvcGFjaXR5OjAuMjI7ZmlsbDojNUI5QkQ1OyIgZD0iTTAsNzIuMzloMC4xM2M1LjA3LDAsOS4xOS0xLjQ4LDkuMTktMy4zMVY1MS41SDBWNzIuMzl6Ii8+JiN4YTsJCQkJCTwvZz4mI3hhOwkJCQk8L2c+JiN4YTsJCQkJPHBhdGggaWQ9InBhdGgyNjAxOTQiIGlua3NjYXBlOmNvbm5lY3Rvci1jdXJ2YXR1cmU9IjAiIHN0eWxlPSJmaWxsOiMwMDcyQzY7IiBkPSJNMCw3Mi4zOWgwLjEzYzUuMDcsMCw5LjE5LTEuNDgsOS4xOS0zLjMxICAgICAgVjUxLjVIMFY3Mi4zOXoiLz4mI3hhOwkJCTwvZz4mI3hhOwkJCTxnIGlkPSJzaGFwZTExMDY1LTQ0IiB0cmFuc2Zvcm09InRyYW5zbGF0ZSg5LjA3MTA4LC00Ljg0MDQ5ZS00KSI+JiN4YTsJCQkJPHRpdGxlIGlkPSJ0aXRsZTI2MDE5NyI+U2hlZXQuMTEwNjU8L3RpdGxlPiYjeGE7CQkJCTxnIGlkPSJzaGFkb3cxMTA2NS00NSIgdHJhbnNmb3JtPSJ0cmFuc2xhdGUoMC4zNDU2LDEuOTcyOCkiPiYjeGE7CQkJCQk8ZyBpZD0icGF0aDI2MDE5OSIgaW5rc2NhcGU6Y29ubmVjdG9yLWN1cnZhdHVyZT0iMCIgc3R5bGU9ImZpbHRlcjp1cmwoI2ZpbHRlcl8yKTsiPiYjeGE7CQkJCQkJPHBhdGggc3R5bGU9Im9wYWNpdHk6MC4yMjtmaWxsOiM1QjlCRDU7IiBkPSJNMCw3Mi4zOWgwLjEzYzUuMDcsMCw5LjE5LTEuNDgsOS4xOS0zLjMxVjUxLjVIMFY3Mi4zOXoiLz4mI3hhOwkJCQkJPC9nPiYjeGE7CQkJCTwvZz4mI3hhOwkJCQk8cGF0aCBpZD0icGF0aDI2MDIwMiIgaW5rc2NhcGU6Y29ubmVjdG9yLWN1cnZhdHVyZT0iMCIgc3R5bGU9ImZpbGw6I0ZGRkZGRjtmaWxsLW9wYWNpdHk6MC4xNTsiIGQ9Ik0wLDcyLjM5aDAuMTMgICAgICBjNS4wNywwLDkuMTktMS40OCw5LjE5LTMuMzFWNTEuNUgwVjcyLjM5eiIvPiYjeGE7CQkJPC9nPiYjeGE7CQkJPGcgaWQ9InNoYXBlMTEwNjYtNDkiIHRyYW5zZm9ybT0idHJhbnNsYXRlKDAsLTE3LjU4OTQpIj4mI3hhOwkJCQk8dGl0bGUgaWQ9InRpdGxlMjYwMjA1Ij5TaGVldC4xMTA2NjwvdGl0bGU+JiN4YTsJCQkJPGcgaWQ9InNoYWRvdzExMDY2LTUwIiB0cmFuc2Zvcm09InRyYW5zbGF0ZSgwLjM0NTYsMS45NzI4KSI+JiN4YTsJCQkJCTxnIGlkPSJwYXRoMjYwMjA3IiBpbmtzY2FwZTpjb25uZWN0b3ItY3VydmF0dXJlPSIwIiBzdHlsZT0iZmlsdGVyOnVybCgjZmlsdGVyXzIpOyI+JiN4YTsJCQkJCQk8cGF0aCBzdHlsZT0ib3BhY2l0eTowLjIyO2ZpbGw6IzVCOUJENTsiIGQ9Ik0xOC4zOSw2OS4wOGMwLDEuODMtNC4xMSwzLjMxLTkuMTksMy4zMVMwLDcwLjkxLDAsNjkuMDggICAgICAgIGMwLTEuODIsNC4xMi0zLjMsOS4yLTMuM1MxOC4zOSw2Ny4yNiwxOC4zOSw2OS4wOHoiLz4mI3hhOwkJCQkJPC9nPiYjeGE7CQkJCTwvZz4mI3hhOwkJCQk8cGF0aCBpZD0icGF0aDI2MDIxMCIgaW5rc2NhcGU6Y29ubmVjdG9yLWN1cnZhdHVyZT0iMCIgc3R5bGU9ImZpbGw6I0ZGRkZGRjsiIGQ9Ik0xOC4zOSw2OS4wOGMwLDEuODMtNC4xMSwzLjMxLTkuMTksMy4zMSAgICAgIFMwLDcwLjkxLDAsNjkuMDhjMC0xLjgyLDQuMTItMy4zLDkuMi0zLjNTMTguMzksNjcuMjYsMTguMzksNjkuMDh6Ii8+JiN4YTsJCQk8L2c+JiN4YTsJCQk8ZyBpZD0ic2hhcGUxMTA2Ny01NCIgdHJhbnNmb3JtPSJ0cmFuc2xhdGUoMS44ODAwNSwtMTguOTA0NSkiPiYjeGE7CQkJCTx0aXRsZSBpZD0idGl0bGUyNjAyMTMiPlNoZWV0LjExMDY3PC90aXRsZT4mI3hhOwkJCQk8ZyBpZD0ic2hhZG93MTEwNjctNTUiIHRyYW5zZm9ybT0idHJhbnNsYXRlKDAuMzQ1NiwxLjk3MjgpIj4mI3hhOwkJCQkJPGcgaWQ9InBhdGgyNjAyMTUiIGlua3NjYXBlOmNvbm5lY3Rvci1jdXJ2YXR1cmU9IjAiIHN0eWxlPSJmaWx0ZXI6dXJsKCNmaWx0ZXJfMik7Ij4mI3hhOwkJCQkJCTxwYXRoIHN0eWxlPSJvcGFjaXR5OjAuMjI7ZmlsbDojNUI5QkQ1OyIgZD0iTTE0LjYzLDcwLjIxYzAsMS4yLTMuMjcsMi4xOC03LjMxLDIuMThTMCw3MS40MSwwLDcwLjIxICAgICAgICBjMC0xLjIxLDMuMjgtMi4xOCw3LjMyLTIuMThTMTQuNjMsNjksMTQuNjMsNzAuMjF6Ii8+JiN4YTsJCQkJCTwvZz4mI3hhOwkJCQk8L2c+JiN4YTsJCQkJPHBhdGggaWQ9InBhdGgyNjAyMTgiIGlua3NjYXBlOmNvbm5lY3Rvci1jdXJ2YXR1cmU9IjAiIHN0eWxlPSJmaWxsOiNERDU5MDA7IiBkPSJNMTQuNjMsNzAuMjFjMCwxLjItMy4yNywyLjE4LTcuMzEsMi4xOCAgICAgIFMwLDcxLjQxLDAsNzAuMjFjMC0xLjIxLDMuMjgtMi4xOCw3LjMyLTIuMThTMTQuNjMsNjksMTQuNjMsNzAuMjF6Ii8+JiN4YTsJCQk8L2c+JiN4YTsJCQk8ZyBpZD0ic2hhcGUxMTA2OC01OSIgdHJhbnNmb3JtPSJ0cmFuc2xhdGUoMS44ODEwMiwtMTkuNzUzNikiPiYjeGE7CQkJCTx0aXRsZSBpZD0idGl0bGUyNjAyMjEiPlNoZWV0LjExMDY4PC90aXRsZT4mI3hhOwkJCQk8ZyBpZD0ic2hhZG93MTEwNjgtNjAiIHRyYW5zZm9ybT0idHJhbnNsYXRlKDAuMzQ1NiwxLjk3MjgpIj4mI3hhOwkJCQkJPGcgaWQ9InBhdGgyNjAyMjMiIGlua3NjYXBlOmNvbm5lY3Rvci1jdXJ2YXR1cmU9IjAiIHN0eWxlPSJmaWx0ZXI6dXJsKCNmaWx0ZXJfMik7Ij4mI3hhOwkJCQkJCTxwYXRoIHN0eWxlPSJvcGFjaXR5OjAuMjI7ZmlsbDojNUI5QkQ1OyIgZD0iTTEzLjEsNzIuMzljMC45Ni0wLjM3LDEuNTMtMC44MywxLjUzLTEuMzNjMC0xLjIxLTMuMjctMi4xOC03LjMxLTIuMTggICAgICAgIFMwLDY5Ljg1LDAsNzEuMDZjMCwwLjUsMC41OCwwLjk2LDEuNTMsMS4zM2MxLjM0LTAuNTEsMy40My0wLjg1LDUuNzktMC44NUM5LjY3LDcxLjU0LDExLjc2LDcxLjg4LDEzLjEsNzIuMzl6Ii8+JiN4YTsJCQkJCTwvZz4mI3hhOwkJCQk8L2c+JiN4YTsJCQkJPHBhdGggaWQ9InBhdGgyNjAyMjYiIGlua3NjYXBlOmNvbm5lY3Rvci1jdXJ2YXR1cmU9IjAiIHN0eWxlPSJmaWxsOiNGRjhDMDA7IiBkPSJNMTMuMSw3Mi4zOWMwLjk2LTAuMzcsMS41My0wLjgzLDEuNTMtMS4zMyAgICAgIGMwLTEuMjEtMy4yNy0yLjE4LTcuMzEtMi4xOFMwLDY5Ljg1LDAsNzEuMDZjMCwwLjUsMC41OCwwLjk2LDEuNTMsMS4zM2MxLjM0LTAuNTEsMy40My0wLjg1LDUuNzktMC44NSAgICAgIEM5LjY3LDcxLjU0LDExLjc2LDcxLjg4LDEzLjEsNzIuMzl6Ii8+JiN4YTsJCQk8L2c+JiN4YTsJCQk8ZyBpZD0ic2hhcGUxMTA2OS02NCIgdHJhbnNmb3JtPSJ0cmFuc2xhdGUoMS45MTAwNiwtNy44Nzk4NCkiPiYjeGE7CQkJCTx0aXRsZSBpZD0idGl0bGUyNjAyMjkiPlNoZWV0LjExMDY5PC90aXRsZT4mI3hhOwkJCQk8ZyBpZD0ic2hhZG93MTEwNjktNjUiIHRyYW5zZm9ybT0idHJhbnNsYXRlKDAuMzQ1NiwxLjk3MjgpIj4mI3hhOwkJCQkJPGcgaWQ9InBhdGgyNjAyMzEiIGlua3NjYXBlOmNvbm5lY3Rvci1jdXJ2YXR1cmU9IjAiIHN0eWxlPSJmaWx0ZXI6dXJsKCNmaWx0ZXJfMik7Ij4mI3hhOwkJCQkJCTxwYXRoIHN0eWxlPSJvcGFjaXR5OjAuMjI7ZmlsbDojNUI5QkQ1OyIgZD0iTTAsNzIuMzJoMS4xNnYtNC41OWwxLjgsNGMwLjIyLDAuNDksMC41MSwwLjY2LDEuMDgsMC42NnMwLjg1LTAuMTcsMS4wNi0wLjY2ICAgICAgICBsMS44LTR2NC41OWgxLjE2di00LjU4YzAtMC40NS0wLjE3LTAuNjctMC41NC0wLjc4Yy0wLjg5LTAuMjctMS40OC0wLjA0LTEuNzUsMC41Nkw0LDcxLjQ3bC0xLjcxLTMuOTUgICAgICAgIGMtMC4yNS0wLjYtMC44Ni0wLjgzLTEuNzQtMC41NkMwLjE4LDY3LjA3LDAsNjcuMjksMCw2Ny43NFY3Mi4zMnoiLz4mI3hhOwkJCQkJPC9nPiYjeGE7CQkJCTwvZz4mI3hhOwkJCQk8cGF0aCBpZD0icGF0aDI2MDIzNCIgaW5rc2NhcGU6Y29ubmVjdG9yLWN1cnZhdHVyZT0iMCIgc3R5bGU9ImZpbGw6I0ZGRkZGRjsiIGQ9Ik0wLDcyLjMyaDEuMTZ2LTQuNTlsMS44LDQgICAgICBjMC4yMiwwLjQ5LDAuNTEsMC42NiwxLjA4LDAuNjZzMC44NS0wLjE3LDEuMDYtMC42NmwxLjgtNHY0LjU5aDEuMTZ2LTQuNThjMC0wLjQ1LTAuMTctMC42Ny0wLjU0LTAuNzggICAgICBjLTAuODktMC4yNy0xLjQ4LTAuMDQtMS43NSwwLjU2TDQsNzEuNDdsLTEuNzEtMy45NWMtMC4yNS0wLjYtMC44Ni0wLjgzLTEuNzQtMC41NkMwLjE4LDY3LjA3LDAsNjcuMjksMCw2Ny43NFY3Mi4zMnoiLz4mI3hhOwkJCTwvZz4mI3hhOwkJCTxnIGlkPSJzaGFwZTExMDcwLTY5IiB0cmFuc2Zvcm09InRyYW5zbGF0ZSgxMC45NDE5LC02LjMyMTIpIj4mI3hhOwkJCQk8dGl0bGUgaWQ9InRpdGxlMjYwMjM3Ij5TaGVldC4xMTA3MDwvdGl0bGU+JiN4YTsJCQkJPGcgaWQ9InNoYWRvdzExMDcwLTcwIiB0cmFuc2Zvcm09InRyYW5zbGF0ZSgwLjM0NTYsMS45NzI4KSI+JiN4YTsJCQkJCTxnIGlkPSJwYXRoMjYwMjM5IiBpbmtzY2FwZTpjb25uZWN0b3ItY3VydmF0dXJlPSIwIiBzdHlsZT0iZmlsdGVyOnVybCgjZmlsdGVyXzIpOyI+JiN4YTsJCQkJCQk8cGF0aCBzdHlsZT0ib3BhY2l0eTowLjIyO2ZpbGw6IzVCOUJENTsiIGQ9Ik0wLDY3LjAzaDEuMTZ2Mi41M2MtMC4wMSwwLjEzLDAuMDUsMC40NiwwLjY4LDAuNDdjMC4zMywwLDIuNTEsMCwyLjUzLDB2LTMuMDIgICAgICAgIGgxLjE3YzAsMCwwLDQuMTEsMCw0LjEzYzAsMS4wMS0xLjI2LDEuMjMtMS44NCwxLjI1SDAuMDN2LTAuNzhIMy43YzAuNzUtMC4wOCwwLjY2LTAuNDUsMC42Ni0wLjU4di0wLjNIMS44OSAgICAgICAgQzAuNzQsNzAuNzIsMC4wMSw3MC4yMSwwLDY5LjY0QzAsNjkuNTgsMC4wMyw2Ny4wNSwwLDY3LjAzeiIvPiYjeGE7CQkJCQk8L2c+JiN4YTsJCQkJPC9nPiYjeGE7CQkJCTxwYXRoIGlkPSJwYXRoMjYwMjQyIiBpbmtzY2FwZTpjb25uZWN0b3ItY3VydmF0dXJlPSIwIiBzdHlsZT0iZmlsbDojRkZGRkZGOyIgZD0iTTAsNjcuMDNoMS4xNnYyLjUzICAgICAgYy0wLjAxLDAuMTMsMC4wNSwwLjQ2LDAuNjgsMC40N2MwLjMzLDAsMi41MSwwLDIuNTMsMHYtMy4wMmgxLjE3YzAsMCwwLDQuMTEsMCw0LjEzYzAsMS4wMS0xLjI2LDEuMjMtMS44NCwxLjI1SDAuMDN2LTAuNzhIMy43ICAgICAgYzAuNzUtMC4wOCwwLjY2LTAuNDUsMC42Ni0wLjU4di0wLjNIMS44OUMwLjc0LDcwLjcyLDAuMDEsNzAuMjEsMCw2OS42NEMwLDY5LjU4LDAuMDMsNjcuMDUsMCw2Ny4wM3oiLz4mI3hhOwkJCTwvZz4mI3hhOwkJPC9nPiYjeGE7CTwvZz4mI3hhOzwvZz4mI3hhOzwvc3ZnPg==;" vertex="1" parent="1">
          <mxGeometry x="360" y="680" width="48" height="71" as="geometry" />
        </mxCell>
        <mxCell id="ogB1OXXyy9iU-GvDi_hn-17" value="Storage" style="text;html=1;align=center;verticalAlign=middle;whiteSpace=wrap;rounded=0;fontStyle=1;fontSize=16;" vertex="1" parent="1">
          <mxGeometry x="70" y="530" width="110" height="30" as="geometry" />
        </mxCell>
        <mxCell id="ogB1OXXyy9iU-GvDi_hn-18" value="R01" style="shape=image;verticalLabelPosition=bottom;labelBackgroundColor=#ffffff;verticalAlign=top;aspect=fixed;imageAspect=0;image=data:image/svg+xml,PHN2ZyB4bWxuczpjYz0iaHR0cDovL2NyZWF0aXZlY29tbW9ucy5vcmcvbnMjIiB4bWxuczpkYz0iaHR0cDovL3B1cmwub3JnL2RjL2VsZW1lbnRzLzEuMS8iIHhtbG5zOmlua3NjYXBlPSJodHRwOi8vd3d3Lmlua3NjYXBlLm9yZy9uYW1lc3BhY2VzL2lua3NjYXBlIiB4bWxuczpyZGY9Imh0dHA6Ly93d3cudzMub3JnLzE5OTkvMDIvMjItcmRmLXN5bnRheC1ucyMiIHhtbG5zOnNvZGlwb2RpPSJodHRwOi8vc29kaXBvZGkuc291cmNlZm9yZ2UubmV0L0RURC9zb2RpcG9kaS0wLmR0ZCIgeG1sbnM6c3ZnPSJodHRwOi8vd3d3LnczLm9yZy8yMDAwL3N2ZyIgeG1sbnM9Imh0dHA6Ly93d3cudzMub3JnLzIwMDAvc3ZnIiB4bWxuczp4bGluaz0iaHR0cDovL3d3dy53My5vcmcvMTk5OS94bGluayIgdmVyc2lvbj0iMS4xIiBpZD0ic3ZnMjU4NTk0IiBpbmtzY2FwZTp2ZXJzaW9uPSIwLjkyLjMgKDI0MDU1NDYsIDIwMTgtMDMtMTEpIiBzb2RpcG9kaTpkb2NuYW1lPSJnZW5lcmljX3NlcnZlci5zdmciIHg9IjBweCIgeT0iMHB4IiB2aWV3Qm94PSIwIDAgNDguNDEgNjkuNzYiIHN0eWxlPSJlbmFibGUtYmFja2dyb3VuZDpuZXcgMCAwIDQ4LjQxIDY5Ljc2OyIgeG1sOnNwYWNlPSJwcmVzZXJ2ZSI+JiN4YTs8c29kaXBvZGk6bmFtZWR2aWV3IGJvcmRlcmNvbG9yPSIjNjY2NjY2IiBib3JkZXJvcGFjaXR5PSIxIiBmaXQtbWFyZ2luLWJvdHRvbT0iMCIgZml0LW1hcmdpbi1sZWZ0PSIwIiBmaXQtbWFyZ2luLXJpZ2h0PSIwIiBmaXQtbWFyZ2luLXRvcD0iMCIgZ3JpZHRvbGVyYW5jZT0iMTAiIGd1aWRldG9sZXJhbmNlPSIxMCIgaWQ9Im5hbWVkdmlldzI1ODU5NiIgaW5rc2NhcGU6Y3VycmVudC1sYXllcj0ic3ZnMjU4NTk0IiBpbmtzY2FwZTpjeD0iMzIuMTkwODk3IiBpbmtzY2FwZTpjeT0iNDYuNTA4MzQ2IiBpbmtzY2FwZTpwYWdlb3BhY2l0eT0iMCIgaW5rc2NhcGU6cGFnZXNoYWRvdz0iMiIgaW5rc2NhcGU6d2luZG93LWhlaWdodD0iMTAxNyIgaW5rc2NhcGU6d2luZG93LW1heGltaXplZD0iMSIgaW5rc2NhcGU6d2luZG93LXdpZHRoPSIxOTIwIiBpbmtzY2FwZTp3aW5kb3cteD0iLTgiIGlua3NjYXBlOndpbmRvdy15PSItOCIgaW5rc2NhcGU6em9vbT0iOS4xMjUzNjg5IiBvYmplY3R0b2xlcmFuY2U9IjEwIiBwYWdlY29sb3I9IiNmZmZmZmYiIHNob3dncmlkPSJmYWxzZSI+JiN4YTsJPC9zb2RpcG9kaTpuYW1lZHZpZXc+JiN4YTs8ZyBpZD0iZzI1ODU5MiIgdHJhbnNmb3JtPSJ0cmFuc2xhdGUoLTAuNzUsLTAuNzUwMDM4NzgpIj4mI3hhOwk8dGl0bGUgaWQ9InRpdGxlMjU4NTExIj5QYWdlLTE8L3RpdGxlPiYjeGE7CTxnIGlkPSJncm91cDEwODY2LTEiIHRyYW5zZm9ybT0idHJhbnNsYXRlKDEuNSwtMS41KSI+JiN4YTsJCTx0aXRsZSBpZD0idGl0bGUyNTg1MTMiPkdlbmVyaWMgU2VydmVyPC90aXRsZT4mI3hhOwkJPGcgaWQ9Imdyb3VwMTA4NjctMiIgdHJhbnNmb3JtPSJ0cmFuc2xhdGUoMCwtMC4wMDczOTg3NikiPiYjeGE7CQkJPHRpdGxlIGlkPSJ0aXRsZTI1ODUxNSI+ZzE1NDMzLjExNzIxPC90aXRsZT4mI3hhOwkJCTxnIGlkPSJzaGFwZTEwODY4LTMiPiYjeGE7CQkJCTx0aXRsZSBpZD0idGl0bGUyNTg1MTciPnJlY3QxNTQwNTwvdGl0bGU+JiN4YTsJCQkJJiN4YTsJCQkJCTxyZWN0IGlkPSJyZWN0MjU4NTE5IiB5PSIzLjAxIiBzdHlsZT0iZmlsbDojRkZGRkZGO3N0cm9rZTojNTU2QThBO3N0cm9rZS13aWR0aDoxLjU7c3Ryb2tlLW1pdGVybGltaXQ6MzsiIHdpZHRoPSIzOS43NSIgaGVpZ2h0PSI2OC4yNSIvPiYjeGE7CQkJPC9nPiYjeGE7CQkJPGcgaWQ9Imdyb3VwMTA4NjktNSIgdHJhbnNmb3JtPSJ0cmFuc2xhdGUoMS41LC0wLjc1KSI+JiN4YTsJCQkJPHRpdGxlIGlkPSJ0aXRsZTI1ODUyMiI+ZzE1NDI1PC90aXRsZT4mI3hhOwkJCQk8ZyBpZD0ic2hhcGUxMDg3MC02IiB0cmFuc2Zvcm09InRyYW5zbGF0ZSgxOCkiPiYjeGE7CQkJCQk8dGl0bGUgaWQ9InRpdGxlMjU4NTI0Ij5yZWN0MTU0MDc8L3RpdGxlPiYjeGE7CQkJCQk8cmVjdCBpZD0icmVjdDI1ODUyNiIgeT0iNC41MSIgc3R5bGU9ImZpbGw6I0U1RTVFNTsiIHdpZHRoPSIxOS41IiBoZWlnaHQ9IjY2Ljc1Ii8+JiN4YTsJCQkJPC9nPiYjeGE7CQkJCTxnIGlkPSJzaGFwZTEwODcxLTgiIHRyYW5zZm9ybT0idHJhbnNsYXRlKDAsLTQ4KSI+JiN4YTsJCQkJCTx0aXRsZSBpZD0idGl0bGUyNTg1MjkiPnJlY3QxNTQwOTwvdGl0bGU+JiN4YTsJCQkJCTxyZWN0IGlkPSJyZWN0MjU4NTMxIiB5PSI2OS4wMSIgc3R5bGU9ImZpbGw6IzJCQzdGNDsiIHdpZHRoPSIxOCIgaGVpZ2h0PSIyLjI1Ii8+JiN4YTsJCQkJPC9nPiYjeGE7CQkJCTxnIGlkPSJzaGFwZTEwODcyLTEwIiB0cmFuc2Zvcm09InRyYW5zbGF0ZSgwLC01OC41KSI+JiN4YTsJCQkJCTx0aXRsZSBpZD0idGl0bGUyNTg1MzQiPnBvbHlnb24xNTQxMTwvdGl0bGU+JiN4YTsJCQkJCTxyZWN0IGlkPSJyZWN0MjU4NTM2IiB5PSI2OS4wMSIgc3R5bGU9ImZpbGw6bm9uZTsiIHdpZHRoPSIyNyIgaGVpZ2h0PSIyLjI1Ii8+JiN4YTsJCQkJPC9nPiYjeGE7CQkJCTxnIGlkPSJzaGFwZTEwODczLTEyIiB0cmFuc2Zvcm09InRyYW5zbGF0ZSgwLC01OC41KSI+JiN4YTsJCQkJCTx0aXRsZSBpZD0idGl0bGUyNTg1MzkiPnBvbHlsaW5lMTU0MTM8L3RpdGxlPiYjeGE7CQkJCQk8cmVjdCBpZD0icmVjdDI1ODU0MSIgeT0iNjkuMDEiIHN0eWxlPSJmaWxsOm5vbmU7IiB3aWR0aD0iMjciIGhlaWdodD0iMi4yNSIvPiYjeGE7CQkJCTwvZz4mI3hhOwkJCQk8ZyBpZD0ic2hhcGUxMDg3NC0xNCIgdHJhbnNmb3JtPSJ0cmFuc2xhdGUoMCwtNTMuMjUpIj4mI3hhOwkJCQkJPHRpdGxlIGlkPSJ0aXRsZTI1ODU0NCI+cmVjdDE1NDE1PC90aXRsZT4mI3hhOwkJCQkJPHJlY3QgaWQ9InJlY3QyNTg1NDYiIHk9IjY5LjAxIiBzdHlsZT0iZmlsbDojMkJDN0Y0OyIgd2lkdGg9IjE4IiBoZWlnaHQ9IjIuMjUiLz4mI3hhOwkJCQk8L2c+JiN4YTsJCQkJPGcgaWQ9InNoYXBlMTA4NzUtMTYiIHRyYW5zZm9ybT0idHJhbnNsYXRlKDAsLTU4LjUpIj4mI3hhOwkJCQkJPHRpdGxlIGlkPSJ0aXRsZTI1ODU0OSI+cmVjdDE1NDE3PC90aXRsZT4mI3hhOwkJCQkJPHJlY3QgaWQ9InJlY3QyNTg1NTEiIHk9IjY5LjAxIiBzdHlsZT0iZmlsbDojMkJDN0Y0OyIgd2lkdGg9IjE4IiBoZWlnaHQ9IjIuMjUiLz4mI3hhOwkJCQk8L2c+JiN4YTsJCQkJPGcgaWQ9InNoYXBlMTA4NzYtMTgiIHRyYW5zZm9ybT0idHJhbnNsYXRlKDE4LC00OCkiPiYjeGE7CQkJCQk8dGl0bGUgaWQ9InRpdGxlMjU4NTU0Ij5yZWN0MTU0MTk8L3RpdGxlPiYjeGE7CQkJCQk8cmVjdCBpZD0icmVjdDI1ODU1NiIgeT0iNjkuMDEiIHN0eWxlPSJmaWxsOiM1NTZBOEE7IiB3aWR0aD0iMTkuNSIgaGVpZ2h0PSIyLjI1Ii8+JiN4YTsJCQkJPC9nPiYjeGE7CQkJCTxnIGlkPSJzaGFwZTEwODc3LTIwIiB0cmFuc2Zvcm09InRyYW5zbGF0ZSgxOCwtNTMuMjUpIj4mI3hhOwkJCQkJPHRpdGxlIGlkPSJ0aXRsZTI1ODU1OSI+cmVjdDE1NDIxPC90aXRsZT4mI3hhOwkJCQkJPHJlY3QgaWQ9InJlY3QyNTg1NjEiIHk9IjY5LjAxIiBzdHlsZT0iZmlsbDojNTU2QThBOyIgd2lkdGg9IjE5LjUiIGhlaWdodD0iMi4yNSIvPiYjeGE7CQkJCTwvZz4mI3hhOwkJCQk8ZyBpZD0ic2hhcGUxMDg3OC0yMiIgdHJhbnNmb3JtPSJ0cmFuc2xhdGUoMTgsLTU4LjUpIj4mI3hhOwkJCQkJPHRpdGxlIGlkPSJ0aXRsZTI1ODU2NCI+cmVjdDE1NDIzPC90aXRsZT4mI3hhOwkJCQkJPHJlY3QgaWQ9InJlY3QyNTg1NjYiIHk9IjY5LjAxIiBzdHlsZT0iZmlsbDojNTU2QThBOyIgd2lkdGg9IjE5LjUiIGhlaWdodD0iMi4yNSIvPiYjeGE7CQkJCTwvZz4mI3hhOwkJCTwvZz4mI3hhOwkJCTxnIGlkPSJzaGFwZTEwODc5LTI0IiB0cmFuc2Zvcm09InRyYW5zbGF0ZSgwLjc1LC01OS4yNSkiPiYjeGE7CQkJCTx0aXRsZSBpZD0idGl0bGUyNTg1NzAiPnJlY3QxNTQyNzwvdGl0bGU+JiN4YTsJCQkJPHJlY3QgaWQ9InJlY3QyNTg1NzIiIHk9IjY5LjAxIiBzdHlsZT0iZmlsbDojNTU2QThBOyIgd2lkdGg9IjIuMjUiIGhlaWdodD0iMi4yNSIvPiYjeGE7CQkJPC9nPiYjeGE7CQkJPGcgaWQ9InNoYXBlMTA4ODAtMjYiIHRyYW5zZm9ybT0idHJhbnNsYXRlKDAuNzUsLTU0KSI+JiN4YTsJCQkJPHRpdGxlIGlkPSJ0aXRsZTI1ODU3NSI+cmVjdDE1NDI5PC90aXRsZT4mI3hhOwkJCQk8cmVjdCBpZD0icmVjdDI1ODU3NyIgeT0iNjkuMDEiIHN0eWxlPSJmaWxsOiM1NTZBOEE7IiB3aWR0aD0iMi4yNSIgaGVpZ2h0PSIyLjI1Ii8+JiN4YTsJCQk8L2c+JiN4YTsJCQk8ZyBpZD0ic2hhcGUxMDg4MS0yOCIgdHJhbnNmb3JtPSJ0cmFuc2xhdGUoMC43NSwtNDguNzUpIj4mI3hhOwkJCQk8dGl0bGUgaWQ9InRpdGxlMjU4NTgwIj5yZWN0MTU0MzE8L3RpdGxlPiYjeGE7CQkJCTxyZWN0IGlkPSJyZWN0MjU4NTgyIiB5PSI2OS4wMSIgc3R5bGU9ImZpbGw6IzU1NkE4QTsiIHdpZHRoPSIyLjI1IiBoZWlnaHQ9IjIuMjUiLz4mI3hhOwkJCTwvZz4mI3hhOwkJPC9nPiYjeGE7CQk8ZyBpZD0ic2hhcGUxMDg4Mi0zMCIgdHJhbnNmb3JtPSJ0cmFuc2xhdGUoMTMuNjk4MykiPiYjeGE7CQkJPHRpdGxlIGlkPSJ0aXRsZTI1ODU4NiI+cG9seWdvbjE1NDM1LjExNzM3PC90aXRsZT4mI3hhOwkJCSYjeGE7CQkJCTxwYXRoIGlkPSJwYXRoMjU4NTg4IiBpbmtzY2FwZTpjb25uZWN0b3ItY3VydmF0dXJlPSIwIiBzdHlsZT0iZmlsbDojRkZGRkZGO3N0cm9rZTojNTU2QThBO3N0cm9rZS13aWR0aDoxLjU7c3Ryb2tlLW1pdGVybGltaXQ6MzsiIGQ9IiAgICAgTTguMjcsNzEuMjZMMCw1Ny4wMmw4LjI3LTE0LjIzaDE2LjU1bDguMjcsMTQuMjNsLTguMjcsMTQuMjRIOC4yN3oiLz4mI3hhOwkJPC9nPiYjeGE7CTwvZz4mI3hhOzwvZz4mI3hhOzwvc3ZnPg==;" vertex="1" parent="1">
          <mxGeometry x="240" y="400" width="48" height="70" as="geometry" />
        </mxCell>
        <mxCell id="ogB1OXXyy9iU-GvDi_hn-19" value="SERVER" style="text;html=1;align=center;verticalAlign=middle;whiteSpace=wrap;rounded=0;fontStyle=1;fontSize=16;" vertex="1" parent="1">
          <mxGeometry x="70" y="400" width="110" height="30" as="geometry" />
        </mxCell>
        <mxCell id="ogB1OXXyy9iU-GvDi_hn-20" value="R02" style="shape=image;verticalLabelPosition=bottom;labelBackgroundColor=#ffffff;verticalAlign=top;aspect=fixed;imageAspect=0;image=data:image/svg+xml,PHN2ZyB4bWxuczpjYz0iaHR0cDovL2NyZWF0aXZlY29tbW9ucy5vcmcvbnMjIiB4bWxuczpkYz0iaHR0cDovL3B1cmwub3JnL2RjL2VsZW1lbnRzLzEuMS8iIHhtbG5zOmlua3NjYXBlPSJodHRwOi8vd3d3Lmlua3NjYXBlLm9yZy9uYW1lc3BhY2VzL2lua3NjYXBlIiB4bWxuczpyZGY9Imh0dHA6Ly93d3cudzMub3JnLzE5OTkvMDIvMjItcmRmLXN5bnRheC1ucyMiIHhtbG5zOnNvZGlwb2RpPSJodHRwOi8vc29kaXBvZGkuc291cmNlZm9yZ2UubmV0L0RURC9zb2RpcG9kaS0wLmR0ZCIgeG1sbnM6c3ZnPSJodHRwOi8vd3d3LnczLm9yZy8yMDAwL3N2ZyIgeG1sbnM9Imh0dHA6Ly93d3cudzMub3JnLzIwMDAvc3ZnIiB4bWxuczp4bGluaz0iaHR0cDovL3d3dy53My5vcmcvMTk5OS94bGluayIgdmVyc2lvbj0iMS4xIiBpZD0ic3ZnMjU4NTk0IiBpbmtzY2FwZTp2ZXJzaW9uPSIwLjkyLjMgKDI0MDU1NDYsIDIwMTgtMDMtMTEpIiBzb2RpcG9kaTpkb2NuYW1lPSJnZW5lcmljX3NlcnZlci5zdmciIHg9IjBweCIgeT0iMHB4IiB2aWV3Qm94PSIwIDAgNDguNDEgNjkuNzYiIHN0eWxlPSJlbmFibGUtYmFja2dyb3VuZDpuZXcgMCAwIDQ4LjQxIDY5Ljc2OyIgeG1sOnNwYWNlPSJwcmVzZXJ2ZSI+JiN4YTs8c29kaXBvZGk6bmFtZWR2aWV3IGJvcmRlcmNvbG9yPSIjNjY2NjY2IiBib3JkZXJvcGFjaXR5PSIxIiBmaXQtbWFyZ2luLWJvdHRvbT0iMCIgZml0LW1hcmdpbi1sZWZ0PSIwIiBmaXQtbWFyZ2luLXJpZ2h0PSIwIiBmaXQtbWFyZ2luLXRvcD0iMCIgZ3JpZHRvbGVyYW5jZT0iMTAiIGd1aWRldG9sZXJhbmNlPSIxMCIgaWQ9Im5hbWVkdmlldzI1ODU5NiIgaW5rc2NhcGU6Y3VycmVudC1sYXllcj0ic3ZnMjU4NTk0IiBpbmtzY2FwZTpjeD0iMzIuMTkwODk3IiBpbmtzY2FwZTpjeT0iNDYuNTA4MzQ2IiBpbmtzY2FwZTpwYWdlb3BhY2l0eT0iMCIgaW5rc2NhcGU6cGFnZXNoYWRvdz0iMiIgaW5rc2NhcGU6d2luZG93LWhlaWdodD0iMTAxNyIgaW5rc2NhcGU6d2luZG93LW1heGltaXplZD0iMSIgaW5rc2NhcGU6d2luZG93LXdpZHRoPSIxOTIwIiBpbmtzY2FwZTp3aW5kb3cteD0iLTgiIGlua3NjYXBlOndpbmRvdy15PSItOCIgaW5rc2NhcGU6em9vbT0iOS4xMjUzNjg5IiBvYmplY3R0b2xlcmFuY2U9IjEwIiBwYWdlY29sb3I9IiNmZmZmZmYiIHNob3dncmlkPSJmYWxzZSI+JiN4YTsJPC9zb2RpcG9kaTpuYW1lZHZpZXc+JiN4YTs8ZyBpZD0iZzI1ODU5MiIgdHJhbnNmb3JtPSJ0cmFuc2xhdGUoLTAuNzUsLTAuNzUwMDM4NzgpIj4mI3hhOwk8dGl0bGUgaWQ9InRpdGxlMjU4NTExIj5QYWdlLTE8L3RpdGxlPiYjeGE7CTxnIGlkPSJncm91cDEwODY2LTEiIHRyYW5zZm9ybT0idHJhbnNsYXRlKDEuNSwtMS41KSI+JiN4YTsJCTx0aXRsZSBpZD0idGl0bGUyNTg1MTMiPkdlbmVyaWMgU2VydmVyPC90aXRsZT4mI3hhOwkJPGcgaWQ9Imdyb3VwMTA4NjctMiIgdHJhbnNmb3JtPSJ0cmFuc2xhdGUoMCwtMC4wMDczOTg3NikiPiYjeGE7CQkJPHRpdGxlIGlkPSJ0aXRsZTI1ODUxNSI+ZzE1NDMzLjExNzIxPC90aXRsZT4mI3hhOwkJCTxnIGlkPSJzaGFwZTEwODY4LTMiPiYjeGE7CQkJCTx0aXRsZSBpZD0idGl0bGUyNTg1MTciPnJlY3QxNTQwNTwvdGl0bGU+JiN4YTsJCQkJJiN4YTsJCQkJCTxyZWN0IGlkPSJyZWN0MjU4NTE5IiB5PSIzLjAxIiBzdHlsZT0iZmlsbDojRkZGRkZGO3N0cm9rZTojNTU2QThBO3N0cm9rZS13aWR0aDoxLjU7c3Ryb2tlLW1pdGVybGltaXQ6MzsiIHdpZHRoPSIzOS43NSIgaGVpZ2h0PSI2OC4yNSIvPiYjeGE7CQkJPC9nPiYjeGE7CQkJPGcgaWQ9Imdyb3VwMTA4NjktNSIgdHJhbnNmb3JtPSJ0cmFuc2xhdGUoMS41LC0wLjc1KSI+JiN4YTsJCQkJPHRpdGxlIGlkPSJ0aXRsZTI1ODUyMiI+ZzE1NDI1PC90aXRsZT4mI3hhOwkJCQk8ZyBpZD0ic2hhcGUxMDg3MC02IiB0cmFuc2Zvcm09InRyYW5zbGF0ZSgxOCkiPiYjeGE7CQkJCQk8dGl0bGUgaWQ9InRpdGxlMjU4NTI0Ij5yZWN0MTU0MDc8L3RpdGxlPiYjeGE7CQkJCQk8cmVjdCBpZD0icmVjdDI1ODUyNiIgeT0iNC41MSIgc3R5bGU9ImZpbGw6I0U1RTVFNTsiIHdpZHRoPSIxOS41IiBoZWlnaHQ9IjY2Ljc1Ii8+JiN4YTsJCQkJPC9nPiYjeGE7CQkJCTxnIGlkPSJzaGFwZTEwODcxLTgiIHRyYW5zZm9ybT0idHJhbnNsYXRlKDAsLTQ4KSI+JiN4YTsJCQkJCTx0aXRsZSBpZD0idGl0bGUyNTg1MjkiPnJlY3QxNTQwOTwvdGl0bGU+JiN4YTsJCQkJCTxyZWN0IGlkPSJyZWN0MjU4NTMxIiB5PSI2OS4wMSIgc3R5bGU9ImZpbGw6IzJCQzdGNDsiIHdpZHRoPSIxOCIgaGVpZ2h0PSIyLjI1Ii8+JiN4YTsJCQkJPC9nPiYjeGE7CQkJCTxnIGlkPSJzaGFwZTEwODcyLTEwIiB0cmFuc2Zvcm09InRyYW5zbGF0ZSgwLC01OC41KSI+JiN4YTsJCQkJCTx0aXRsZSBpZD0idGl0bGUyNTg1MzQiPnBvbHlnb24xNTQxMTwvdGl0bGU+JiN4YTsJCQkJCTxyZWN0IGlkPSJyZWN0MjU4NTM2IiB5PSI2OS4wMSIgc3R5bGU9ImZpbGw6bm9uZTsiIHdpZHRoPSIyNyIgaGVpZ2h0PSIyLjI1Ii8+JiN4YTsJCQkJPC9nPiYjeGE7CQkJCTxnIGlkPSJzaGFwZTEwODczLTEyIiB0cmFuc2Zvcm09InRyYW5zbGF0ZSgwLC01OC41KSI+JiN4YTsJCQkJCTx0aXRsZSBpZD0idGl0bGUyNTg1MzkiPnBvbHlsaW5lMTU0MTM8L3RpdGxlPiYjeGE7CQkJCQk8cmVjdCBpZD0icmVjdDI1ODU0MSIgeT0iNjkuMDEiIHN0eWxlPSJmaWxsOm5vbmU7IiB3aWR0aD0iMjciIGhlaWdodD0iMi4yNSIvPiYjeGE7CQkJCTwvZz4mI3hhOwkJCQk8ZyBpZD0ic2hhcGUxMDg3NC0xNCIgdHJhbnNmb3JtPSJ0cmFuc2xhdGUoMCwtNTMuMjUpIj4mI3hhOwkJCQkJPHRpdGxlIGlkPSJ0aXRsZTI1ODU0NCI+cmVjdDE1NDE1PC90aXRsZT4mI3hhOwkJCQkJPHJlY3QgaWQ9InJlY3QyNTg1NDYiIHk9IjY5LjAxIiBzdHlsZT0iZmlsbDojMkJDN0Y0OyIgd2lkdGg9IjE4IiBoZWlnaHQ9IjIuMjUiLz4mI3hhOwkJCQk8L2c+JiN4YTsJCQkJPGcgaWQ9InNoYXBlMTA4NzUtMTYiIHRyYW5zZm9ybT0idHJhbnNsYXRlKDAsLTU4LjUpIj4mI3hhOwkJCQkJPHRpdGxlIGlkPSJ0aXRsZTI1ODU0OSI+cmVjdDE1NDE3PC90aXRsZT4mI3hhOwkJCQkJPHJlY3QgaWQ9InJlY3QyNTg1NTEiIHk9IjY5LjAxIiBzdHlsZT0iZmlsbDojMkJDN0Y0OyIgd2lkdGg9IjE4IiBoZWlnaHQ9IjIuMjUiLz4mI3hhOwkJCQk8L2c+JiN4YTsJCQkJPGcgaWQ9InNoYXBlMTA4NzYtMTgiIHRyYW5zZm9ybT0idHJhbnNsYXRlKDE4LC00OCkiPiYjeGE7CQkJCQk8dGl0bGUgaWQ9InRpdGxlMjU4NTU0Ij5yZWN0MTU0MTk8L3RpdGxlPiYjeGE7CQkJCQk8cmVjdCBpZD0icmVjdDI1ODU1NiIgeT0iNjkuMDEiIHN0eWxlPSJmaWxsOiM1NTZBOEE7IiB3aWR0aD0iMTkuNSIgaGVpZ2h0PSIyLjI1Ii8+JiN4YTsJCQkJPC9nPiYjeGE7CQkJCTxnIGlkPSJzaGFwZTEwODc3LTIwIiB0cmFuc2Zvcm09InRyYW5zbGF0ZSgxOCwtNTMuMjUpIj4mI3hhOwkJCQkJPHRpdGxlIGlkPSJ0aXRsZTI1ODU1OSI+cmVjdDE1NDIxPC90aXRsZT4mI3hhOwkJCQkJPHJlY3QgaWQ9InJlY3QyNTg1NjEiIHk9IjY5LjAxIiBzdHlsZT0iZmlsbDojNTU2QThBOyIgd2lkdGg9IjE5LjUiIGhlaWdodD0iMi4yNSIvPiYjeGE7CQkJCTwvZz4mI3hhOwkJCQk8ZyBpZD0ic2hhcGUxMDg3OC0yMiIgdHJhbnNmb3JtPSJ0cmFuc2xhdGUoMTgsLTU4LjUpIj4mI3hhOwkJCQkJPHRpdGxlIGlkPSJ0aXRsZTI1ODU2NCI+cmVjdDE1NDIzPC90aXRsZT4mI3hhOwkJCQkJPHJlY3QgaWQ9InJlY3QyNTg1NjYiIHk9IjY5LjAxIiBzdHlsZT0iZmlsbDojNTU2QThBOyIgd2lkdGg9IjE5LjUiIGhlaWdodD0iMi4yNSIvPiYjeGE7CQkJCTwvZz4mI3hhOwkJCTwvZz4mI3hhOwkJCTxnIGlkPSJzaGFwZTEwODc5LTI0IiB0cmFuc2Zvcm09InRyYW5zbGF0ZSgwLjc1LC01OS4yNSkiPiYjeGE7CQkJCTx0aXRsZSBpZD0idGl0bGUyNTg1NzAiPnJlY3QxNTQyNzwvdGl0bGU+JiN4YTsJCQkJPHJlY3QgaWQ9InJlY3QyNTg1NzIiIHk9IjY5LjAxIiBzdHlsZT0iZmlsbDojNTU2QThBOyIgd2lkdGg9IjIuMjUiIGhlaWdodD0iMi4yNSIvPiYjeGE7CQkJPC9nPiYjeGE7CQkJPGcgaWQ9InNoYXBlMTA4ODAtMjYiIHRyYW5zZm9ybT0idHJhbnNsYXRlKDAuNzUsLTU0KSI+JiN4YTsJCQkJPHRpdGxlIGlkPSJ0aXRsZTI1ODU3NSI+cmVjdDE1NDI5PC90aXRsZT4mI3hhOwkJCQk8cmVjdCBpZD0icmVjdDI1ODU3NyIgeT0iNjkuMDEiIHN0eWxlPSJmaWxsOiM1NTZBOEE7IiB3aWR0aD0iMi4yNSIgaGVpZ2h0PSIyLjI1Ii8+JiN4YTsJCQk8L2c+JiN4YTsJCQk8ZyBpZD0ic2hhcGUxMDg4MS0yOCIgdHJhbnNmb3JtPSJ0cmFuc2xhdGUoMC43NSwtNDguNzUpIj4mI3hhOwkJCQk8dGl0bGUgaWQ9InRpdGxlMjU4NTgwIj5yZWN0MTU0MzE8L3RpdGxlPiYjeGE7CQkJCTxyZWN0IGlkPSJyZWN0MjU4NTgyIiB5PSI2OS4wMSIgc3R5bGU9ImZpbGw6IzU1NkE4QTsiIHdpZHRoPSIyLjI1IiBoZWlnaHQ9IjIuMjUiLz4mI3hhOwkJCTwvZz4mI3hhOwkJPC9nPiYjeGE7CQk8ZyBpZD0ic2hhcGUxMDg4Mi0zMCIgdHJhbnNmb3JtPSJ0cmFuc2xhdGUoMTMuNjk4MykiPiYjeGE7CQkJPHRpdGxlIGlkPSJ0aXRsZTI1ODU4NiI+cG9seWdvbjE1NDM1LjExNzM3PC90aXRsZT4mI3hhOwkJCSYjeGE7CQkJCTxwYXRoIGlkPSJwYXRoMjU4NTg4IiBpbmtzY2FwZTpjb25uZWN0b3ItY3VydmF0dXJlPSIwIiBzdHlsZT0iZmlsbDojRkZGRkZGO3N0cm9rZTojNTU2QThBO3N0cm9rZS13aWR0aDoxLjU7c3Ryb2tlLW1pdGVybGltaXQ6MzsiIGQ9IiAgICAgTTguMjcsNzEuMjZMMCw1Ny4wMmw4LjI3LTE0LjIzaDE2LjU1bDguMjcsMTQuMjNsLTguMjcsMTQuMjRIOC4yN3oiLz4mI3hhOwkJPC9nPiYjeGE7CTwvZz4mI3hhOzwvZz4mI3hhOzwvc3ZnPg==;" vertex="1" parent="1">
          <mxGeometry x="356" y="400" width="48" height="70" as="geometry" />
        </mxCell>
        <mxCell id="ogB1OXXyy9iU-GvDi_hn-21" value="R03" style="shape=image;verticalLabelPosition=bottom;labelBackgroundColor=#ffffff;verticalAlign=top;aspect=fixed;imageAspect=0;image=data:image/svg+xml,PHN2ZyB4bWxuczpjYz0iaHR0cDovL2NyZWF0aXZlY29tbW9ucy5vcmcvbnMjIiB4bWxuczpkYz0iaHR0cDovL3B1cmwub3JnL2RjL2VsZW1lbnRzLzEuMS8iIHhtbG5zOmlua3NjYXBlPSJodHRwOi8vd3d3Lmlua3NjYXBlLm9yZy9uYW1lc3BhY2VzL2lua3NjYXBlIiB4bWxuczpyZGY9Imh0dHA6Ly93d3cudzMub3JnLzE5OTkvMDIvMjItcmRmLXN5bnRheC1ucyMiIHhtbG5zOnNvZGlwb2RpPSJodHRwOi8vc29kaXBvZGkuc291cmNlZm9yZ2UubmV0L0RURC9zb2RpcG9kaS0wLmR0ZCIgeG1sbnM6c3ZnPSJodHRwOi8vd3d3LnczLm9yZy8yMDAwL3N2ZyIgeG1sbnM9Imh0dHA6Ly93d3cudzMub3JnLzIwMDAvc3ZnIiB4bWxuczp4bGluaz0iaHR0cDovL3d3dy53My5vcmcvMTk5OS94bGluayIgdmVyc2lvbj0iMS4xIiBpZD0ic3ZnMjU4NTk0IiBpbmtzY2FwZTp2ZXJzaW9uPSIwLjkyLjMgKDI0MDU1NDYsIDIwMTgtMDMtMTEpIiBzb2RpcG9kaTpkb2NuYW1lPSJnZW5lcmljX3NlcnZlci5zdmciIHg9IjBweCIgeT0iMHB4IiB2aWV3Qm94PSIwIDAgNDguNDEgNjkuNzYiIHN0eWxlPSJlbmFibGUtYmFja2dyb3VuZDpuZXcgMCAwIDQ4LjQxIDY5Ljc2OyIgeG1sOnNwYWNlPSJwcmVzZXJ2ZSI+JiN4YTs8c29kaXBvZGk6bmFtZWR2aWV3IGJvcmRlcmNvbG9yPSIjNjY2NjY2IiBib3JkZXJvcGFjaXR5PSIxIiBmaXQtbWFyZ2luLWJvdHRvbT0iMCIgZml0LW1hcmdpbi1sZWZ0PSIwIiBmaXQtbWFyZ2luLXJpZ2h0PSIwIiBmaXQtbWFyZ2luLXRvcD0iMCIgZ3JpZHRvbGVyYW5jZT0iMTAiIGd1aWRldG9sZXJhbmNlPSIxMCIgaWQ9Im5hbWVkdmlldzI1ODU5NiIgaW5rc2NhcGU6Y3VycmVudC1sYXllcj0ic3ZnMjU4NTk0IiBpbmtzY2FwZTpjeD0iMzIuMTkwODk3IiBpbmtzY2FwZTpjeT0iNDYuNTA4MzQ2IiBpbmtzY2FwZTpwYWdlb3BhY2l0eT0iMCIgaW5rc2NhcGU6cGFnZXNoYWRvdz0iMiIgaW5rc2NhcGU6d2luZG93LWhlaWdodD0iMTAxNyIgaW5rc2NhcGU6d2luZG93LW1heGltaXplZD0iMSIgaW5rc2NhcGU6d2luZG93LXdpZHRoPSIxOTIwIiBpbmtzY2FwZTp3aW5kb3cteD0iLTgiIGlua3NjYXBlOndpbmRvdy15PSItOCIgaW5rc2NhcGU6em9vbT0iOS4xMjUzNjg5IiBvYmplY3R0b2xlcmFuY2U9IjEwIiBwYWdlY29sb3I9IiNmZmZmZmYiIHNob3dncmlkPSJmYWxzZSI+JiN4YTsJPC9zb2RpcG9kaTpuYW1lZHZpZXc+JiN4YTs8ZyBpZD0iZzI1ODU5MiIgdHJhbnNmb3JtPSJ0cmFuc2xhdGUoLTAuNzUsLTAuNzUwMDM4NzgpIj4mI3hhOwk8dGl0bGUgaWQ9InRpdGxlMjU4NTExIj5QYWdlLTE8L3RpdGxlPiYjeGE7CTxnIGlkPSJncm91cDEwODY2LTEiIHRyYW5zZm9ybT0idHJhbnNsYXRlKDEuNSwtMS41KSI+JiN4YTsJCTx0aXRsZSBpZD0idGl0bGUyNTg1MTMiPkdlbmVyaWMgU2VydmVyPC90aXRsZT4mI3hhOwkJPGcgaWQ9Imdyb3VwMTA4NjctMiIgdHJhbnNmb3JtPSJ0cmFuc2xhdGUoMCwtMC4wMDczOTg3NikiPiYjeGE7CQkJPHRpdGxlIGlkPSJ0aXRsZTI1ODUxNSI+ZzE1NDMzLjExNzIxPC90aXRsZT4mI3hhOwkJCTxnIGlkPSJzaGFwZTEwODY4LTMiPiYjeGE7CQkJCTx0aXRsZSBpZD0idGl0bGUyNTg1MTciPnJlY3QxNTQwNTwvdGl0bGU+JiN4YTsJCQkJJiN4YTsJCQkJCTxyZWN0IGlkPSJyZWN0MjU4NTE5IiB5PSIzLjAxIiBzdHlsZT0iZmlsbDojRkZGRkZGO3N0cm9rZTojNTU2QThBO3N0cm9rZS13aWR0aDoxLjU7c3Ryb2tlLW1pdGVybGltaXQ6MzsiIHdpZHRoPSIzOS43NSIgaGVpZ2h0PSI2OC4yNSIvPiYjeGE7CQkJPC9nPiYjeGE7CQkJPGcgaWQ9Imdyb3VwMTA4NjktNSIgdHJhbnNmb3JtPSJ0cmFuc2xhdGUoMS41LC0wLjc1KSI+JiN4YTsJCQkJPHRpdGxlIGlkPSJ0aXRsZTI1ODUyMiI+ZzE1NDI1PC90aXRsZT4mI3hhOwkJCQk8ZyBpZD0ic2hhcGUxMDg3MC02IiB0cmFuc2Zvcm09InRyYW5zbGF0ZSgxOCkiPiYjeGE7CQkJCQk8dGl0bGUgaWQ9InRpdGxlMjU4NTI0Ij5yZWN0MTU0MDc8L3RpdGxlPiYjeGE7CQkJCQk8cmVjdCBpZD0icmVjdDI1ODUyNiIgeT0iNC41MSIgc3R5bGU9ImZpbGw6I0U1RTVFNTsiIHdpZHRoPSIxOS41IiBoZWlnaHQ9IjY2Ljc1Ii8+JiN4YTsJCQkJPC9nPiYjeGE7CQkJCTxnIGlkPSJzaGFwZTEwODcxLTgiIHRyYW5zZm9ybT0idHJhbnNsYXRlKDAsLTQ4KSI+JiN4YTsJCQkJCTx0aXRsZSBpZD0idGl0bGUyNTg1MjkiPnJlY3QxNTQwOTwvdGl0bGU+JiN4YTsJCQkJCTxyZWN0IGlkPSJyZWN0MjU4NTMxIiB5PSI2OS4wMSIgc3R5bGU9ImZpbGw6IzJCQzdGNDsiIHdpZHRoPSIxOCIgaGVpZ2h0PSIyLjI1Ii8+JiN4YTsJCQkJPC9nPiYjeGE7CQkJCTxnIGlkPSJzaGFwZTEwODcyLTEwIiB0cmFuc2Zvcm09InRyYW5zbGF0ZSgwLC01OC41KSI+JiN4YTsJCQkJCTx0aXRsZSBpZD0idGl0bGUyNTg1MzQiPnBvbHlnb24xNTQxMTwvdGl0bGU+JiN4YTsJCQkJCTxyZWN0IGlkPSJyZWN0MjU4NTM2IiB5PSI2OS4wMSIgc3R5bGU9ImZpbGw6bm9uZTsiIHdpZHRoPSIyNyIgaGVpZ2h0PSIyLjI1Ii8+JiN4YTsJCQkJPC9nPiYjeGE7CQkJCTxnIGlkPSJzaGFwZTEwODczLTEyIiB0cmFuc2Zvcm09InRyYW5zbGF0ZSgwLC01OC41KSI+JiN4YTsJCQkJCTx0aXRsZSBpZD0idGl0bGUyNTg1MzkiPnBvbHlsaW5lMTU0MTM8L3RpdGxlPiYjeGE7CQkJCQk8cmVjdCBpZD0icmVjdDI1ODU0MSIgeT0iNjkuMDEiIHN0eWxlPSJmaWxsOm5vbmU7IiB3aWR0aD0iMjciIGhlaWdodD0iMi4yNSIvPiYjeGE7CQkJCTwvZz4mI3hhOwkJCQk8ZyBpZD0ic2hhcGUxMDg3NC0xNCIgdHJhbnNmb3JtPSJ0cmFuc2xhdGUoMCwtNTMuMjUpIj4mI3hhOwkJCQkJPHRpdGxlIGlkPSJ0aXRsZTI1ODU0NCI+cmVjdDE1NDE1PC90aXRsZT4mI3hhOwkJCQkJPHJlY3QgaWQ9InJlY3QyNTg1NDYiIHk9IjY5LjAxIiBzdHlsZT0iZmlsbDojMkJDN0Y0OyIgd2lkdGg9IjE4IiBoZWlnaHQ9IjIuMjUiLz4mI3hhOwkJCQk8L2c+JiN4YTsJCQkJPGcgaWQ9InNoYXBlMTA4NzUtMTYiIHRyYW5zZm9ybT0idHJhbnNsYXRlKDAsLTU4LjUpIj4mI3hhOwkJCQkJPHRpdGxlIGlkPSJ0aXRsZTI1ODU0OSI+cmVjdDE1NDE3PC90aXRsZT4mI3hhOwkJCQkJPHJlY3QgaWQ9InJlY3QyNTg1NTEiIHk9IjY5LjAxIiBzdHlsZT0iZmlsbDojMkJDN0Y0OyIgd2lkdGg9IjE4IiBoZWlnaHQ9IjIuMjUiLz4mI3hhOwkJCQk8L2c+JiN4YTsJCQkJPGcgaWQ9InNoYXBlMTA4NzYtMTgiIHRyYW5zZm9ybT0idHJhbnNsYXRlKDE4LC00OCkiPiYjeGE7CQkJCQk8dGl0bGUgaWQ9InRpdGxlMjU4NTU0Ij5yZWN0MTU0MTk8L3RpdGxlPiYjeGE7CQkJCQk8cmVjdCBpZD0icmVjdDI1ODU1NiIgeT0iNjkuMDEiIHN0eWxlPSJmaWxsOiM1NTZBOEE7IiB3aWR0aD0iMTkuNSIgaGVpZ2h0PSIyLjI1Ii8+JiN4YTsJCQkJPC9nPiYjeGE7CQkJCTxnIGlkPSJzaGFwZTEwODc3LTIwIiB0cmFuc2Zvcm09InRyYW5zbGF0ZSgxOCwtNTMuMjUpIj4mI3hhOwkJCQkJPHRpdGxlIGlkPSJ0aXRsZTI1ODU1OSI+cmVjdDE1NDIxPC90aXRsZT4mI3hhOwkJCQkJPHJlY3QgaWQ9InJlY3QyNTg1NjEiIHk9IjY5LjAxIiBzdHlsZT0iZmlsbDojNTU2QThBOyIgd2lkdGg9IjE5LjUiIGhlaWdodD0iMi4yNSIvPiYjeGE7CQkJCTwvZz4mI3hhOwkJCQk8ZyBpZD0ic2hhcGUxMDg3OC0yMiIgdHJhbnNmb3JtPSJ0cmFuc2xhdGUoMTgsLTU4LjUpIj4mI3hhOwkJCQkJPHRpdGxlIGlkPSJ0aXRsZTI1ODU2NCI+cmVjdDE1NDIzPC90aXRsZT4mI3hhOwkJCQkJPHJlY3QgaWQ9InJlY3QyNTg1NjYiIHk9IjY5LjAxIiBzdHlsZT0iZmlsbDojNTU2QThBOyIgd2lkdGg9IjE5LjUiIGhlaWdodD0iMi4yNSIvPiYjeGE7CQkJCTwvZz4mI3hhOwkJCTwvZz4mI3hhOwkJCTxnIGlkPSJzaGFwZTEwODc5LTI0IiB0cmFuc2Zvcm09InRyYW5zbGF0ZSgwLjc1LC01OS4yNSkiPiYjeGE7CQkJCTx0aXRsZSBpZD0idGl0bGUyNTg1NzAiPnJlY3QxNTQyNzwvdGl0bGU+JiN4YTsJCQkJPHJlY3QgaWQ9InJlY3QyNTg1NzIiIHk9IjY5LjAxIiBzdHlsZT0iZmlsbDojNTU2QThBOyIgd2lkdGg9IjIuMjUiIGhlaWdodD0iMi4yNSIvPiYjeGE7CQkJPC9nPiYjeGE7CQkJPGcgaWQ9InNoYXBlMTA4ODAtMjYiIHRyYW5zZm9ybT0idHJhbnNsYXRlKDAuNzUsLTU0KSI+JiN4YTsJCQkJPHRpdGxlIGlkPSJ0aXRsZTI1ODU3NSI+cmVjdDE1NDI5PC90aXRsZT4mI3hhOwkJCQk8cmVjdCBpZD0icmVjdDI1ODU3NyIgeT0iNjkuMDEiIHN0eWxlPSJmaWxsOiM1NTZBOEE7IiB3aWR0aD0iMi4yNSIgaGVpZ2h0PSIyLjI1Ii8+JiN4YTsJCQk8L2c+JiN4YTsJCQk8ZyBpZD0ic2hhcGUxMDg4MS0yOCIgdHJhbnNmb3JtPSJ0cmFuc2xhdGUoMC43NSwtNDguNzUpIj4mI3hhOwkJCQk8dGl0bGUgaWQ9InRpdGxlMjU4NTgwIj5yZWN0MTU0MzE8L3RpdGxlPiYjeGE7CQkJCTxyZWN0IGlkPSJyZWN0MjU4NTgyIiB5PSI2OS4wMSIgc3R5bGU9ImZpbGw6IzU1NkE4QTsiIHdpZHRoPSIyLjI1IiBoZWlnaHQ9IjIuMjUiLz4mI3hhOwkJCTwvZz4mI3hhOwkJPC9nPiYjeGE7CQk8ZyBpZD0ic2hhcGUxMDg4Mi0zMCIgdHJhbnNmb3JtPSJ0cmFuc2xhdGUoMTMuNjk4MykiPiYjeGE7CQkJPHRpdGxlIGlkPSJ0aXRsZTI1ODU4NiI+cG9seWdvbjE1NDM1LjExNzM3PC90aXRsZT4mI3hhOwkJCSYjeGE7CQkJCTxwYXRoIGlkPSJwYXRoMjU4NTg4IiBpbmtzY2FwZTpjb25uZWN0b3ItY3VydmF0dXJlPSIwIiBzdHlsZT0iZmlsbDojRkZGRkZGO3N0cm9rZTojNTU2QThBO3N0cm9rZS13aWR0aDoxLjU7c3Ryb2tlLW1pdGVybGltaXQ6MzsiIGQ9IiAgICAgTTguMjcsNzEuMjZMMCw1Ny4wMmw4LjI3LTE0LjIzaDE2LjU1bDguMjcsMTQuMjNsLTguMjcsMTQuMjRIOC4yN3oiLz4mI3hhOwkJPC9nPiYjeGE7CTwvZz4mI3hhOzwvZz4mI3hhOzwvc3ZnPg==;" vertex="1" parent="1">
          <mxGeometry x="480" y="400" width="48" height="70" as="geometry" />
        </mxCell>
        <mxCell id="ogB1OXXyy9iU-GvDi_hn-22" value="R04" style="shape=image;verticalLabelPosition=bottom;labelBackgroundColor=#ffffff;verticalAlign=top;aspect=fixed;imageAspect=0;image=data:image/svg+xml,PHN2ZyB4bWxuczpjYz0iaHR0cDovL2NyZWF0aXZlY29tbW9ucy5vcmcvbnMjIiB4bWxuczpkYz0iaHR0cDovL3B1cmwub3JnL2RjL2VsZW1lbnRzLzEuMS8iIHhtbG5zOmlua3NjYXBlPSJodHRwOi8vd3d3Lmlua3NjYXBlLm9yZy9uYW1lc3BhY2VzL2lua3NjYXBlIiB4bWxuczpyZGY9Imh0dHA6Ly93d3cudzMub3JnLzE5OTkvMDIvMjItcmRmLXN5bnRheC1ucyMiIHhtbG5zOnNvZGlwb2RpPSJodHRwOi8vc29kaXBvZGkuc291cmNlZm9yZ2UubmV0L0RURC9zb2RpcG9kaS0wLmR0ZCIgeG1sbnM6c3ZnPSJodHRwOi8vd3d3LnczLm9yZy8yMDAwL3N2ZyIgeG1sbnM9Imh0dHA6Ly93d3cudzMub3JnLzIwMDAvc3ZnIiB4bWxuczp4bGluaz0iaHR0cDovL3d3dy53My5vcmcvMTk5OS94bGluayIgdmVyc2lvbj0iMS4xIiBpZD0ic3ZnMjU4NTk0IiBpbmtzY2FwZTp2ZXJzaW9uPSIwLjkyLjMgKDI0MDU1NDYsIDIwMTgtMDMtMTEpIiBzb2RpcG9kaTpkb2NuYW1lPSJnZW5lcmljX3NlcnZlci5zdmciIHg9IjBweCIgeT0iMHB4IiB2aWV3Qm94PSIwIDAgNDguNDEgNjkuNzYiIHN0eWxlPSJlbmFibGUtYmFja2dyb3VuZDpuZXcgMCAwIDQ4LjQxIDY5Ljc2OyIgeG1sOnNwYWNlPSJwcmVzZXJ2ZSI+JiN4YTs8c29kaXBvZGk6bmFtZWR2aWV3IGJvcmRlcmNvbG9yPSIjNjY2NjY2IiBib3JkZXJvcGFjaXR5PSIxIiBmaXQtbWFyZ2luLWJvdHRvbT0iMCIgZml0LW1hcmdpbi1sZWZ0PSIwIiBmaXQtbWFyZ2luLXJpZ2h0PSIwIiBmaXQtbWFyZ2luLXRvcD0iMCIgZ3JpZHRvbGVyYW5jZT0iMTAiIGd1aWRldG9sZXJhbmNlPSIxMCIgaWQ9Im5hbWVkdmlldzI1ODU5NiIgaW5rc2NhcGU6Y3VycmVudC1sYXllcj0ic3ZnMjU4NTk0IiBpbmtzY2FwZTpjeD0iMzIuMTkwODk3IiBpbmtzY2FwZTpjeT0iNDYuNTA4MzQ2IiBpbmtzY2FwZTpwYWdlb3BhY2l0eT0iMCIgaW5rc2NhcGU6cGFnZXNoYWRvdz0iMiIgaW5rc2NhcGU6d2luZG93LWhlaWdodD0iMTAxNyIgaW5rc2NhcGU6d2luZG93LW1heGltaXplZD0iMSIgaW5rc2NhcGU6d2luZG93LXdpZHRoPSIxOTIwIiBpbmtzY2FwZTp3aW5kb3cteD0iLTgiIGlua3NjYXBlOndpbmRvdy15PSItOCIgaW5rc2NhcGU6em9vbT0iOS4xMjUzNjg5IiBvYmplY3R0b2xlcmFuY2U9IjEwIiBwYWdlY29sb3I9IiNmZmZmZmYiIHNob3dncmlkPSJmYWxzZSI+JiN4YTsJPC9zb2RpcG9kaTpuYW1lZHZpZXc+JiN4YTs8ZyBpZD0iZzI1ODU5MiIgdHJhbnNmb3JtPSJ0cmFuc2xhdGUoLTAuNzUsLTAuNzUwMDM4NzgpIj4mI3hhOwk8dGl0bGUgaWQ9InRpdGxlMjU4NTExIj5QYWdlLTE8L3RpdGxlPiYjeGE7CTxnIGlkPSJncm91cDEwODY2LTEiIHRyYW5zZm9ybT0idHJhbnNsYXRlKDEuNSwtMS41KSI+JiN4YTsJCTx0aXRsZSBpZD0idGl0bGUyNTg1MTMiPkdlbmVyaWMgU2VydmVyPC90aXRsZT4mI3hhOwkJPGcgaWQ9Imdyb3VwMTA4NjctMiIgdHJhbnNmb3JtPSJ0cmFuc2xhdGUoMCwtMC4wMDczOTg3NikiPiYjeGE7CQkJPHRpdGxlIGlkPSJ0aXRsZTI1ODUxNSI+ZzE1NDMzLjExNzIxPC90aXRsZT4mI3hhOwkJCTxnIGlkPSJzaGFwZTEwODY4LTMiPiYjeGE7CQkJCTx0aXRsZSBpZD0idGl0bGUyNTg1MTciPnJlY3QxNTQwNTwvdGl0bGU+JiN4YTsJCQkJJiN4YTsJCQkJCTxyZWN0IGlkPSJyZWN0MjU4NTE5IiB5PSIzLjAxIiBzdHlsZT0iZmlsbDojRkZGRkZGO3N0cm9rZTojNTU2QThBO3N0cm9rZS13aWR0aDoxLjU7c3Ryb2tlLW1pdGVybGltaXQ6MzsiIHdpZHRoPSIzOS43NSIgaGVpZ2h0PSI2OC4yNSIvPiYjeGE7CQkJPC9nPiYjeGE7CQkJPGcgaWQ9Imdyb3VwMTA4NjktNSIgdHJhbnNmb3JtPSJ0cmFuc2xhdGUoMS41LC0wLjc1KSI+JiN4YTsJCQkJPHRpdGxlIGlkPSJ0aXRsZTI1ODUyMiI+ZzE1NDI1PC90aXRsZT4mI3hhOwkJCQk8ZyBpZD0ic2hhcGUxMDg3MC02IiB0cmFuc2Zvcm09InRyYW5zbGF0ZSgxOCkiPiYjeGE7CQkJCQk8dGl0bGUgaWQ9InRpdGxlMjU4NTI0Ij5yZWN0MTU0MDc8L3RpdGxlPiYjeGE7CQkJCQk8cmVjdCBpZD0icmVjdDI1ODUyNiIgeT0iNC41MSIgc3R5bGU9ImZpbGw6I0U1RTVFNTsiIHdpZHRoPSIxOS41IiBoZWlnaHQ9IjY2Ljc1Ii8+JiN4YTsJCQkJPC9nPiYjeGE7CQkJCTxnIGlkPSJzaGFwZTEwODcxLTgiIHRyYW5zZm9ybT0idHJhbnNsYXRlKDAsLTQ4KSI+JiN4YTsJCQkJCTx0aXRsZSBpZD0idGl0bGUyNTg1MjkiPnJlY3QxNTQwOTwvdGl0bGU+JiN4YTsJCQkJCTxyZWN0IGlkPSJyZWN0MjU4NTMxIiB5PSI2OS4wMSIgc3R5bGU9ImZpbGw6IzJCQzdGNDsiIHdpZHRoPSIxOCIgaGVpZ2h0PSIyLjI1Ii8+JiN4YTsJCQkJPC9nPiYjeGE7CQkJCTxnIGlkPSJzaGFwZTEwODcyLTEwIiB0cmFuc2Zvcm09InRyYW5zbGF0ZSgwLC01OC41KSI+JiN4YTsJCQkJCTx0aXRsZSBpZD0idGl0bGUyNTg1MzQiPnBvbHlnb24xNTQxMTwvdGl0bGU+JiN4YTsJCQkJCTxyZWN0IGlkPSJyZWN0MjU4NTM2IiB5PSI2OS4wMSIgc3R5bGU9ImZpbGw6bm9uZTsiIHdpZHRoPSIyNyIgaGVpZ2h0PSIyLjI1Ii8+JiN4YTsJCQkJPC9nPiYjeGE7CQkJCTxnIGlkPSJzaGFwZTEwODczLTEyIiB0cmFuc2Zvcm09InRyYW5zbGF0ZSgwLC01OC41KSI+JiN4YTsJCQkJCTx0aXRsZSBpZD0idGl0bGUyNTg1MzkiPnBvbHlsaW5lMTU0MTM8L3RpdGxlPiYjeGE7CQkJCQk8cmVjdCBpZD0icmVjdDI1ODU0MSIgeT0iNjkuMDEiIHN0eWxlPSJmaWxsOm5vbmU7IiB3aWR0aD0iMjciIGhlaWdodD0iMi4yNSIvPiYjeGE7CQkJCTwvZz4mI3hhOwkJCQk8ZyBpZD0ic2hhcGUxMDg3NC0xNCIgdHJhbnNmb3JtPSJ0cmFuc2xhdGUoMCwtNTMuMjUpIj4mI3hhOwkJCQkJPHRpdGxlIGlkPSJ0aXRsZTI1ODU0NCI+cmVjdDE1NDE1PC90aXRsZT4mI3hhOwkJCQkJPHJlY3QgaWQ9InJlY3QyNTg1NDYiIHk9IjY5LjAxIiBzdHlsZT0iZmlsbDojMkJDN0Y0OyIgd2lkdGg9IjE4IiBoZWlnaHQ9IjIuMjUiLz4mI3hhOwkJCQk8L2c+JiN4YTsJCQkJPGcgaWQ9InNoYXBlMTA4NzUtMTYiIHRyYW5zZm9ybT0idHJhbnNsYXRlKDAsLTU4LjUpIj4mI3hhOwkJCQkJPHRpdGxlIGlkPSJ0aXRsZTI1ODU0OSI+cmVjdDE1NDE3PC90aXRsZT4mI3hhOwkJCQkJPHJlY3QgaWQ9InJlY3QyNTg1NTEiIHk9IjY5LjAxIiBzdHlsZT0iZmlsbDojMkJDN0Y0OyIgd2lkdGg9IjE4IiBoZWlnaHQ9IjIuMjUiLz4mI3hhOwkJCQk8L2c+JiN4YTsJCQkJPGcgaWQ9InNoYXBlMTA4NzYtMTgiIHRyYW5zZm9ybT0idHJhbnNsYXRlKDE4LC00OCkiPiYjeGE7CQkJCQk8dGl0bGUgaWQ9InRpdGxlMjU4NTU0Ij5yZWN0MTU0MTk8L3RpdGxlPiYjeGE7CQkJCQk8cmVjdCBpZD0icmVjdDI1ODU1NiIgeT0iNjkuMDEiIHN0eWxlPSJmaWxsOiM1NTZBOEE7IiB3aWR0aD0iMTkuNSIgaGVpZ2h0PSIyLjI1Ii8+JiN4YTsJCQkJPC9nPiYjeGE7CQkJCTxnIGlkPSJzaGFwZTEwODc3LTIwIiB0cmFuc2Zvcm09InRyYW5zbGF0ZSgxOCwtNTMuMjUpIj4mI3hhOwkJCQkJPHRpdGxlIGlkPSJ0aXRsZTI1ODU1OSI+cmVjdDE1NDIxPC90aXRsZT4mI3hhOwkJCQkJPHJlY3QgaWQ9InJlY3QyNTg1NjEiIHk9IjY5LjAxIiBzdHlsZT0iZmlsbDojNTU2QThBOyIgd2lkdGg9IjE5LjUiIGhlaWdodD0iMi4yNSIvPiYjeGE7CQkJCTwvZz4mI3hhOwkJCQk8ZyBpZD0ic2hhcGUxMDg3OC0yMiIgdHJhbnNmb3JtPSJ0cmFuc2xhdGUoMTgsLTU4LjUpIj4mI3hhOwkJCQkJPHRpdGxlIGlkPSJ0aXRsZTI1ODU2NCI+cmVjdDE1NDIzPC90aXRsZT4mI3hhOwkJCQkJPHJlY3QgaWQ9InJlY3QyNTg1NjYiIHk9IjY5LjAxIiBzdHlsZT0iZmlsbDojNTU2QThBOyIgd2lkdGg9IjE5LjUiIGhlaWdodD0iMi4yNSIvPiYjeGE7CQkJCTwvZz4mI3hhOwkJCTwvZz4mI3hhOwkJCTxnIGlkPSJzaGFwZTEwODc5LTI0IiB0cmFuc2Zvcm09InRyYW5zbGF0ZSgwLjc1LC01OS4yNSkiPiYjeGE7CQkJCTx0aXRsZSBpZD0idGl0bGUyNTg1NzAiPnJlY3QxNTQyNzwvdGl0bGU+JiN4YTsJCQkJPHJlY3QgaWQ9InJlY3QyNTg1NzIiIHk9IjY5LjAxIiBzdHlsZT0iZmlsbDojNTU2QThBOyIgd2lkdGg9IjIuMjUiIGhlaWdodD0iMi4yNSIvPiYjeGE7CQkJPC9nPiYjeGE7CQkJPGcgaWQ9InNoYXBlMTA4ODAtMjYiIHRyYW5zZm9ybT0idHJhbnNsYXRlKDAuNzUsLTU0KSI+JiN4YTsJCQkJPHRpdGxlIGlkPSJ0aXRsZTI1ODU3NSI+cmVjdDE1NDI5PC90aXRsZT4mI3hhOwkJCQk8cmVjdCBpZD0icmVjdDI1ODU3NyIgeT0iNjkuMDEiIHN0eWxlPSJmaWxsOiM1NTZBOEE7IiB3aWR0aD0iMi4yNSIgaGVpZ2h0PSIyLjI1Ii8+JiN4YTsJCQk8L2c+JiN4YTsJCQk8ZyBpZD0ic2hhcGUxMDg4MS0yOCIgdHJhbnNmb3JtPSJ0cmFuc2xhdGUoMC43NSwtNDguNzUpIj4mI3hhOwkJCQk8dGl0bGUgaWQ9InRpdGxlMjU4NTgwIj5yZWN0MTU0MzE8L3RpdGxlPiYjeGE7CQkJCTxyZWN0IGlkPSJyZWN0MjU4NTgyIiB5PSI2OS4wMSIgc3R5bGU9ImZpbGw6IzU1NkE4QTsiIHdpZHRoPSIyLjI1IiBoZWlnaHQ9IjIuMjUiLz4mI3hhOwkJCTwvZz4mI3hhOwkJPC9nPiYjeGE7CQk8ZyBpZD0ic2hhcGUxMDg4Mi0zMCIgdHJhbnNmb3JtPSJ0cmFuc2xhdGUoMTMuNjk4MykiPiYjeGE7CQkJPHRpdGxlIGlkPSJ0aXRsZTI1ODU4NiI+cG9seWdvbjE1NDM1LjExNzM3PC90aXRsZT4mI3hhOwkJCSYjeGE7CQkJCTxwYXRoIGlkPSJwYXRoMjU4NTg4IiBpbmtzY2FwZTpjb25uZWN0b3ItY3VydmF0dXJlPSIwIiBzdHlsZT0iZmlsbDojRkZGRkZGO3N0cm9rZTojNTU2QThBO3N0cm9rZS13aWR0aDoxLjU7c3Ryb2tlLW1pdGVybGltaXQ6MzsiIGQ9IiAgICAgTTguMjcsNzEuMjZMMCw1Ny4wMmw4LjI3LTE0LjIzaDE2LjU1bDguMjcsMTQuMjNsLTguMjcsMTQuMjRIOC4yN3oiLz4mI3hhOwkJPC9nPiYjeGE7CTwvZz4mI3hhOzwvZz4mI3hhOzwvc3ZnPg==;" vertex="1" parent="1">
          <mxGeometry x="600" y="400" width="48" height="70" as="geometry" />
        </mxCell>
        <mxCell id="ogB1OXXyy9iU-GvDi_hn-24" value="" style="shape=image;verticalLabelPosition=bottom;labelBackgroundColor=default;verticalAlign=top;aspect=fixed;imageAspect=0;image=data:image/png,iVBORw0KGgoAAAANSUhEUgAAAJ0AAABJCAYAAAAniSTvAAAgAElEQVR4Ae19CXgUZbruuSPpvaur9yVBxBkddUZldObM3HPunLnn3HtcUHZkEdxZFHF3XMZ1XCALJCQB2UFBVgUCyJJASEKSzkJAwWVG2QRDCDvZeu9+7/P+lY4hwlxpHXHpep5KdVXXX/9f3//2t7zfV5V/8fl84Hrq1Ckkl6QEvgsJ/EsSdN+FmJN9dJZAEnSdpZH8/J1IIAm670TMyU46SyAJus7SSH7+TiSQBN13IuZkJ50lkARdZ2kkP38nEkiC7jsRc7KTzhJIgq6zNJKfvxMJJEH3nYg52UlnCXyvQBdBDFxDsRgisZgYp/K385CTn3/oEvhegS4OsHA74BTUxY/+0EWdHH9cAt8r0MUHJbbRGBBJAu4MmfxIdr5XoItGYugMM2Iu0Fnr/UiE/lO/je8V6Ag5mtZYJIpoMIBgOAh/NCyO/dQn6sd0/xccdF9qthgQjSLc1Arf0RPwNx5HrC2AaDD4Y5J38l4A/FNAF41FEI2FEQ1FRBRKYMUiMUR9bYiFA4hFI4hEAvCHwwi0+tC6bx8ai9bAe89IvHNZD7zrMmO1y4GVV12JPekv4fj7lQifPIZYJIxINIpINIZgNArEwohFg4hFYxBWmH4gaJKjwiz7Y9GklvwewvzbAx3NYjSEWCyEUDSAYDQIX5QECAQoiIdAJAxfJIK2WAytp5vQsG4jPrjjAdT87t9RaJPgdVlR7jahPFWHKpcRXqcDmzwWbEhzo25If3yQNRGte/fA5/fBF4sKaoUyZR+kWQi2aCwKCDwqABT9fw8F/1Me0rcIuqiidfwRIBwjCoAIEPNFEA5F0RKLwBdsQtv+A2jInYHiSy9DUU8nCnvqsSnVgm3/9V/YeP3v8L7VhR2yBWVuB0qvuBwVl3hQ3EOHHW4ZVbId6z09UD5mNNo+2Y5oWysRDfqCCrwVAMa1XixI9AFBAvEnsVDjKz+2rrfL4+f6ruu5/+z9bw10vFWaPWqcYCSKUDiKcISAC6CtYT8+XzgPnz06DmW/uAR1bivKnRZsvESPCpcWdRYzCn77WzR9XIfPli3ARy+8gKrsLBzzbsaHjz0Br92EbS47tqZaUZJmRkWaDWUuK6r798XOrAk4VVeJYPMpxIIhBCNhNFPb/oSAFo3GUH/gCyxatBCLFi/G3r17RDDGoCwSiWLPnt1YuOAt8V19fT3CkfAZLME/G2Rdr/+tgU5cOAZh9gKxCGJtJ+Hf8z5qxozC+quvQeUlPVHhMKPUpcPGnjoUp7lR2rM7trqdeM/VHcuGDsCRXe8Lf48BRIRmuOEwivsMQFFaT5RdcjE2E3QeIypdRtTZzNjqMKPS7YL30l+isHdvtHgLEfGfQqz1pDD11H7CvFLr/oiXNp8fL7zwIgYNvk2sI0aOxOnTTeKOuX38iScwZOgw9B8wEOMefAih0IUNzhICHY0VV/5exG8mxkAhgkioFf79u1G/fDGqhg7AxjQHvG4TKlJNKHWbUOxQ/LbtdhuqXDpsdUuo7X0jDq1YglN1O9Dy4ScInDyJpmgQrdEwoi1NiDR+jt3TMlH4p9+h6mInPrCaUeWyY3OqHeUeC4pdXG2ouDgNhTz2n3/C3lnzcarGi0hbE4LhMMJRxfwShMIMd2Dwh292Q6EIWltbcf8DD2LAwEHo128ARt5xBxoaDok5ajiwD+PGjkXf/v3Rr/8A8f3RY0cv6E8wIdAxEg0Hw4jEoghGfIi1NuOUtxI199yND//Xv2FTdwdKL7Zgm8eBaqsD5S43StNSUegiUNKww5WGapcVFWlWVLptqOvZA7XX9sL7f/gjtvYbhMCRo2jasxvrb7sN5b1vRGmf/0TZv/XCtp5u1Los8LoklKaasMYmY6Gkx7oeLpSnulBtN6HSZcIWjx3ea67ChltuwReLliJ08jjC/iaEouT96GgqMo+Jabmg8v/mnceAtrY2ocH6DRggtNmw4bej4XAjgrEYjhw5ilGjx6BPv37o07cf+vXpg9OtLd+8329whYRAR9oi2NyKtgN/R/2K+Vhx3ZUoTPOgpLsHxalWVFtkfHzVb7C1/wB8MncWAjt3INZ6HDh1BJE9n6JhUyFWjhqOtddfg/d79ESN04EauxVVFgleiwl1rz2DzyY+j4pLL0aZQ0aF2yZAVZrqwkaPDatcVswz65Bv1uCxbj/DM90uwkyLGSu6p6LEYcNOqxW1soQKhxPFl6Rh5WU/x67n/oymHRUIN/mEv8fol5Pyg1+iMbS1tmH8+IfRf8AgsRJ0hw8fRigaQyAQwNJlyzFs2HDcPmIENmwsQjh8YTV8QqA7+kENdvz5SWzr9a8oddlR7JZQ0t2M2lQHKjxObBs+AE0f1cEX8SMUDCEWDgsejZoxGgoz4kAk6Eek/nP8fUoGNv/ycuxwuOF1StiaZkXxdVej9vJfoM4lYVOqhDKPjLV2CYvsRsy06DHNbMRM2YTJZj1Gqy/CvZpuGNPtZ3hQ1Q2v6XSYK0socsiochpR4zSiwmNCiceCgquvROGEvyIaDipuwddAXChEGijScWY4HBFRIJ33UPjL45zGzhDuiBTperSvPKHzOR0XPccHBgHnWmLkKEkSRCJoaW7GuAfHd4Bu6NDhqD90WHCjdC+isRgOHWrA0SPHEI5EETtLkMVz4ougO8m1kgsVAeK5xxFvcz7bhEBXe91vsMXtRqlHxlaPBdvsLuywOLBTtmHDLy7H/nWLEQu0INocBNoJ286DIpURDIRxMhaF/9CnKOl9C7abe+ADhwOFaXZs6HEJvB4bSlJlVDqtWGbTYo6hG2bZNJhu1WGa2YBZsoSpBhmjL/ofGKn+GcZoU8TnR7v9DHkmA9bazagyWVHrtKLSacE22YBSpxPZv/0t0J7liAW/FHTn8XX+7A8QdIDfr2zjsKGWJLAISgKQGqXrQn+rA3DiyxgI2mikTRzven7XfV6/M/C4L8jw9mGTLA/4Qjh9+rQwrwMGDka//gNBTdfY2AhBGdGfDRNoSqO2Nl/XbsR3YX8AbcEAnXPx8wkGgwJ0bMX7+zaXhEC3pNeVKEi1oMZlQQ0n1+GC1+ZCRaoVW1021PS7FY2bVsPfdAKxqELY0iRTSMp+BC2+ZrTs2IaPnngcRRd7UN5dRolHwnaLEyUeNyqcZtS6JFQ4rdia6kCRx4LVVgmLTBrMMesw3axDrtmIR7r9DI9rU5Bh0GOBzYwijxWVqamocNtR5bKgymFDmdOBtXYTZhtMeOVX14m8bij09X69zU3N2FxYiC1bSnC6SYkICcDm5mbU1W3HuvUbsPa999DQ0NChGThBwaAPvkAA+/btw+bizVi9ugAFBe+ictMmHGo4fMa555pQyowaiEA7cfw4KioqsGLFChSsWonCokJ8tncf2oJBNLcHEgQcTawwr42N4gdPFuDEyVMoKSlDaVkZWlpbBZUV75M0FzNE4XAY9QcOorSsFAUFBVi5ahVKSkrQ0NAoviPwBOjjDb/BNiHQTbvyl8g36bDcqMEWpxNVrjR4baQvzKj2mFHhtqLy8suw7o+/R/lDD6Bh0Ry0VW5GYFcVmta+iw9e+gvW3fQf2PiHK1DmsaLWJmEno9lUE4pNRlQ4TShLc6PG5sQqmtseEipdNpR7XChz2bDRbcViqx6zJDXesumwyu0QwUOlx44Kt0X4gJUuK7Z2d+Fdp4yZJg3eMKRgqsGAV67qhXAwAKbIzrUEgwrVTCE/MG48Bt82BMNvH4G8/GkIhcKYN/8tjBn7AO644y7cNmQYbu3TFy+9/ApOnmpSTF4ggiNtLXj08Sdx36gxGDrsdtx0c28MGjwEI4YOx733jsJzz7+A+v31oEYht0m7y4xKXCNxbP5IBH6/H5lZk8R1hgwdjr79BogolJ/vuW+0OL6lpEyMM+7Tsb9Dhw8LTRcMhTExPRM8f/BtQ/HqaxMEhxcKMxCMIRSM4GTTaaRnZGDU6LHifvr07S/Ayzb33jcaGZlZOH26+VziOu/jiYHu6l9jglmHSVIKJpvUmGs3YrVbRonLgq0eRqhcraj02LAzrTu2uZwo6+5CSZoLlS4nPnT3wHa7E1vtDngv6YkP/+cfUXPLzdh623B8dv947M2ehNad2xFqOoGDBUuxoYcLFS4rqhxWQZd401xC+5V6bKKPKocFNQ4l2GD/JW4HVlglzDaoMMWoEuPMlFPwslmNP1//K8SCp0XeVpj+s1gOYToB+Px+3Nz7FvQb0B99+/cTfhPBxsmNm7K4duFEf/TRx/Cf9mHu7Pn4P//3BjHJBBrP/+8bbsJNN9/S0fbWPv1ww403o7BwE/zBgPC/YqSJIgGhBQnGHbt2Ydy48SAI2E/nPrl/y619MXDQbWJlH/zMbYemiwGHGhsxesz9oq0y7kE4cpI8ZgyhSBT79u3HnXfdLfrg9ePXi9+X2A4chJtuvhnl5WXiR3DeKOvSICHQvXnV1ZgiaZFlVuF1WYcJZi3yDRrMlXRYZpOxwWNFaXeH8PfKXDIqXCZUOGUBkHIXzagJHwy6GV8snY5DpWvQvPdviJ1sRtQXRCAcEdrkZDiEY/V74P3Tf6DSRQ1mRbWDPpoN1U6b8NOqHRJqHLy2RWjB9Q4bltLfM6qRZ1Ahx6hCpkmNDLMGUwwq5Op0ePGaXghHWhBgoUDgS/qki1yEw0+TQy3Wf+BAAToChROtaJuBAgicJE7WU888i6OnT2FKdq4AG8+5ufetYhIJwBtv6i32OYlc2Y7XGnnHXXhv/QYBOvZHTUcHvrZ2G+659z7RF6+vAEbZ8jNXai5yb+wrDjhee+jw23Ho0GGEIzHUH6zHAw88KPpkG35/5Ngx0N88evwEnnjiz0IDs31cw8XHGAf5gEGD0bdffwHOAwf2dxXVee8nBLq8f/8jXrUakW1MEeCbojciX0/Np0OePgXT9Cl426TGhjQzNnnMwlerpMm1SahwGVHukVFncWD1xT2wP2cy2g7shS/YimDUj9PBk8qvvrkFf2OE7JRR7rSiwmMTFEilw4Zqt03sl6VaUZRqRYFTxmxDCnL1Kcg1aMU4MmUdssw6ZBhVmCxpkGc044WL0xDetgv052hez6LkzhAg/aEbbrgR5L+o6Whuet/SB8NvHykmmRriuedfRFHRJvjDEawuWCs0GieXZpfbJ596Bns/PyBMGYsdyiu8GHnHnSJDQLAMHTZccGgiPRVmpiAm/MOHH3lUgIDnEJwE2O0j7sBDDz2Cl19+BbePGCnGwT64xgHCz3HzSo3NqDWu6Qgmfn/sxAn4gkFU12wT5/JYHGijx4xFzpRc5E+dJkwr74OZDspg4KBB+Pvu3WfIKJGdhEC3b0cN5g/vhwmSCjntk5xh0iJL0mKySYNcowbTDGq8oVdhkVFCgV3GZo8dZW6b8PsIvK0eMypTnSi1uVB+ZS98/ORT2LPsLbQebUQo5Me+BYtQ6E7D5lQ3yjw2UYHiJbnstmJLqg0bPWYssZkwU1Ij26hGppSCSZICOII/U6Ym1iKPGtigxZIrfo4v1q1Cc6RZKUj4GlXJBN0tt96K/u2g48Rw8u+5bxTWrluPNpZZRZTyqcYjR8/QKJys5e+sQFtAMZ2cHPHAUSSGoD+Id959V4Dvllv7CACPf+hh+P0+QcOsXvgmBrZrlzigFr69CC1NLaAvRrMYCoaxfecuPPHkUx2gi59L0B0+3CjKu+rbQdcBrH4D0Hj0uKBali1d3qntQMyYOQs+X0DJoUej8LX54a2uxvNPP43et9yKienpaGoPphIBW7xNQqCLNTdh50svYKXTgsUGajkNJpk0yDZqMEnSCOBlCCDokGfUId+gw1SjFktsRhSl2gQdUmszo9RtRLnDgiqrjKruDng9Tiz++aXY8exj2HL9Ndgq61HrdovAgD4dSeIitwlLTCrMoUbVScg1Skg3GpBh1CPHoEOeQYdcPf04DfItaiy3m1CU6kStzYJ3u/fApwveEpkJksOCUohL4izbcPC08OcGDBokAglOJs0Zo0+2paYU1wFQXl6BIUOGdZjelU8/L6LEEydPdlyZflScmA1Fo5g+e7YAce/et2LY8BH46ONPRCBy5513Cs1Cf5BablXBmnY/L4JwIKLkUVjE44/A7wtg/EOPCPDENRl9uvrGRkSDUXxx6BDG3j+u43umyY41HhPjf2flKjFeApIanMFQS0ur6IvpTUbOvnAYbUE/Wtva0NbSegY32XFj5/khIdBtGd4fmzwuETgwYCi2m7HEbMBMSYtcbTdMNqYgS1ZhoqQCNSABOcWoRq5BjRk6FZbKEjZbLIJYLnfbsNVtQqVbbk9jWVGW6kCZ04pykV91oNRtx3sum5KFMKRgioHX0iDfaMAUoxaZkg6TJS2mGAlyLWbJBqy0W1DiIZBt8LptqElzoNjlxvTrrxfFAOKhH5ZgnWOhVqKPRbMqTMvgwejTry9KSkvFSyS7NmNEy8kjUOj7VXprUFdbh7rqOtRt347aHe+LbV3tdlRvr8O2HTvgraoWZjieqF/49mJ8fuCgMJX0oQYPGYrHH39ClC2ca6SkMjZtLm737xR/kVq2vr4BoUgMBw4dEpF2XNNx23j8uADPBzt3ih8T769f//7CfRjapy8yJkxEwfp12LhpM774oh5Rkvl8hKCd6+t67+e7nxDoVl79S5R7nCh2W1HltqDWQX7OgkK3A2tcFsw1qDFNexFyDSmYbFQLH4smj+ZvsqxDrqxFnlGNOZIWqxwyiqn9nBZUOsyoddhR5XagItWJLWlurLWa8aZWg+naFGRLGlCD8loEGcGcJadgskGFfL0Kb9r02OC2o9ThRrnTgUqHBbUu8nZOEdwslg149apfKsWmrPv7/ywsAbrxppuEtiOY6Ed9+tmeM1pRI9A/JLXCc6ix6JBzS81IqoVb+mPcKsdG4o4778Zdd98rAEZ/jBpt1qzZeHvR4o5jrApZ+PbbQvOc0WmnHYJhz569uOPOuzr8MoKO2piq+ED9IeHTxUHHsR05cQKBYAg+fxue/cuzGHTbELFyDAwoCHgGQTyX0forr76GkydPIRgMdeo58Y8JgW72NVdgns6AlS6TIG1rnIrJrHaaUek0oyzNibUuCxYZtZhp1GKKgaaXgNMj3aTD60YdXrPQ59Jhij4F0zUpeMcqYYPLjiKXotVWOM14U68WQckUvQqTGYlKKWCAQNBlU7NJKXjDpMESuxEbPBZUpjlRTXNttqHKaUNFqgtrnGYslgzI1XVDvl6NF6+9QpCtisjOpT8UzowpJFZnDBo8WGgSlgUdPHjwK9KmieVk0bzFI8m4Yx6fbB7vvPI4QUoQEnQsPZo9Yw5ycnLFPr8n6FYVrPpKf10P0M9ilUm8L17zcGOj8CEZSMRpnrj5pabjQhDxTazPP/cCRg4fIbQux8h+CTgGTrwWx3nDDTdhzZo1CAfbunZ/3vsJgS6r11XIkQyYZOKkq7DcbMA6twXlLDf30FySp7OJ6t8NHgeW22TMNWqQb1Ajx6jDJKMGOZJOrIws001qZJpSMFlSYaqUglyjCtmSGhniOy0yZQ2yTCpkmRidqvCGToX5kh5r7DKKPU5UuOwKnWK3opylTh4rVjglzCaoTbyWBpPNOkw2avHXf70G4djX+8UykGB1Bs0PgfHQw4/iUEPjV4RMKnnM2HECVDyPAKRm46R11nDcj2tAbuMrJ/bZZ5/D7n37MHvO3PbJV0qRlixdiljo3FqZmo7Auve+UR2ajj5dQ2OjeD7k4KEzNR2BeeyYAjreCNN44WAQNeXlmDdvvhgv3QMCjUET76X/QEbHgzBs2FDsqKv9yv2f74GEQDfl2quQLRmRbtZhokWNXKMOWfoUzDaqsa67HcVpTPzblPIlN6tE7ChLdWGty4GFBg1manXI16cgX1K1m0i1IJsnymqxP9GsQ7qkQ5ZJjyyTQUSh9BNn6FPwllGNDQ4rSlJdqLDLojqlwsGqYg8KXW4ss8qYYdAKvzLXohfadJJJJ/y+PMmEZ66+QqTBaHr+URk76QZWPpPQpV/HlaA70vgFAoHwV+ScnaPwc4rWGo7du/eIIIN5j67P7nbNhpAz8/tCwuRVeKsEeKmV6OtlZ2cr6aez+FP0OVta21BdUyM0kqIdFXK4nhmJQBT7D9Xj/gfGiR+N0HQDFZ+u6w3wB9bs84mq75ZWH7aWV2LUmLFCAxNwY264QQCRlM03XRIC3Zxe12OqzoBskwYZAig6ZMk6hS7RpWCOSYNVZh2KHRZ47XZ47VYwLcVMRamHJtSKJTYJMxhhGumrqTBFUiNLRLwaZJr0yJQMyJH0yNNrMEPSYqnViPecZmx121AlggMrqjz0JR1YYzdhkdmEGQwkdBrk66jVCFr6fjrkGmjSDcjscQnqFi5EhEntcHsB6jkkSMPLp9VIadDJVjTdI2g4VH/WFkVFm4UvNHAwk+4DhM9GsydekcGEeUwpehVProki2Bhi4faiAealQ1EEg2H4wiGhIdkf69+oaWpqt3VU/nVO3in57BgmTEzvZJIV0MUj7PougQSBd/T4MXEPTLFt374du3btQjSqVJWQnCapTBDy+swvjx7LjMYg5f4GDT7r/Z/PwYRAV+/1Ir1nD6Tb1Zggk57QgdqEE0yqgp9JHOcbVFio0+I9l1Vov2KXGV6PBK/bCq/Tic3dnVjulDFNUiNf2w15JJdlLbJpCiWVyJcut5ux2cOnxJQsBFNhTK9xf73NjHlGteiHmpD9M5olyCaJNJ0K2QSiQYvZqS4ceWcBIqFTSuELcRD9amVIXHjBUARN4ZDISMTN68OPPCaiwq6ai20+//yAyF3SFFErkkDOzp4isiskhf3tZUIEYVNTC5gTXbrsHUx7YzpOnDgpSrHj1Ry5efnCpNO3okmmqfvko78h4lMePBfXYvFmKIQJEzM6zCqBSlANG3Y7GvbXC6ALcnj02A5/TwHdcaHF3357kSCnBw8egkVvLwTvmflYsbLKOhrFqdPNeOTRx8UY4v5qXEaJbhMC3alPduCDRx/G7FQLZphlvKGXMLk9I5EhaZFh0omVmibLoka2QY25sh5rXVaUEDROlqvLqHRbBJ3BHGqB3YTFkgaLTFoskbUosBlRnGpHZaodW+kfuiwiqb/ebcM7dlkQvqRfCLIsk1aYYwF+mQSxCjkmFaaa1Fhs1gl/s8RpxyqLA3+f+YbymCK5/6j/H8qNbxi4tW9fEUwQAA89/AgaG4+c0YY+FS0ffaMZM2eK8wk8JvjpjJO8Ldy0GR//7W/4ZPdu7Nz1IcorvXj6mWdFIQHPyc2d2l5SxNq7GD76+GMRjSpOPTXMAOFfzZv3Jiorvaj0elFYUoJHH3tCgIlgo2mNb+nTsbSJWpGabvTosR3mlf0dPXYM4VBIROMkoUmAM2B6/M47sXlzMbwV1dhaXY2S0jLhUtDHI1h5fQZT33RJCHQVN/dBnd2FbWZJcG3v2R2Y5zAqyXUSs4IkVvyyiZIWmSYdcpil0Kkxx6jBAlmH9W4DKj0W1NpMqLWbRMaBeVoWbDLPSn6txm1FjcOMiosd2OCxYYFJhxkGjdBkmUY9suj3yWol+2BStBzTcDONKrzrkLGebVPtqGIajTygzYL83/0ewWhAVHQotWNfFSF/8dEo88BBAR7mXxnBPvb4EzjayQn/sqUSBbc0n8Szf3lOmGRObtzHImhIkdx9z33tE60k5nmcWmzS8y8gEg511M4x2b9yVYEArUhBdUr2sw0BwC1BEAdavC9uqWUPNTQI8nr/F1+I6JVt+F3fvv3ReOSI6OvJPzObwfTWYJAApwnlOSJ46ARi0a59rFtKSr+87QQ/JQS6Jb1+hUqzAbUeI7a6LahymVF0iRnvpdmwzKzHXL0G0/Q0bSph2pgPJTmcZdJgolmLdLMGUzUXYaGkxiaHWRDBojollTlWizCfLA6lBtzotmCxrMN0XQry9Ezia5AlEXCSABwjaCbzZxlUWMCIln4f87Qecn3k6xjR2rD0UgsWmNR46VeXi4fBqZ3oR51tiWcbwqEw/vuGGzF4yBDB1T0w7kEcaTxyTrNMLcX/PPT88y90gIKTTWB1BgcBw8iQW2YLqrdvFyafBZ5cBBEbjWL+mwtENBnPvXLy4+Dh9XjdOAipibnP70VG4vBhcS0lsh0tImKCij8Ggo7VwwcOHMSfn3oKAweTm6NLMKIDyHHgxQHHfQZLDFy+6ZIQ6HKu/bWoZXvTrscKtxk1dgtq+DC0kxUldhQ7rVhlt+Atsx55BjWyJQYLKYL2yJA1mCwraTNybjkmDWbKWkGrFLkdIotQRFNoU9pPldTI09PHM4jAgNkH+mmkXgjqN4QJ1WO9k2k11txZUMWaPo8dW1wOrLCbMUfWC9okV6fBs9ddpVQO/4NshFARdPxDYdxz76gOBzo9PR0+X5uo/j2b4MPhEKKRCE6dOI7Va9ZizNj7O0DCyYuvNFf01abPmI1P9+4T1xMOfDvoRPAheLQgqiqr8NrrEwW4CKzOYIgD4u1FS/DU08+I6xOMY8aMRUuTUv926lQTnnr6WUXL9RsAFhK0+PwIhUOCpyPpu2zZcjw4/mERAXfWoLwWVxYMFKxeg6bmZlHufrZ7P59jCYFu0RXXIF8yYYKhG9LNKZhvUGFTOzfHapJau0VQJlt6OLC5u1tU++YZUgQvJxx7I3OmZmQYTYIontgehOQbtIJ+mapXiwwDswzCXBpk5BsV2oM0Cq8xTa/FMjtzuXZ4U+2oddtQazeLtdphwzuyHjnGFDG+CWZqWBYESHjqistEWQ8LJs+1dKaMW1pb8OJLL+P11ycIv+1cbeLHhQZltW+7xtq9ey8mT56Mu+6+RzyVxUjzww8/EteKsyDxLa9B8MWX+CceOnHiBBYvXoL7Ro3GiJF34MWX/ipytdSKXIJNPlFs+cKLL6G55cunveLa99VXX8Orr72OgJ/PFH/13llORddhwcK3RXXJ3ffci6xJ2U8vGuEAAAdQSURBVNizZ4+IZONjiY/tm2wTAl3utVdgokmNGVKKMJvZJj1ymdaSNXjHLqGIT/CnOlHpcYAFlpV2Bza5HVjkkDFT1gtAsR4vUyLpS4okrr2YtDcoUTBTXBJJY7UoTcoR9IpGkMKrLVYUO9yimpiFADShWzw2rHXKmG83Iptksijg1CLHoBc+YD7Nu96EzD/8b0RCUcGhfR3BsVI4EFRe1PN1zu98TrzEm0l+UXbeDsbO53zdz/5AvMJYoVmiLPjs9OwCxxkNRUVBQWfgMspRXjCkwOYfFXQRjJGOB4+iSpFBSHnE4OuO8+uclxDoZv/+amSZDUg3pmCiuT2jQKKXkaOsRa6kwkKjHoU2mwCG1+VEDXOqTgs2pVmx0m3AXLMW00QNHP00LaboCTwDJkl6ZWXk216ilC6l4E1Zh0KXTeRmhUajObebROVJgU3GfAFSldCIU406ZMh6TDTrRRQ9WdLjFYMer/f4BQ5v24VgJPS1Qcc0ETUNc5XnuwT4Vqou7Tj1BPH5LmcAqV0jdgZd/HuWPXVeFK2mAJXql+fFn/LqfB4/i+yEAB33YsJViF+367nfZD8h0DXWerFo6AhkuLpjst6ILGMKciUt8nR6pEt6TJRpCjWYatBgtknCKrcJJU4L6uw2bLfL8DpN2Oqxooj5WUakRiV5T+05QVAeGuTptZilTRF508I0myCVWTlM4Ja5JaxLNWC5S4+ZBqVolFxctkEnikonGVNAEz3VLOE1WYOZva7EggdHwb/3U0QifrTxUUgh12/TaJw5DV2v/M+YvDN7/OHsJQS6lmgIweYm7NmwAWseHI+/0scyysiRZWRIRmRQ0wiujuaT+VYNZsk6LJX0KHLYUOX2KNXATqvIz24k9+a2YJ6sxQyDGvONWqywSNjssKPc5UC12wGv044tHgfec1uxwGLAVEFKK2kzEtLZElNrekxpLybN0usx/aorsWPuDDR8ugMI+xGKhATgmOISS1dk/HDm7Qc90oRAF4q0KC89jPgRCYXEayBWPf4I0i+7GHl2O7J1ekzV0lyyjo7VxFpRW5duJomsxRyTCWs8Nmx22+B1WLDDoQQBVS6Cy43qVPprDvH4ISuFSx1mbHBZMM+kE1XJk7SsCDaB20yjCRmyAROZp5X0mPbznnih16/x6bpl8IVbRX6V5iTu18TaS5qItw7w/aCn8Ic3+IRAx3fCdV34JFPrwd2onJqPgmHD8LxOh0yzpKTFJBUyzfGgQI0cmkSDBvONOrxrYhEoMxR8R4mMKpcVXrddvCmA9XoFNhNmy3rk6tlOjZx4SbqswRRZhWn0/QwSMi7tiaLHnsRnm4sQ8bcpP4r4C3O6Dja5f0ElkBjozjZkPknuD6MlGkFzoAknDu7FmnHj8ahRRpbVimk6I2ZoVUiXVXjOxgBEJapHsiQDphn0WG4xYIPbieI0DzamOrHMYUKeUYV0UwqmqXXIN0rChGaZNcgl2Mwsi7fhfoMW3pxM+I8dQiDchkiMTvqX//zkbENNHruwEvjWQEdCk4ltX5Tv+42Kyed7TFr378V7r76EWTfeiOetkqhMydanIE8UZKqQbtEgg9ybVot8nQbTjKwCTkGOToUsI6tYtHjFQlpFjSkGHXJ0RmQ6bXh36CBUTH8D4eNHEQsHBSXBFyHGy8w7R3YXVsTJ3rtK4FsDHQ2u4IBCfCV/WKSYWDdG3icSbkPLkQPYXb4BK+65C8/odciXdciTVMiTVchmgaacgomyChMs5OW0yNbpMNWgx3SDhEz9RZhkUeNpoxarxjyAg9W18J9uEn2wz9b2F1uLXFLyH550nePv3f63Bro4B8QkegdnyXdOM3nO2jW+6TzcgmigDW37d2P5Qw9i8vW/wUSrqb0UXYWJcoowv+LJMtkoaJcM2Yj511+HNePHoOWLv8Mf4zvmlMoOBqEC7OSemAEgtyRyAd87OScH1EkC3x7ohCfV/obOTpQEyUrxFBHDRYKwnZUPBYNo/fxzfDB/PubcdAOeI91iMYl8KkuV/mIy4uWrL0N5TgaO79uLaIhvFOJjMArDTsaWAPsypCEBSjCeu7S7030nP15ACXyroDvf+6BmogaM+ZpxYvs2vHv3nXjx2isxvW9v7CsqROspvj0zCaLzlev3/fwLB7pOJjEYjSAUDSEUbkWI3F8kJPw15kgDwQj/M0By+RFJ4IKBTjGUtJjxioyYIGuZtOYx4ZrxnWj/qATpRzQRP6VbuSCgo3vH5wzEa0gFsPjCxHagcdP++gW+euGn8/8gfjqwuyCgo3hF2pP/b0L8b6+gEhQwAIkrufYgIcmA/PjAeMFAF2c2RDTa/k9GzhCvQGUcnWd8k9z5gUvgwoHuBy645PATl0ASdInLLtkyQQkkQZeg4JLNEpdAEnSJyy7ZMkEJJEGXoOCSzRKXQBJ0icsu2TJBCSRBl6Dgks0Sl0ASdInLLtkyQQkkQZeg4JLNEpdAEnSJyy7ZMkEJJEGXoOCSzRKXwP8DEmXMhSUe62IAAAAASUVORK5CYII=;" vertex="1" parent="1">
          <mxGeometry x="506" y="698.63" width="157" height="73" as="geometry" />
        </mxCell>
        <mxCell id="ogB1OXXyy9iU-GvDi_hn-25" value="" style="shape=image;verticalLabelPosition=bottom;labelBackgroundColor=default;verticalAlign=top;aspect=fixed;imageAspect=0;image=data:image/png,iVBORw0KGgoAAAANSUhEUgAAAI0AAABCCAYAAABq4FXEAAANOklEQVR4Ae2ceXQURR7H/du3f/Devude7rquiqiIwOqCq4uyKygoEEBEUeRSBFTkJpwioBhc7lvuRAxXYANBMDGBEAghISEJhNwJuQi5M0lmMrn6t/utpsbOpHvonp6EjFv1Xqd7uqt+VfWrT//qV0fnvi4PvkTiEDowwsB9RiKLuAIuMCCgEZbWcE8joBHQCGhEF9r+XaiwNMLSCEsjLI2wNIbfAgGNgEZA0wm7T+HTdMJG6ezWUkAjoDFszQU0AhoBTWc37b+E8glLIyyNd1iaJ54dSavX76fYK9epsKiEECqrLHQtJYv2BATT4JHTDVfkl/AGe0sdOtTSPNx9CAUFhzNI8EeyZxBVB5NUvpuoKpCoLppIamLP0zJyadxHSwU8ndASdhg0o96fT2XlVUCFqHQNUXpPkpLub3skdyHKn0iSNZbBExYRQ39+6g0BTyeCx2PQ/O6xV+mzed/Q12v30rwlGwiQcHOLaxZqI0hK69EWFDV4ku4nKl7CkuUVFNMjPYY65HG54tz+s79qOvYINAu/2EwVlRYZDNiS5hZ2nZVTQPOXbqT6ejtJVUd1w9LKAuWNY7IiL8QLaDqJtTENzaYdB1mjNqXdJuvan6h61E6q8tlOlgn+1BCeJoNkjXEPGG6BCmcxOTMXrBHgdAJwTEEzdPRM1pgNZ1IYKIBFeVimfC9DUzTHHDToqiwn6HZJOf3mkQECnHsMjiloLsddI8ne1AoUJTR1fj8yaKSsAaahkTL7M1kffrpSQOOt0DzYbZBsZUJTNaGpPxIvQ3PtAfPQwNrYEinkTJSAxluh6dprOAPCuvGsJjSNcTdJqk/3CDDMOS7bQqVllQIab4UGQzEE65ZITWhaKqwkVR32HDSFs1meHeHX8EnIOYvWd1pIH+vpQ6vW7CWMXtWGxu11z22f5rmX3qPi22XUmJBPtoDLVLvoBFWN/NYBkGVSAGtg6dZij0FDBVOYzMd7j2h3Jd1raHr0HU1vjPqMev79Hc26vjBgItMH2qG9AFGT6xY0G7YFssI2tBBlWuQ5GXajRaKm67fIHnSV6laeZreknKEeg0YqnM5k/j9Ymm82+LO6btx+UBMIABUVfZWOnzyrGUet0c3eMwzN2fNXWGX2ZDbRU8et9IdDVup9wkaTL9ppZ3oTJVYoIMJEX8pDHoOGyrezvJ97eWy7K+leWxo90JhtfHfTG4KGT+Qtjm9gsAAYtaNrkJXejbSzBqaSVR6A5lckVQUxeTH5dey8c98x+n3XV9sNHgGN9hKFbmheHCj3n/szm1RBUYMnrKiZpKZKkpK7uA/OjUeI6i4wUOaeKqD75l+h8YdzydYokTtLCy8N+pD5CvAX4DdovW1q0Pzl6SGOtEivPPRav2eef5sGjfiUpR3o87Fm/p60NK8MmeIoa//Bk+lPTwzWzFdLH8r7uqE5eFSeqOsbYtMNzZg71kYq8nUPmozn5e0TRDT2YA4DBtDg6LsllWyNLXTkeJguBWDRNDE5XbZ+ir/BpyKp94tj2shQg+btCQsUKdteYjsHoFQqGNd/7DaY/r3Rn6ottW0T3bmDURDirvDbpRkHDyw1dQ75d3OEP5ntR9m5haryvjv0g0OOc3nv9ls3NLeKy+hyWYtuYLjliSltJmosIOmWL0nJv9YND+X4ELXUUKWtmQbuymgFDAdn0tGbTCEDhk1zqYBP56x2KO78xQTa/O0h2uMfzDZ98QfOb70aNM/2e4+t4mMlX3ns9v8PVVXXMFHlFdVtysJhra21Umj4JVq35QBLj3ThkbHMmZ06cxVLhxlvOLdY2UcoKLzNfuMejjNh0Q75rqA5efo8rxpFnI8jv3X7WJ44+weGkJmpBN3QoAT+Wfq7JkBzKEfeUBVXVSFXoLmG7aWRbjzuGp78ySz+jZJ66rE+RRUYDk5Wub2VIp3fEkxCYpUdQbldg8eDBUDAkgi/h7MaNMrnztdP932LAAWCzzuzHLLenyxv78AORSPdgp7uSQsavEQ8fDzra0dZnMvs7m/d0EDxGDFxC+Lq/PBRG4UWNbNyr81KpUfDgmlcfDSFlspvDx5IFftIynihDTx8D01EVg09sCLRJTAAZ+ulUioprdBUzKIvtrByAAItJdXV2VicXi/8PCdiFBrI5m+37+ebHHkt99vJZBvtDsxAg2E6QvTlJEc5tOruzn3d0GRk5dO54ua7QtMr2EaxZfKwe8mNRAYMoOHHkJizdLBQ7lZYzSwhRDnDZHjKNrFbgYmVd4WFW5oZJ/NZGvgNagr4IVR2oj/67EvV50gD5SIot5e6A82u/ceZnC+/2e3ICwAhYP+zkfklM9Cci5LX/PDCqOnE7D3d0Oz/PgQbNanbMfVhNixP/9M2yrgz2Tc9Oc4BCgdGeX4xKpS25WaQpbGRKZWsMey8LqpENzAAByMqBGxWV1NGanoue/7a8E9UnyMNB2TWgrWOOPyeVt+Pbu/NsfNo9sJ1tG7zAeaQ803y3KmF7H+8Oonljz85N4tozcYAQmO6Kg/SmYEGDjnCu5MWOeqjpht37+mG5vl/jWcFWZfSqGptRkTYqbReourGRhobf9ElMEp4ngw/SV+mX6eyBjv9mGExBAyg2R9fwXwWLQWgofQGbFPlcrSgmTLjK7qRluNSpBIayMPmMau1XjUN9kBjGMzz5Wcz0NzMv8XyGv7O7DZyuXwzZ93QIJOtO4+wwnzwv9lfpU8z6YKdmiSiPFsdDY05pxsYJTwAB+GNfZmGwCmra6Kfzl7WVA62nCJgBMNHIFpnpZLVoOFdDT63WbpyG73+5nSCM9q9z1vMycVoCAEjK+dGweIinGJYmYCDpygzO9/hOCONs1UwAw1kI4we79umHM7lcue3IWiQwYVLiaxAyxPlWeHZsQ3sd1J1JfWLCnULGA5Pvs1KkTm1uqHxPS3PQbj6Tir5eiYr38j35hpSoBo0GE4jYFJPTdmuoFGLjz1JV67eYDIBsjIOhsYIWOdT3ldea42e4hJkmR98skIzrVKO0WvD0CCD7buPsgpx/yWyvIR6RJwyBQzAWZwqO6QjA7Koy7KrLuEZGZDNyvD94dMuFXM69CKLhy8ljCjHGRpYCh605BiFBnIAPAL8IaVcONMIsO7K+8prLWgw4YmA6QRlfE9duwUNMu/Tfxxhwi+stNg0LNzS4FxULw9/UemEIittji6hMYE59LDfNQdEn4fJfgq+0MSnM66UgS85Ea4mp7uM5yzDGZpHnxnG5OCP1uc07kAz5K0ZTC4m8ZRlgH+FcMDFS6EFDfbXIGAQoJTpqWu3oUEBsI9jb162x6DpE3mGVfZi3naKLdxH+dVXqKnlZwcyt7KBSuvkCcMde4J0KYQ78BC897sTqksGasp0hgZxamrlxdK5i9tuzMLa3KXYZFb+pGsZNGLMHEL3g/WqJ597U7WsmOwD+AiHgkJbxeHfiuXmFWlCqgXN315+n8nEH0wDqNXPzD1T0ECJG7PTPAbN+IRoVtng1Dm0Kaaf4zh8fQpF3dxMmRVn2fN+r31gSBFYg1EGOIrwIZTrMso1HShUDZrFy7c6xMC34w41tqCqhb7/HEcTpi5jj0rKKgm+Bk+DM59Bhq+knFjkDYpJSx6QFuXGRCR/rgUNnvM5I54e9YuJvUYZmXnsS1cso3A5Rs+moEE/vPNmlseg8ctMYXXcFT/MAYwSnqAUuf/HaMVoRbHSi+4D3ZQyYKY7v0Be31HKXLl6F2vgMRMXtsprpu8aNhKz2xvYB4IpqdkUdCKcMHnYtacPTZu5is3ZAAr8hsWAtVALSAv/EP6SMm9+jeUAPvDg6THJypcj7rYJa8mKrYQ8nAO6QudpAZ6nnrMpaOITU+nH0lseg+ZkcSHV2G+rAgN4jqRMZfV/ZehUVSXrqbCIo71PRq9uTEGDfwtS3mD3GDRZdbWUXXFeE5oLeXL3gD0peiso4pmHxFmHpqDh+0umJcWaBufpiBBmRS4X7tGEpsyaSTDPzpUQvz0PhiudmoIGgvGpbEJ1hWloRsdFMWhC0heoQnMxbxt7rlxUdFUx8az9QDINzcRpX7DGNDuKOnxn5Tu3KpoOJI1zgIORVHalDNTdJvIEKO0HilK3pqGBsGMnIhg4y1KT3bI4m3PkEc2yr3a08vYlkrdYYJip3G6grIC47hhQlHr2CDSYleVDu6056brBeeKnkxR4x8JMn7va4atgoQ1DQiz8YbuC1l4ZZUXEdcfB4xFo0GAPPfk6xcXL8yxptRbyTblK3cNDVAH667kfaHlaMlsysNnqCdsNRKN3XKOb1bXHoEFBfvvoQLZpmu/JbZEkulJVQUeL8mhffjYdLy6gxOqfZ0+x4Rl7a81WQqTvWOA8Cg1vPCzoobsJPHKGEpLS2H96gNODtSrsa/l27zHCt+A8vjh3bKOb1Xe7QGO2UCJ954ZIQHOP/9eLN74gAhoBjWE3QUAjoBHQeKO597YyC0sjLI2wNN721npjeYWlEZZGWBpvfHO9rczC0ghLIyyNt7213lheYWmEpTFsaf4L1lp4gzOjXSUAAAAASUVORK5CYII=;" vertex="1" parent="1">
          <mxGeometry x="710" y="710" width="141" height="66" as="geometry" />
        </mxCell>
        <mxCell id="ogB1OXXyy9iU-GvDi_hn-27" value="" style="endArrow=classic;html=1;rounded=0;entryX=0.75;entryY=0;entryDx=0;entryDy=0;" edge="1" parent="1" target="ogB1OXXyy9iU-GvDi_hn-18">
          <mxGeometry width="50" height="50" relative="1" as="geometry">
            <mxPoint x="380" y="300" as="sourcePoint" />
            <mxPoint x="230" y="390" as="targetPoint" />
          </mxGeometry>
        </mxCell>
        <mxCell id="ogB1OXXyy9iU-GvDi_hn-28" value="" style="endArrow=classic;html=1;rounded=0;entryX=0.5;entryY=0;entryDx=0;entryDy=0;" edge="1" parent="1" target="ogB1OXXyy9iU-GvDi_hn-20">
          <mxGeometry width="50" height="50" relative="1" as="geometry">
            <mxPoint x="380" y="300" as="sourcePoint" />
            <mxPoint x="228" y="410" as="targetPoint" />
          </mxGeometry>
        </mxCell>
        <mxCell id="ogB1OXXyy9iU-GvDi_hn-29" value="" style="endArrow=classic;html=1;rounded=0;entryX=0.25;entryY=0;entryDx=0;entryDy=0;" edge="1" parent="1" target="ogB1OXXyy9iU-GvDi_hn-21">
          <mxGeometry width="50" height="50" relative="1" as="geometry">
            <mxPoint x="380" y="300" as="sourcePoint" />
            <mxPoint x="238" y="420" as="targetPoint" />
          </mxGeometry>
        </mxCell>
        <mxCell id="ogB1OXXyy9iU-GvDi_hn-30" value="" style="endArrow=classic;html=1;rounded=0;entryX=0.25;entryY=0;entryDx=0;entryDy=0;" edge="1" parent="1" target="ogB1OXXyy9iU-GvDi_hn-22">
          <mxGeometry width="50" height="50" relative="1" as="geometry">
            <mxPoint x="380" y="300" as="sourcePoint" />
            <mxPoint x="248" y="430" as="targetPoint" />
          </mxGeometry>
        </mxCell>
        <mxCell id="ogB1OXXyy9iU-GvDi_hn-31" value="WEB" style="shape=image;verticalLabelPosition=bottom;labelBackgroundColor=#ffffff;verticalAlign=top;aspect=fixed;imageAspect=0;image=data:image/svg+xml,PHN2ZyB4bWxuczpjYz0iaHR0cDovL2NyZWF0aXZlY29tbW9ucy5vcmcvbnMjIiB4bWxuczpkYz0iaHR0cDovL3B1cmwub3JnL2RjL2VsZW1lbnRzLzEuMS8iIHhtbG5zOmlua3NjYXBlPSJodHRwOi8vd3d3Lmlua3NjYXBlLm9yZy9uYW1lc3BhY2VzL2lua3NjYXBlIiB4bWxuczpyZGY9Imh0dHA6Ly93d3cudzMub3JnLzE5OTkvMDIvMjItcmRmLXN5bnRheC1ucyMiIHhtbG5zOnNvZGlwb2RpPSJodHRwOi8vc29kaXBvZGkuc291cmNlZm9yZ2UubmV0L0RURC9zb2RpcG9kaS0wLmR0ZCIgeG1sbnM6c3ZnPSJodHRwOi8vd3d3LnczLm9yZy8yMDAwL3N2ZyIgeG1sbnM9Imh0dHA6Ly93d3cudzMub3JnLzIwMDAvc3ZnIiB4bWxuczp4bGluaz0iaHR0cDovL3d3dy53My5vcmcvMTk5OS94bGluayIgdmVyc2lvbj0iMS4xIiBpZD0ic3ZnMTQ0NjEiIGlua3NjYXBlOnZlcnNpb249IjAuOTIuMyAoMjQwNTU0NiwgMjAxOC0wMy0xMSkiIHNvZGlwb2RpOmRvY25hbWU9ImxhcHRvcF9vcmFuZ2Uuc3ZnIiB4PSIwcHgiIHk9IjBweCIgdmlld0JveD0iMCAwIDQxLjY1IDI1LjUiIHN0eWxlPSJlbmFibGUtYmFja2dyb3VuZDpuZXcgMCAwIDQxLjY1IDI1LjU7IiB4bWw6c3BhY2U9InByZXNlcnZlIj4mI3hhOzxzb2RpcG9kaTpuYW1lZHZpZXcgYm9yZGVyY29sb3I9IiM2NjY2NjYiIGJvcmRlcm9wYWNpdHk9IjEiIGZpdC1tYXJnaW4tYm90dG9tPSIwIiBmaXQtbWFyZ2luLWxlZnQ9IjAiIGZpdC1tYXJnaW4tcmlnaHQ9IjAiIGZpdC1tYXJnaW4tdG9wPSIwIiBncmlkdG9sZXJhbmNlPSIxMCIgZ3VpZGV0b2xlcmFuY2U9IjEwIiBpZD0ibmFtZWR2aWV3MTQ0NjMiIGlua3NjYXBlOmN1cnJlbnQtbGF5ZXI9InN2ZzE0NDYxIiBpbmtzY2FwZTpjeD0iMjcuNzY1MDA4IiBpbmtzY2FwZTpjeT0iMTcuMDAwMDA0IiBpbmtzY2FwZTpwYWdlb3BhY2l0eT0iMCIgaW5rc2NhcGU6cGFnZXNoYWRvdz0iMiIgaW5rc2NhcGU6d2luZG93LWhlaWdodD0iMTAxNyIgaW5rc2NhcGU6d2luZG93LW1heGltaXplZD0iMSIgaW5rc2NhcGU6d2luZG93LXdpZHRoPSIxOTIwIiBpbmtzY2FwZTp3aW5kb3cteD0iLTgiIGlua3NjYXBlOndpbmRvdy15PSItOCIgaW5rc2NhcGU6em9vbT0iMjQuMDgzMzMzIiBvYmplY3R0b2xlcmFuY2U9IjEwIiBwYWdlY29sb3I9IiNmZmZmZmYiIHNob3dncmlkPSJmYWxzZSI+JiN4YTsJPC9zb2RpcG9kaTpuYW1lZHZpZXc+JiN4YTs8ZyBpZD0iZzE0NDU5IiB0cmFuc2Zvcm09InRyYW5zbGF0ZSgtMC43NSwtMC43NSkiPiYjeGE7CTx0aXRsZSBpZD0idGl0bGUxNDQzNCI+UGFnZS0xPC90aXRsZT4mI3hhOwk8ZyBpZD0iZ3JvdXAzNjg4LTEiIHRyYW5zZm9ybT0idHJhbnNsYXRlKDAuNzUsLTAuNzUpIj4mI3hhOwkJPHRpdGxlIGlkPSJ0aXRsZTE0NDM2Ij5MYXB0b3AgKE9yYW5nZSk8L3RpdGxlPiYjeGE7CQk8ZyBpZD0ic2hhcGUzNjg5LTIiIHRyYW5zZm9ybT0idHJhbnNsYXRlKDIuNjAyNSwtMS41KSI+JiN4YTsJCQk8dGl0bGUgaWQ9InRpdGxlMTQ0MzgiPnBhdGg4OTAxPC90aXRsZT4mI3hhOwkJCTxwYXRoIGlkPSJwYXRoMTQ0NDAiIGlua3NjYXBlOmNvbm5lY3Rvci1jdXJ2YXR1cmU9IjAiIHN0eWxlPSJmaWxsOiM1NTZBOEE7IiBkPSJNMzYuMDMsMjdWMy43NWMwLTAuNDEtMC4zNC0wLjc1LTAuNzUtMC43NUgwLjc1ICAgICBDMC4zNCwzLDAsMy4zNCwwLDMuNzVWMjdIMzYuMDN6Ii8+JiN4YTsJCTwvZz4mI3hhOwkJPGcgaWQ9InNoYXBlMzY5MC00IiB0cmFuc2Zvcm09InRyYW5zbGF0ZSg0LjEzMjUsLTMuNzUpIj4mI3hhOwkJCTx0aXRsZSBpZD0idGl0bGUxNDQ0MyI+cmVjdDg5MDM8L3RpdGxlPiYjeGE7CQkJPHJlY3QgaWQ9InJlY3QxNDQ0NSIgeD0iMCIgeT0iNi43NSIgc3R5bGU9ImZpbGw6I0ZGOEMwMDsiIHdpZHRoPSIzMyIgaGVpZ2h0PSIyMC4yNSIvPiYjeGE7CQk8L2c+JiN4YTsJCTxnIGlkPSJzaGFwZTM2OTEtNiI+JiN4YTsJCQk8dGl0bGUgaWQ9InRpdGxlMTQ0NDgiPnBhdGg4OTA1PC90aXRsZT4mI3hhOwkJCTxwYXRoIGlkPSJwYXRoMTQ0NTAiIGlua3NjYXBlOmNvbm5lY3Rvci1jdXJ2YXR1cmU9IjAiIHN0eWxlPSJmaWxsOiM1NTZBOEE7IiBkPSJNMzkuMzgsMjdIMS44OEMwLjM4LDI3LDAsMjQuNzksMCwyNC43OSAgICAgbDQxLjY1LTAuMDRDNDEuNjUsMjQuNzUsNDAuODgsMjcsMzkuMzgsMjd6Ii8+JiN4YTsJCTwvZz4mI3hhOwkJPGcgaWQ9InNoYXBlMzY5Mi04IiB0cmFuc2Zvcm09InRyYW5zbGF0ZSgyMi41LC0xMC4yOSkiPiYjeGE7CQkJPHRpdGxlIGlkPSJ0aXRsZTE0NDUzIj5wb2x5Z29uODkwNzwvdGl0bGU+JiN4YTsJCQk8cGF0aCBpZD0icGF0aDE0NDU1IiBpbmtzY2FwZTpjb25uZWN0b3ItY3VydmF0dXJlPSIwIiBzdHlsZT0iZmlsbDojRkZGRkZGO2ZpbGwtb3BhY2l0eTowLjE1OyIgZD0iTTAsMTMuMjlMMTQuNjMsMjdWMTMuMjlIMHoiLz4mI3hhOwkJPC9nPiYjeGE7CTwvZz4mI3hhOzwvZz4mI3hhOzwvc3ZnPg==;" vertex="1" parent="1">
          <mxGeometry x="415.38" y="59" width="64.62" height="40" as="geometry" />
        </mxCell>
        <mxCell id="ogB1OXXyy9iU-GvDi_hn-35" value="" style="rounded=0;whiteSpace=wrap;html=1;opacity=20;strokeWidth=5;" vertex="1" parent="1">
          <mxGeometry x="200" y="380" width="477" height="131.25" as="geometry" />
        </mxCell>
        <mxCell id="ogB1OXXyy9iU-GvDi_hn-40" value="Cluster" style="text;html=1;align=center;verticalAlign=middle;resizable=0;points=[];autosize=1;strokeColor=none;fillColor=none;fontStyle=1;fontSize=15;" vertex="1" parent="1">
          <mxGeometry x="180" y="360" width="70" height="30" as="geometry" />
        </mxCell>
        <mxCell id="ogB1OXXyy9iU-GvDi_hn-41" value="" style="rounded=0;whiteSpace=wrap;html=1;opacity=20;strokeWidth=5;" vertex="1" parent="1">
          <mxGeometry x="100" y="662.63" width="340" height="127.37" as="geometry" />
        </mxCell>
        <mxCell id="ogB1OXXyy9iU-GvDi_hn-42" value="Cluster" style="text;html=1;align=center;verticalAlign=middle;resizable=0;points=[];autosize=1;strokeColor=none;fillColor=none;fontStyle=1;fontSize=15;" vertex="1" parent="1">
          <mxGeometry x="80" y="640" width="70" height="30" as="geometry" />
        </mxCell>
        <mxCell id="ogB1OXXyy9iU-GvDi_hn-44" value="Haproxy&amp;nbsp;" style="verticalLabelPosition=bottom;html=1;verticalAlign=top;align=center;strokeColor=none;fillColor=#00BEF2;shape=mxgraph.azure.load_balancer_generic;pointerEvents=1;" vertex="1" parent="1">
          <mxGeometry x="271" y="540" width="70" height="70" as="geometry" />
        </mxCell>
        <mxCell id="ogB1OXXyy9iU-GvDi_hn-45" value="" style="endArrow=classic;html=1;rounded=0;exitX=0.296;exitY=1.014;exitDx=0;exitDy=0;exitPerimeter=0;entryX=0.7;entryY=0;entryDx=0;entryDy=0;entryPerimeter=0;" edge="1" parent="1" source="ogB1OXXyy9iU-GvDi_hn-35" target="ogB1OXXyy9iU-GvDi_hn-44">
          <mxGeometry width="50" height="50" relative="1" as="geometry">
            <mxPoint x="440" y="630" as="sourcePoint" />
            <mxPoint x="490" y="580" as="targetPoint" />
          </mxGeometry>
        </mxCell>
        <mxCell id="ogB1OXXyy9iU-GvDi_hn-48" value="" style="endArrow=classic;html=1;rounded=0;entryX=0.5;entryY=0;entryDx=0;entryDy=0;" edge="1" parent="1" target="ogB1OXXyy9iU-GvDi_hn-13">
          <mxGeometry width="50" height="50" relative="1" as="geometry">
            <mxPoint x="300" y="640" as="sourcePoint" />
            <mxPoint x="170" y="590" as="targetPoint" />
          </mxGeometry>
        </mxCell>
        <mxCell id="ogB1OXXyy9iU-GvDi_hn-49" value="" style="endArrow=classic;html=1;rounded=0;entryX=1;entryY=0;entryDx=0;entryDy=0;" edge="1" parent="1" target="ogB1OXXyy9iU-GvDi_hn-14">
          <mxGeometry width="50" height="50" relative="1" as="geometry">
            <mxPoint x="300" y="640" as="sourcePoint" />
            <mxPoint x="154" y="690" as="targetPoint" />
          </mxGeometry>
        </mxCell>
        <mxCell id="ogB1OXXyy9iU-GvDi_hn-50" value="" style="endArrow=classic;html=1;rounded=0;entryX=0.25;entryY=0;entryDx=0;entryDy=0;" edge="1" parent="1" target="ogB1OXXyy9iU-GvDi_hn-15">
          <mxGeometry width="50" height="50" relative="1" as="geometry">
            <mxPoint x="300" y="640" as="sourcePoint" />
            <mxPoint x="164" y="700" as="targetPoint" />
          </mxGeometry>
        </mxCell>
        <mxCell id="ogB1OXXyy9iU-GvDi_hn-51" value="" style="endArrow=classic;html=1;rounded=0;entryX=0.25;entryY=0;entryDx=0;entryDy=0;" edge="1" parent="1" target="ogB1OXXyy9iU-GvDi_hn-16">
          <mxGeometry width="50" height="50" relative="1" as="geometry">
            <mxPoint x="300" y="640" as="sourcePoint" />
            <mxPoint x="174" y="710" as="targetPoint" />
          </mxGeometry>
        </mxCell>
        <mxCell id="ogB1OXXyy9iU-GvDi_hn-53" value="" style="endArrow=classic;html=1;rounded=0;exitX=0.575;exitY=1.001;exitDx=0;exitDy=0;exitPerimeter=0;" edge="1" parent="1" source="ogB1OXXyy9iU-GvDi_hn-35" target="ogB1OXXyy9iU-GvDi_hn-24">
          <mxGeometry width="50" height="50" relative="1" as="geometry">
            <mxPoint x="600" y="650" as="sourcePoint" />
            <mxPoint x="650" y="600" as="targetPoint" />
          </mxGeometry>
        </mxCell>
        <mxCell id="ogB1OXXyy9iU-GvDi_hn-54" value="" style="endArrow=classic;html=1;rounded=0;exitX=0.75;exitY=1;exitDx=0;exitDy=0;entryX=0.078;entryY=-0.019;entryDx=0;entryDy=0;entryPerimeter=0;" edge="1" parent="1" source="ogB1OXXyy9iU-GvDi_hn-35" target="ogB1OXXyy9iU-GvDi_hn-25">
          <mxGeometry width="50" height="50" relative="1" as="geometry">
            <mxPoint x="700" y="610" as="sourcePoint" />
            <mxPoint x="750" y="560" as="targetPoint" />
          </mxGeometry>
        </mxCell>
      </root>
    </mxGraphModel>
  </diagram>
</mxfile>
